<svg width="513" height="450" fill="none" xmlns="http://www.w3.org/2000/svg"><path fill-rule="evenodd" clip-rule="evenodd" d="M255.5 371.88c99.7 0 180.5-80.81 180.5-180.5 0-99.68-80.8-180.5-180.5-180.5C155.82 10.88 75 91.7 75 191.38c0 99.69 80.82 180.5 180.5 180.5Zm0 10c105.21 0 190.5-85.29 190.5-190.5C446 86.18 360.71.88 255.5.88 150.3.88 65 86.18 65 191.38c0 105.21 85.3 190.5 190.5 190.5Z" fill="url(#a)" fill-opacity=".3"/><path fill-rule="evenodd" clip-rule="evenodd" d="M177.31 98.2c-51.47 43.18-58.18 119.91-15 171.38 43.2 51.46 119.92 58.17 171.39 14.99 51.46-43.19 58.18-119.91 15-171.38-43.2-51.47-119.92-58.18-171.39-15Zm-3.21-3.83c-53.58 44.95-60.57 124.84-15.61 178.42 44.96 53.58 124.84 60.57 178.42 15.61 53.58-44.96 60.57-124.84 15.61-178.42C307.56 56.38 227.68 49.4 174.1 94.36Z" fill="url(#b)" fill-opacity=".3"/><path fill-rule="evenodd" clip-rule="evenodd" d="M218.66 147.48a57.32 57.32 0 1 0 73.69 87.8 57.32 57.32 0 0 0-73.69-87.8Zm-3.21-3.83a62.31 62.31 0 1 0 80.1 95.47 62.31 62.31 0 0 0-80.1-95.47Z" fill="url(#c)" fill-opacity=".3"/><g filter="url(#d)"><rect y="78.88" width="191" height="158" rx="20" fill="url(#e)"/></g><rect x="79" y="98.88" width="34" height="34" rx="10" fill="#00030C"/><path d="M29.03 164.8c0 .57-.15 1.1-.43 1.6-.3.47-.72.86-1.28 1.16a4.5 4.5 0 0 1-2.07.44c-.8 0-1.51-.14-2.14-.4a3.43 3.43 0 0 1-2.16-2.98h2.4c.05.46.23.84.54 1.15.32.3.74.45 1.27.45.46 0 .82-.12 1.07-.37.25-.25.38-.58.38-.97 0-.36-.1-.64-.3-.87-.2-.23-.46-.42-.77-.56-.31-.14-.74-.3-1.28-.48-.7-.23-1.28-.46-1.73-.69a3.35 3.35 0 0 1-1.15-1c-.31-.44-.46-1.01-.46-1.72 0-.97.34-1.73 1.04-2.28a4.3 4.3 0 0 1 2.78-.85c1.2 0 2.14.28 2.85.86a3.25 3.25 0 0 1 1.21 2.3h-2.43a1.57 1.57 0 0 0-1.65-1.4c-.41.01-.75.13-1 .35-.26.21-.39.53-.39.94 0 .33.1.61.29.84.2.2.45.38.75.52.31.14.73.3 1.25.47.72.25 1.31.5 1.76.72.46.22.85.56 1.17 1 .32.45.48 1.04.48 1.76Zm5.8-5.9c1.14 0 2.1.32 2.85.94a4.04 4.04 0 0 1 1.44 2.52h-2.38a1.8 1.8 0 0 0-.66-1.1 1.98 1.98 0 0 0-1.3-.42c-.6 0-1.1.23-1.5.67-.4.44-.6 1.09-.6 1.94 0 .85.2 1.5.6 1.95.4.44.9.66 1.5.66.53 0 .96-.13 1.3-.4.34-.28.56-.65.66-1.12h2.38a4.04 4.04 0 0 1-1.44 2.53c-.76.62-1.7.93-2.85.93-.86 0-1.63-.19-2.3-.55-.67-.37-1.2-.9-1.57-1.58a4.96 4.96 0 0 1-.56-2.42c0-.93.19-1.73.56-2.41.37-.7.9-1.23 1.57-1.59a4.77 4.77 0 0 1 2.3-.54Zm9.53 0c.74 0 1.38.18 1.92.53.53.36.9.83 1.13 1.43v-1.84h2.24v8.86h-2.24v-1.85c-.22.6-.6 1.07-1.13 1.44a3.4 3.4 0 0 1-1.92.53 3.74 3.74 0 0 1-3.42-2.11 5.6 5.6 0 0 1-.5-2.44c0-.93.16-1.73.5-2.41a3.7 3.7 0 0 1 3.42-2.13Zm.7 1.97c-.7 0-1.27.23-1.7.7a2.66 2.66 0 0 0-.64 1.88c0 .8.22 1.43.64 1.89.43.45 1 .67 1.7.67.68 0 1.24-.23 1.68-.69.45-.47.67-1.1.67-1.87 0-.79-.22-1.41-.67-1.87-.44-.47-1-.7-1.68-.7Zm12.08-1.98c1.02 0 1.84.34 2.44 1 .61.68.92 1.63.92 2.84v5.15h-2.24v-4.9c0-.7-.18-1.24-.55-1.63-.36-.39-.86-.59-1.49-.59-.64 0-1.15.21-1.53.63-.39.41-.58 1.01-.58 1.79v4.7h-2.25v-8.86h2.25v1.77c.24-.6.62-1.06 1.15-1.39a3.44 3.44 0 0 1 1.88-.5Zm14.25-2.41c1.4 0 2.58.36 3.5 1.08a5.14 5.14 0 0 1 1.84 2.96h-2.36a3.08 3.08 0 0 0-3.01-1.97 2.98 2.98 0 0 0-2.74 1.73c-.26.56-.4 1.2-.4 1.96 0 .73.14 1.38.4 1.93a3 3 0 0 0 1.12 1.28 3 3 0 0 0 1.62.45 3.08 3.08 0 0 0 3-1.97h2.37a5.15 5.15 0 0 1-1.84 2.96 5.52 5.52 0 0 1-3.5 1.09 5.09 5.09 0 0 1-4.78-2.77 6.44 6.44 0 0 1-.68-2.97c0-1.13.23-2.12.68-3a4.97 4.97 0 0 1 1.92-2.03c.82-.49 1.77-.74 2.86-.74Zm9.45 4.24a3.64 3.64 0 0 1 3.14-1.83v2.42h-.66c-1.65 0-2.48.76-2.48 2.3v4.27H78.6v-8.86h2.25v1.7Zm12.88 2.4c0 .22-.02.47-.08.76h-6.5c.04.8.25 1.37.65 1.75.4.37.88.56 1.47.56.52 0 .95-.13 1.3-.39.35-.25.57-.6.67-1.04h2.38a3.82 3.82 0 0 1-2.24 2.82 4.7 4.7 0 0 1-2 .41c-.86 0-1.63-.18-2.3-.54-.67-.37-1.2-.9-1.57-1.58a4.96 4.96 0 0 1-.56-2.42c0-.93.19-1.73.56-2.41.37-.7.9-1.23 1.57-1.59a4.77 4.77 0 0 1 2.3-.54c.88 0 1.64.18 2.29.54.66.36 1.17.87 1.52 1.5.36.63.54 1.35.54 2.17Zm-2.27-.23c.03-.72-.16-1.27-.57-1.65-.41-.37-.91-.56-1.5-.56-.62 0-1.13.19-1.54.56-.42.38-.65.92-.7 1.65h4.31Zm7.5-3.98c.75 0 1.39.17 1.91.53.53.35.92.82 1.15 1.42v-4.82h2.24v11.84h-2.24v-1.85c-.23.6-.62 1.07-1.15 1.44-.52.35-1.16.53-1.9.53a3.74 3.74 0 0 1-3.42-2.11 5.6 5.6 0 0 1-.5-2.44c0-.93.16-1.73.5-2.41a3.71 3.71 0 0 1 3.42-2.13Zm.71 1.97c-.7 0-1.27.22-1.7.68a2.66 2.66 0 0 0-.64 1.9c0 .8.22 1.42.64 1.88.43.45 1 .67 1.7.67.68 0 1.24-.23 1.68-.69.45-.47.67-1.1.67-1.87 0-.79-.22-1.41-.67-1.87-.44-.47-1-.7-1.68-.7Zm6.54-4.4c0-.37.13-.66.38-.88.26-.24.6-.36 1.01-.36.42 0 .75.12 1.01.35.26.23.39.52.39.88s-.13.65-.39.88c-.25.23-.6.34-1 .34-.42 0-.76-.11-1.02-.34a1.14 1.14 0 0 1-.38-.88Zm2.51 2.54v8.86h-2.25v-8.86h2.25Zm6.94 6.93v1.93h-1.18c-1 0-1.76-.24-2.3-.72-.51-.48-.78-1.28-.78-2.4v-3.84h-1.23v-1.9h1.23v-2.2h2.26v2.2h1.98v1.9h-1.98v3.88c0 .42.09.72.26.9.17.16.45.25.86.25h.88Zm10.53-9.47c1.41 0 2.58.36 3.5 1.08a5.15 5.15 0 0 1 1.85 2.96h-2.37a3.08 3.08 0 0 0-3.01-1.97 2.99 2.99 0 0 0-2.74 1.73c-.26.56-.4 1.2-.4 1.96 0 .73.14 1.38.4 1.93a3 3 0 0 0 1.12 1.28 3 3 0 0 0 1.62.45 3.08 3.08 0 0 0 3-1.97h2.38a5.15 5.15 0 0 1-1.84 2.96 5.52 5.52 0 0 1-3.5 1.09 5.1 5.1 0 0 1-4.78-2.77 6.44 6.44 0 0 1-.68-2.97c0-1.13.22-2.12.67-3a4.97 4.97 0 0 1 1.92-2.03c.82-.49 1.77-.74 2.86-.74Zm10.67 2.43c.75 0 1.39.17 1.92.53.53.35.91.82 1.14 1.42v-1.84h2.24v8.86h-2.24v-1.85c-.23.6-.6 1.07-1.14 1.44-.53.35-1.17.53-1.92.53s-1.42-.19-2.01-.55a3.73 3.73 0 0 1-1.41-1.57c-.33-.7-.5-1.5-.5-2.43 0-.93.17-1.73.5-2.41a3.7 3.7 0 0 1 3.42-2.13Zm.7 1.97c-.7 0-1.27.22-1.7.68a2.66 2.66 0 0 0-.63 1.9c0 .8.21 1.42.64 1.88.42.45 1 .67 1.7.67.68 0 1.24-.23 1.68-.69.44-.47.67-1.1.67-1.87 0-.79-.23-1.41-.67-1.87-.44-.47-1-.7-1.69-.7Zm9.06-.16a3.64 3.64 0 0 1 3.13-1.83v2.42h-.65c-1.66 0-2.48.76-2.48 2.3v4.27h-2.26v-8.86h2.26v1.7Zm8.01-1.81c.75 0 1.38.17 1.9.53.54.35.92.82 1.16 1.42v-4.82h2.24v11.84h-2.24v-1.85c-.24.6-.62 1.07-1.15 1.44-.53.35-1.16.53-1.9.53a3.73 3.73 0 0 1-3.42-2.11c-.34-.7-.5-1.51-.5-2.44 0-.93.16-1.73.49-2.41a3.7 3.7 0 0 1 3.42-2.13Zm.7 1.97c-.7 0-1.26.22-1.69.68a2.66 2.66 0 0 0-.64 1.9c0 .8.22 1.42.64 1.88.43.45 1 .67 1.7.67.68 0 1.24-.23 1.68-.69.45-.47.67-1.1.67-1.87 0-.79-.22-1.41-.67-1.87-.44-.47-1-.7-1.68-.7Zm9.86-1.97a3.9 3.9 0 0 1 2.6.81 3.53 3.53 0 0 1 1.2 2.18h-2.1a1.75 1.75 0 0 0-.58-1.03c-.3-.25-.69-.38-1.17-.38-.38 0-.68.1-.9.27a.92.92 0 0 0-.31.74c0 .24.08.44.25.6.17.14.39.26.64.34.26.09.63.19 1.1.3.68.16 1.22.32 1.64.49.42.16.79.42 1.09.78.3.35.46.83.46 1.44 0 .76-.3 1.37-.9 1.84-.58.47-1.38.7-2.38.7a4.56 4.56 0 0 1-2.77-.76 3.3 3.3 0 0 1-1.26-2.23h2.16c.05.44.24.79.57 1.04.33.25.77.37 1.3.37.38 0 .68-.09.88-.27.2-.2.3-.44.3-.74a.8.8 0 0 0-.27-.62 1.69 1.69 0 0 0-.65-.37c-.26-.09-.63-.19-1.1-.3-.67-.15-1.2-.3-1.62-.45-.4-.16-.76-.41-1.06-.75a2.12 2.12 0 0 1-.43-1.41c0-.77.3-1.4.88-1.87.59-.48 1.4-.72 2.43-.72Z" fill="#fff"/><path d="M30.64 190.69a2.17 2.17 0 0 1-1.16 1.96c-.4.2-.88.32-1.46.32-.56 0-1.06-.1-1.5-.3a2.44 2.44 0 0 1-1.49-2.06h1.17c.02.23.1.47.24.7.14.22.34.41.6.56.26.15.58.22.95.22.48 0 .85-.13 1.1-.38.26-.26.39-.59.39-.99 0-.34-.1-.62-.28-.84a1.8 1.8 0 0 0-.66-.5 8.29 8.29 0 0 0-1.08-.4c-.54-.19-.97-.35-1.3-.5-.32-.16-.6-.4-.82-.7a2.07 2.07 0 0 1-.34-1.25c0-.44.1-.82.31-1.16.22-.34.52-.6.91-.78.4-.18.87-.28 1.4-.28.84 0 1.5.2 1.99.62.48.4.77.9.85 1.53h-1.18a1.6 1.6 0 0 0-.51-.89 1.62 1.62 0 0 0-1.14-.38c-.44 0-.8.12-1.06.35-.26.22-.4.54-.4.96 0 .33.09.6.26.8.17.2.39.36.64.48.26.12.61.24 1.06.39.55.17.98.34 1.3.5.34.16.63.4.86.73.23.32.35.75.35 1.29Zm4.5-4.48c.84 0 1.54.22 2.1.67.54.45.88 1.05 1.01 1.8H37.1c-.08-.47-.3-.84-.66-1.1a2.1 2.1 0 0 0-1.32-.4c-.38 0-.74.08-1.06.25-.3.18-.56.45-.75.82-.2.36-.3.8-.3 1.34s.1 1 .3 1.36a1.94 1.94 0 0 0 1.8 1.07c.54 0 .98-.14 1.33-.4.36-.28.58-.65.66-1.13h1.15a2.85 2.85 0 0 1-1.02 1.82c-.55.44-1.25.66-2.09.66a3.4 3.4 0 0 1-1.68-.41 2.93 2.93 0 0 1-1.15-1.16 3.78 3.78 0 0 1-.4-1.8c0-.7.13-1.3.4-1.8.28-.52.67-.9 1.15-1.18a3.4 3.4 0 0 1 1.68-.4Zm7.36 0c.64 0 1.18.16 1.62.48.45.32.76.75.94 1.28v-1.68h1.09v6.6h-1.1v-1.69c-.17.54-.48.97-.93 1.29-.44.32-.98.48-1.62.48a2.87 2.87 0 0 1-2.64-1.57 3.98 3.98 0 0 1-.38-1.8c0-.7.12-1.3.38-1.8a2.85 2.85 0 0 1 2.64-1.59Zm.31.97c-.67 0-1.21.22-1.62.65-.4.42-.6 1.01-.6 1.76 0 .76.2 1.35.6 1.78.41.42.95.64 1.62.64.43 0 .82-.1 1.15-.3.35-.2.62-.48.8-.84.2-.37.3-.8.3-1.28 0-.47-.1-.9-.3-1.27-.18-.36-.45-.64-.8-.84a2.2 2.2 0 0 0-1.15-.3Zm8.66-1c.77 0 1.4.25 1.86.75.48.49.71 1.2.71 2.13v3.82h-1.09v-3.73c0-.66-.17-1.16-.5-1.51a1.8 1.8 0 0 0-1.37-.53c-.6 0-1.08.2-1.44.59-.36.38-.54.95-.54 1.7v3.48H48v-6.59h1.1v1.56c.17-.53.46-.94.89-1.23.43-.29.92-.43 1.48-.43Zm7.9.11 2.14 5.19 1.98-5.19h1.22L60.79 196h-1.23l1.37-3.22-2.78-6.49h1.23Zm9.45-.08c.63 0 1.2.14 1.69.4.5.28.9.67 1.17 1.18.3.52.44 1.12.44 1.8 0 .7-.15 1.3-.44 1.8-.28.5-.67.9-1.17 1.17-.5.27-1.06.4-1.7.4-.63 0-1.2-.13-1.7-.4a3 3 0 0 1-1.17-1.16 3.61 3.61 0 0 1-.44-1.8c0-.7.15-1.3.44-1.8.28-.52.68-.9 1.17-1.18.5-.27 1.07-.4 1.7-.4Zm0 .96c-.4 0-.76.09-1.1.27-.32.17-.6.44-.8.81-.2.36-.3.8-.3 1.34 0 .53.1.98.3 1.35.2.36.48.63.8.8a2.32 2.32 0 0 0 2.18 0c.33-.17.6-.44.8-.8.2-.37.31-.82.31-1.34 0-.54-.1-.99-.31-1.35-.2-.37-.47-.64-.8-.81a2.25 2.25 0 0 0-1.08-.27Zm10.7-.88v6.6h-1.1v-1.55c-.17.53-.47.94-.9 1.23-.42.28-.92.42-1.49.42-.76 0-1.37-.24-1.84-.73-.48-.5-.71-1.2-.71-2.13v-3.84h1.09v3.74c0 .65.17 1.16.5 1.52.34.35.8.53 1.37.53.6 0 1.08-.2 1.44-.58.36-.39.54-.96.54-1.7v-3.5h1.1Zm2.96 1.34c.21-.46.53-.81.94-1.06.42-.25.92-.38 1.5-.38v1.19h-.34c-.62 0-1.12.16-1.52.47-.39.32-.58.84-.58 1.56v3.47h-1.1v-6.59h1.1v1.34Zm6.55-1.42c.84 0 1.53.22 2.08.67.56.45.9 1.05 1.02 1.8h-1.15c-.08-.47-.3-.84-.66-1.1a2.1 2.1 0 0 0-1.32-.4c-.38 0-.73.08-1.05.25-.32.18-.57.45-.76.82-.2.36-.29.8-.29 1.34s.1 1 .29 1.36a1.94 1.94 0 0 0 1.81 1.07c.53 0 .97-.14 1.32-.4.36-.28.58-.65.66-1.13h1.15a2.85 2.85 0 0 1-1.02 1.82c-.55.44-1.24.66-2.08.66a3.4 3.4 0 0 1-1.68-.41 2.93 2.93 0 0 1-1.16-1.16 3.78 3.78 0 0 1-.4-1.8c0-.7.13-1.3.4-1.8.28-.52.67-.9 1.16-1.18a3.4 3.4 0 0 1 1.68-.4Zm5.74 1.42c.22-.46.54-.81.95-1.06.42-.25.91-.38 1.49-.38v1.19h-.34c-.61 0-1.12.16-1.5.47-.4.32-.6.84-.6 1.56v3.47h-1.09v-6.59h1.1v1.34Zm9.7 1.6c0 .23-.02.43-.05.6h-5.27c.03.74.24 1.3.64 1.68.4.38.9.57 1.49.57.52 0 .96-.13 1.32-.4.36-.27.58-.63.66-1.08h1.16a2.73 2.73 0 0 1-1.6 2.07c-.45.2-.94.3-1.5.3a3.4 3.4 0 0 1-1.68-.41 2.93 2.93 0 0 1-1.15-1.16 3.78 3.78 0 0 1-.4-1.8c0-.7.13-1.3.4-1.8.28-.52.67-.9 1.15-1.18a3.4 3.4 0 0 1 1.68-.4c.64 0 1.2.13 1.67.4.48.27.85.63 1.1 1.1.25.45.38.95.38 1.5Zm-1.1.06c.02-.48-.06-.9-.25-1.22a1.75 1.75 0 0 0-.75-.73 2.3 2.3 0 0 0-1.05-.24c-.6 0-1.1.19-1.5.56-.42.37-.64.91-.67 1.63h4.21Zm5.35-3.08c.64 0 1.18.16 1.62.48.44.32.76.75.93 1.28V184h1.1v8.88h-1.1v-1.68c-.17.54-.49.97-.93 1.29-.44.32-.98.48-1.62.48a2.87 2.87 0 0 1-2.64-1.57 3.98 3.98 0 0 1-.39-1.8c0-.7.13-1.3.39-1.8a2.85 2.85 0 0 1 2.64-1.59Zm.3.97c-.66 0-1.2.22-1.61.65-.4.42-.6 1.01-.6 1.76 0 .76.2 1.35.6 1.78.4.42.95.64 1.62.64.43 0 .81-.1 1.15-.3.34-.2.61-.48.8-.84.2-.37.3-.8.3-1.28 0-.47-.1-.9-.3-1.27-.19-.36-.46-.64-.8-.84a2.2 2.2 0 0 0-1.15-.3Zm5.01-2.82c0-.2.07-.36.2-.48.14-.13.32-.19.54-.19.23 0 .4.06.54.2.14.11.2.27.2.47 0 .2-.06.37-.2.5a.79.79 0 0 1-.54.17.79.79 0 0 1-.54-.18.65.65 0 0 1-.2-.49Zm1.28 1.93v6.6h-1.09v-6.6h1.1Zm5.02 5.63v.96h-.81c-.67 0-1.18-.16-1.51-.48-.33-.32-.5-.85-.5-1.6v-3.56h-.98v-.95h.98v-1.64h1.1v1.64h1.71v.95h-1.7v3.58c0 .42.07.72.23.88.16.15.43.22.81.22h.67Zm7.46-5.7c.84 0 1.53.22 2.08.66.56.45.9 1.05 1.03 1.8h-1.16c-.08-.47-.3-.84-.66-1.1a2.1 2.1 0 0 0-1.32-.4c-.38 0-.73.08-1.05.25-.31.18-.57.45-.76.82-.2.36-.29.8-.29 1.34s.1 1 .3 1.36a1.94 1.94 0 0 0 1.8 1.07c.53 0 .97-.14 1.32-.4.36-.28.58-.65.66-1.13h1.16a2.85 2.85 0 0 1-1.03 1.82c-.55.44-1.24.66-2.08.66a3.4 3.4 0 0 1-1.68-.41 2.93 2.93 0 0 1-1.16-1.16 3.78 3.78 0 0 1-.4-1.8c0-.7.13-1.3.4-1.8.28-.52.67-.9 1.16-1.18a3.4 3.4 0 0 1 1.68-.4Zm7.35 0c.64 0 1.18.15 1.62.47.45.32.76.75.94 1.28v-1.68h1.1v6.6h-1.1v-1.69c-.18.54-.49.97-.94 1.29-.44.32-.98.48-1.62.48a2.87 2.87 0 0 1-2.64-1.57 3.98 3.98 0 0 1-.38-1.8c0-.7.13-1.3.38-1.8a2.85 2.85 0 0 1 2.64-1.59Zm.32.96c-.68 0-1.22.22-1.62.65-.4.42-.6 1.01-.6 1.76 0 .76.2 1.35.6 1.78.4.42.94.64 1.62.64.43 0 .81-.1 1.15-.3.34-.2.61-.48.8-.84.2-.37.29-.8.29-1.28 0-.47-.1-.9-.29-1.27-.19-.36-.46-.64-.8-.84a2.2 2.2 0 0 0-1.15-.3Zm6.28.45c.22-.46.53-.81.95-1.06.42-.25.91-.38 1.49-.38v1.19h-.34c-.61 0-1.12.16-1.51.47-.4.32-.59.84-.59 1.56v3.47h-1.09v-6.59h1.1v1.34Zm6.34-1.42c.64 0 1.18.16 1.62.48.44.32.76.75.93 1.28V184h1.1v8.88h-1.1v-1.68c-.17.54-.49.97-.93 1.29-.44.32-.98.48-1.62.48a2.87 2.87 0 0 1-2.64-1.57 3.98 3.98 0 0 1-.39-1.8c0-.7.13-1.3.39-1.8a2.85 2.85 0 0 1 2.64-1.59Zm.3.97c-.66 0-1.2.22-1.61.65-.4.42-.6 1.01-.6 1.76 0 .76.2 1.35.6 1.78.4.42.95.64 1.62.64.43 0 .81-.1 1.15-.3.34-.2.61-.48.8-.84.2-.37.3-.8.3-1.28 0-.47-.1-.9-.3-1.27-.19-.36-.46-.64-.8-.84a2.2 2.2 0 0 0-1.15-.3Zm8.1-2.82c0-.2.06-.36.2-.48.13-.13.31-.19.54-.19.22 0 .4.06.54.2.13.11.2.27.2.47 0 .2-.07.37-.2.5a.79.79 0 0 1-.54.17.79.79 0 0 1-.54-.18.65.65 0 0 1-.2-.49Zm1.28 1.93v6.6h-1.1v-6.6h1.1Zm5.34-.1c.77 0 1.39.25 1.86.74.47.49.71 1.2.71 2.13v3.82h-1.1v-3.73c0-.66-.16-1.16-.5-1.51a1.8 1.8 0 0 0-1.36-.53c-.6 0-1.08.2-1.44.59-.36.38-.54.95-.54 1.7v3.48h-1.1v-6.59h1.1v1.56c.16-.53.46-.94.88-1.23.44-.29.93-.43 1.5-.43Zm-98.34 23.75v-.91l4.35-5.67h1.17V209h1.25v.95h-1.25v1.94h-1.1v-1.94h-4.42Zm4.5-5.25-3.34 4.3h3.33v-4.3Zm14.75.5c.77 0 1.39.25 1.85.74.47.49.71 1.2.71 2.13v3.82h-1.1v-3.73c0-.65-.15-1.14-.47-1.49a1.66 1.66 0 0 0-1.3-.51c-.57 0-1.04.19-1.39.57-.34.38-.52.94-.52 1.67v3.5H80.7v-3.74c0-.65-.16-1.14-.48-1.49a1.68 1.68 0 0 0-1.3-.51c-.58 0-1.05.19-1.4.57-.34.38-.51.94-.51 1.67v3.5h-1.1v-6.6h1.1v1.5c.16-.51.44-.91.85-1.18.41-.28.89-.42 1.43-.42.56 0 1.04.14 1.45.43.41.28.71.7.89 1.25.18-.54.49-.95.92-1.24.43-.3.92-.44 1.46-.44Zm4.18-1.83c0-.2.07-.36.2-.48.14-.13.32-.19.55-.19.22 0 .4.06.54.2.13.11.2.27.2.47 0 .2-.07.37-.2.5a.79.79 0 0 1-.54.17.79.79 0 0 1-.54-.18.65.65 0 0 1-.2-.49Zm1.29 1.93v6.6h-1.1v-6.6h1.1Zm5.34-.1c.77 0 1.39.25 1.86.74.47.49.7 1.2.7 2.13v3.82H96.3v-3.73c0-.66-.17-1.16-.5-1.51a1.8 1.8 0 0 0-1.37-.53c-.6 0-1.08.2-1.44.59-.36.38-.54.95-.54 1.7v3.48h-1.1v-6.59h1.1v1.56c.16-.53.46-.94.88-1.23.44-.29.93-.43 1.5-.43Zm10.22.1v6.6h-1.1v-1.55c-.16.53-.46.94-.9 1.23-.42.28-.91.42-1.48.42-.76 0-1.38-.24-1.85-.73-.47-.5-.7-1.2-.7-2.13v-3.84h1.09v3.74c0 .65.16 1.16.5 1.52.34.35.8.53 1.37.53.6 0 1.08-.2 1.44-.58.36-.39.54-.96.54-1.7v-3.5h1.09Zm5.01 5.63v.96h-.81c-.67 0-1.18-.16-1.51-.48-.33-.32-.5-.85-.5-1.6v-3.56h-.98v-.95h.98v-1.64h1.1v1.64h1.71v.95h-1.7v3.58c0 .42.07.72.23.88.16.15.43.22.81.22h.67Zm7.52-2.7c0 .24-.02.44-.05.6h-5.27c.02.75.24 1.32.64 1.7.4.37.9.56 1.48.56.53 0 .97-.13 1.32-.4.36-.27.58-.63.66-1.08h1.17a2.73 2.73 0 0 1-1.61 2.07c-.44.2-.94.3-1.49.3a3.4 3.4 0 0 1-1.68-.41 2.93 2.93 0 0 1-1.15-1.16 3.78 3.78 0 0 1-.4-1.8c0-.7.13-1.3.4-1.8.28-.52.66-.9 1.15-1.18a3.4 3.4 0 0 1 1.68-.4c.64 0 1.2.13 1.67.4.48.27.84.63 1.1 1.1.25.45.38.95.38 1.5Zm-1.1.07c.02-.48-.06-.9-.25-1.22a1.75 1.75 0 0 0-.75-.73 2.3 2.3 0 0 0-1.05-.24c-.6 0-1.1.19-1.51.56-.4.37-.63.91-.66 1.63h4.21Zm4.7-3.08c.75 0 1.35.2 1.8.59.45.38.73.9.82 1.56h-1.04c-.05-.4-.21-.71-.5-.96a1.55 1.55 0 0 0-1.1-.39c-.39 0-.7.1-.92.3a.94.94 0 0 0-.32.75c0 .24.07.44.21.59.15.14.34.25.55.33.23.08.53.16.92.24.48.12.88.23 1.17.35.3.11.56.3.77.55.22.26.32.6.32 1.03 0 .54-.2.98-.6 1.31-.4.34-.94.5-1.62.5a3.1 3.1 0 0 1-1.92-.56c-.5-.37-.78-.9-.87-1.57h1.05c.04.4.22.72.52.97.31.25.72.38 1.22.38.38 0 .67-.1.88-.3.22-.19.32-.44.32-.75a.83.83 0 0 0-.22-.61 1.5 1.5 0 0 0-.57-.35 8.25 8.25 0 0 0-.92-.25 9.34 9.34 0 0 1-1.18-.34 1.87 1.87 0 0 1-.74-.53c-.2-.24-.3-.58-.3-1 0-.54.2-.99.61-1.32.4-.35.96-.52 1.67-.52Zm5.07 5.39v1.28h-1.32v-1.28h1.32Z" fill="#fff" fill-opacity=".7"/><path fill-rule="evenodd" clip-rule="evenodd" d="M92.43 106.88c.42 0 .76.34.76.75s-.34.75-.76.75H90.8a2.44 2.44 0 0 0-2.45 2.4v1.86c0 .42-.35.75-.77.75a.76.76 0 0 1-.76-.75v-1.86c0-2.14 1.79-3.9 3.98-3.9h1.63Zm7.17 0h1.6c2.2 0 3.98 1.75 3.98 3.9v1.86c0 .42-.34.75-.76.75a.75.75 0 0 1-.77-.75v-1.85c0-1.33-1.1-2.42-2.46-2.42H99.6a.75.75 0 0 1-.76-.74c0-.41.34-.75.76-.75Zm-.84 3.75h-5.52a2.27 2.27 0 0 0-2.27 2.26v1.25c0 .14.12.26.27.27h9.52c.15 0 .27-.13.27-.27v-1.25a2.27 2.27 0 0 0-2.27-2.27Zm-13 5.3h20.48c.42 0 .76.33.76.74s-.34.75-.76.75h-1.06v3.56c0 2.15-1.79 3.9-3.99 3.9H99.6a.76.76 0 0 1-.76-.74c0-.42.34-.75.76-.75h1.6a2.44 2.44 0 0 0 2.45-2.41v-3.56h-2.62v.99c.01 1.24-1 2.25-2.27 2.26h-5.52a2.27 2.27 0 0 1-2.27-2.26v-1h-2.62v3.57c0 1.33 1.1 2.4 2.45 2.4h1.63c.42 0 .76.34.76.76 0 .4-.34.74-.76.74H90.8a3.95 3.95 0 0 1-3.98-3.9v-3.56h-1.06a.75.75 0 0 1-.76-.75c0-.41.34-.75.76-.75Z" fill="#00F6FF"/><g filter="url(#f)"><rect x="101" y="309.88" width="262" height="140" rx="20" fill="url(#g)"/></g><path d="M124.65 344.7v4.18h-2.25v-11.3h4.11c1.33 0 2.34.33 3 .97a3.4 3.4 0 0 1 1.03 2.6c0 1.08-.35 1.94-1.05 2.58-.7.64-1.69.96-2.98.96h-1.86Zm1.62-1.82c1.32 0 1.98-.57 1.98-1.73 0-.56-.15-1-.46-1.3-.31-.29-.82-.44-1.52-.44h-1.62v3.47h1.62Zm9.37-2.97c.75 0 1.39.17 1.92.52.53.36.91.83 1.13 1.43v-1.84h2.25v8.86h-2.25v-1.85c-.22.6-.6 1.07-1.13 1.44a3.4 3.4 0 0 1-1.92.52c-.75 0-1.42-.18-2.02-.54a3.74 3.74 0 0 1-1.4-1.57c-.34-.7-.5-1.5-.5-2.43 0-.93.16-1.73.5-2.41a3.7 3.7 0 0 1 3.42-2.13Zm.7 1.96c-.7 0-1.27.23-1.7.7a2.66 2.66 0 0 0-.63 1.88c0 .8.21 1.43.64 1.89.42.45.99.67 1.7.67.68 0 1.24-.23 1.67-.69.45-.47.67-1.1.67-1.87 0-.79-.22-1.41-.67-1.87-.43-.47-1-.7-1.68-.7Zm8.32-1.85 2.42 6.02 2.24-6.02h2.48l-5.43 13.09h-2.5l2-4.48-3.72-8.61h2.51Zm24.18-2.3v11.16h-2.24v-7.79l-2.86 7.8h-1.96l-2.86-7.77v7.76h-2.26v-11.17h2.74l3.4 8.4 3.32-8.4h2.72Zm10.54 6.4c0 .22-.03.48-.08.76h-6.5c.03.8.25 1.37.64 1.75.4.37.89.56 1.47.56.53 0 .96-.13 1.3-.39.35-.25.57-.6.67-1.04h2.38a3.82 3.82 0 0 1-2.23 2.82 4.7 4.7 0 0 1-2 .42c-.87 0-1.64-.19-2.3-.55-.68-.37-1.2-.9-1.58-1.58a4.96 4.96 0 0 1-.56-2.42c0-.93.19-1.73.56-2.41.38-.7.9-1.23 1.57-1.59a4.77 4.77 0 0 1 2.3-.54c.88 0 1.64.18 2.3.54.66.36 1.16.87 1.51 1.5.37.63.55 1.35.55 2.17Zm-2.28-.23c.04-.72-.16-1.27-.57-1.65-.4-.37-.9-.56-1.5-.56-.61 0-1.13.19-1.54.56-.42.38-.65.93-.69 1.65h4.3Zm8.78 3.06v1.93h-1.19c-1 0-1.75-.24-2.29-.72-.52-.48-.78-1.28-.78-2.4v-3.84h-1.23v-1.9h1.23v-2.2h2.25v2.2h1.99v1.9h-1.99v3.88c0 .42.09.72.26.9.17.16.46.25.87.25h.88Zm7.06-7.06c1.02 0 1.84.34 2.45 1 .6.68.9 1.63.9 2.84v5.15h-2.23v-4.9c0-.7-.18-1.24-.55-1.63-.36-.39-.85-.59-1.48-.59-.64 0-1.16.21-1.54.63-.38.41-.58 1.01-.58 1.79v4.7h-2.25v-11.84h2.25v4.75a2.8 2.8 0 0 1 1.16-1.39 3.44 3.44 0 0 1 1.87-.5Zm9.6.02c.86 0 1.64.18 2.32.54.7.36 1.24.9 1.63 1.59.4.68.6 1.48.6 2.41 0 .93-.2 1.73-.6 2.42a4.1 4.1 0 0 1-1.63 1.58c-.68.36-1.46.55-2.32.55-.86 0-1.64-.19-2.34-.55a4.13 4.13 0 0 1-1.61-1.58c-.4-.69-.6-1.5-.6-2.42 0-.93.2-1.73.6-2.41.4-.7.93-1.23 1.61-1.59.7-.36 1.48-.54 2.34-.54Zm0 1.95c-.63 0-1.16.22-1.6.67-.44.44-.66 1.08-.66 1.92 0 .84.22 1.49.66 1.94.44.43.97.65 1.6.65.63 0 1.16-.22 1.6-.65.44-.45.66-1.1.66-1.94 0-.84-.22-1.48-.66-1.92a2.15 2.15 0 0 0-1.6-.67Zm9.77-1.95c.75 0 1.38.17 1.9.52.54.36.92.83 1.16 1.43v-4.82h2.24v11.84h-2.24v-1.85c-.24.6-.62 1.07-1.16 1.44-.52.35-1.15.52-1.9.52s-1.42-.18-2.02-.54a3.73 3.73 0 0 1-1.4-1.57c-.33-.7-.5-1.5-.5-2.43 0-.93.17-1.73.5-2.41a3.7 3.7 0 0 1 3.42-2.13Zm.7 1.96c-.7 0-1.27.23-1.7.7a2.66 2.66 0 0 0-.63 1.88c0 .8.21 1.43.64 1.89.42.45.99.67 1.7.67.68 0 1.24-.23 1.67-.69.45-.47.68-1.1.68-1.87 0-.79-.23-1.41-.68-1.87-.43-.47-1-.7-1.68-.7Z" fill="#fff"/><rect x="121" y="371.88" width="48" height="48" rx="10" fill="url(#h)"/><rect x="121" y="371.88" width="48" height="48" rx="10" fill="#fff"/><rect x="179" y="371.88" width="48" height="48" rx="10" fill="url(#i)"/><rect x="179" y="371.88" width="48" height="48" rx="10" fill="#fff"/><rect x="237" y="371.88" width="48" height="48" rx="10" fill="url(#j)"/><rect x="237" y="371.88" width="48" height="48" rx="10" fill="#fff"/><rect x="295" y="371.88" width="48" height="48" rx="10" fill="url(#k)"/><rect x="295" y="371.88" width="48" height="48" rx="10" fill="#fff"/><path d="m139.82 409.24.49-3.12-1.1-.02H134l3.63-23a.3.3 0 0 1 .3-.26h8.8c2.92 0 4.94.61 6 1.81.49.56.8 1.15.95 1.8.16.68.16 1.5 0 2.48v.71l.49.28c.38.19.72.45 1 .76.42.48.7 1.1.81 1.82a7.7 7.7 0 0 1-.12 2.64 9.3 9.3 0 0 1-1.08 2.98 6.15 6.15 0 0 1-4.02 2.92c-.84.22-1.81.33-2.88.33h-.68a2.08 2.08 0 0 0-2.04 1.74l-.05.28-.87 5.5-.04.2c0 .06-.03.1-.05.12a.15.15 0 0 1-.1.03h-4.22Z" fill="#253B80"/><path d="m154.63 389.08-.1.51c-1.15 5.96-5.13 8.02-10.2 8.02h-2.58c-.62 0-1.14.45-1.24 1.06l-1.32 8.39-.38 2.38a.65.65 0 0 0 .16.53.65.65 0 0 0 .5.23h4.58c.54 0 1-.4 1.09-.93l.04-.23.86-5.47.06-.3a1.1 1.1 0 0 1 1.09-.94h.68c4.44 0 7.91-1.8 8.93-7.01.42-2.18.2-4-.92-5.28-.35-.4-.78-.72-1.25-.96Z" fill="#179BD7"/><path d="M153.41 388.6a9.2 9.2 0 0 0-1.13-.26c-.75-.11-1.51-.17-2.27-.16h-6.9a1.1 1.1 0 0 0-1.09.93l-1.47 9.3-.04.26a1.25 1.25 0 0 1 1.24-1.06h2.58c5.07 0 9.05-2.06 10.2-8.02l.1-.51a6.1 6.1 0 0 0-1.22-.49Z" fill="#222D65"/><path d="M142.02 389.1a1.1 1.1 0 0 1 1.09-.92h6.9c.81 0 1.58.05 2.27.16.48.08.94.19 1.4.34.34.1.66.24.95.4.34-2.2 0-3.7-1.2-5.06-1.3-1.5-3.68-2.14-6.7-2.14h-8.81c-.62 0-1.15.45-1.24 1.07L133 406.19a.77.77 0 0 0 .17.6.76.76 0 0 0 .57.27h5.44l1.36-8.66 1.47-9.3Z" fill="#253B80"/><g clip-path="url(#l)" fill="#B9B9B9"><path d="M207.5 383.88c-1.28.1-2.78.91-3.65 1.98-.8.96-1.45 2.4-1.2 3.8 1.4.04 2.85-.8 3.69-1.88.78-1.01 1.37-2.44 1.16-3.9Z"/><path d="M212.56 391.94a6.07 6.07 0 0 0-4.59-2.44c-2.15 0-3.06 1.03-4.56 1.03-1.54 0-2.71-1.03-4.57-1.03-1.83 0-3.78 1.12-5.01 3.03-1.74 2.7-1.44 7.75 1.37 12.06 1 1.54 2.35 3.28 4.1 3.3 1.57 0 2.01-1.01 4.13-1.02 2.12-.01 2.53 1.03 4.09 1.01 1.76-.01 3.17-1.94 4.18-3.48.72-1.1.99-1.66 1.55-2.9-4.07-1.56-4.72-7.34-.7-9.56Z"/></g><path d="m256.73 400.48 1.63-9.14h2.54l-1.58 9.14h-2.59Z" fill="#3C58BF"/><path d="m256.73 400.48 2.09-9.14h2.08l-1.58 9.14h-2.59Z" fill="#293688"/><path d="M268.52 391.44c-.51-.2-1.32-.4-2.34-.4-2.54 0-4.37 1.26-4.37 3.09 0 1.37 1.27 2.08 2.29 2.54 1.01.46 1.32.76 1.32 1.17 0 .6-.81.91-1.53.91a5.53 5.53 0 0 1-2.43-.5l-.36-.16-.35 2.09c.6.25 1.72.5 2.9.5 2.68 0 4.46-1.27 4.46-3.2 0-1.06-.66-1.88-2.18-2.54-.92-.45-1.48-.7-1.48-1.17 0-.4.46-.8 1.48-.8.86 0 1.47.14 1.93.35l.25.1.4-1.98Z" fill="#3C58BF"/><path d="M268.52 391.44c-.51-.2-1.32-.4-2.34-.4-2.54 0-3.91 1.26-3.91 3.09 0 1.37.81 2.08 1.83 2.54 1.01.46 1.32.76 1.32 1.17 0 .6-.81.91-1.53.91a5.53 5.53 0 0 1-2.43-.5l-.36-.16-.35 2.09c.6.25 1.72.5 2.9.5 2.68 0 4.46-1.27 4.46-3.2 0-1.06-.66-1.88-2.18-2.54-.92-.45-1.48-.7-1.48-1.17 0-.4.46-.8 1.48-.8.86 0 1.47.14 1.93.35l.25.1.4-1.98Z" fill="#293688"/><path d="M272.89 391.34c-.61 0-1.07.05-1.32.66l-3.81 8.48h2.74l.5-1.52h3.26l.3 1.52H277l-2.13-9.14h-1.98Zm-1.17 6.1c.15-.46 1.01-2.7 1.01-2.7s.2-.56.36-.92l.15.87.61 2.8h-2.13v-.06Z" fill="#3C58BF"/><path d="M273.5 391.34c-.61 0-1.07.05-1.32.66l-4.43 8.48h2.75l.5-1.52h3.26l.3 1.52H277l-2.13-9.14h-1.38Zm-1.78 6.1 1.01-2.7s.2-.56.36-.92l.15.87.61 2.8h-2.13v-.06Z" fill="#293688"/><path d="m252.06 397.74-.25-1.32a7.36 7.36 0 0 0-3.56-4.02l2.29 8.13h2.74l4.11-9.14h-2.74l-2.59 6.35Z" fill="#3C58BF"/><path d="m252.06 397.74-.25-1.32a7.36 7.36 0 0 0-3.56-4.02l2.29 8.13h2.74l4.11-9.14h-2.23l-3.1 6.35Z" fill="#293688"/><path d="m245 391.34.46.1c3.25.76 5.48 2.69 6.35 4.98l-.92-4.32c-.15-.61-.6-.76-1.17-.76H245Z" fill="#FFBC00"/><path d="M245 391.34c3.25.76 5.94 2.74 6.8 5.03l-.86-3.61a1.24 1.24 0 0 0-1.22-.97l-4.72-.45Z" fill="#F7981D"/><path d="M245 391.34c3.25.76 5.94 2.74 6.8 5.03l-.6-1.99c-.16-.6-.36-1.21-1.07-1.47l-5.13-1.57Z" fill="#ED7C00"/><path d="m254.6 397.43-1.73-1.73-.81 1.94-.2-1.27a7.36 7.36 0 0 0-3.56-4.02l2.29 8.13h2.74l1.27-3.05ZM259.32 400.48l-2.18-2.24-.4 2.24h2.58ZM265.17 397.33c.2.2.3.36.25.56 0 .6-.81.91-1.53.91a5.52 5.52 0 0 1-2.43-.5l-.36-.16-.35 2.09c.6.25 1.72.5 2.9.5 1.62 0 2.94-.45 3.7-1.27l-2.19-2.13ZM268.11 400.48h2.39l.5-1.52h3.26l.3 1.52H277l-.86-3.7-3.05-2.95.15.8.61 2.8h-2.13c.2-.5 1.01-2.69 1.01-2.69s.2-.56.36-.92" fill="#051244"/><path d="M308.48 392.62c0-.06-.06-.08-.1-.08l-.82-.06s-.55-.55-.62-.6c-.06-.06-.17-.05-.22-.03l-.3.1c-.2-.54-.51-1.03-1.09-1.03h-.05a.7.7 0 0 0-.53-.3c-1.33 0-1.97 1.65-2.17 2.5l-.93.29c-.28.09-.3.1-.33.37l-.78 6.04 5.87 1.1 3.18-.7-1.11-7.6Zm-2.4-.6-.49.17v-.11c0-.33-.04-.6-.12-.8.3.03.5.36.62.75Zm-.97-.68c.07.2.13.5.13.9v.05l-1.03.32c.2-.76.58-1.13.9-1.27Zm-.4-.37a.3.3 0 0 1 .18.06c-.43.2-.88.7-1.07 1.71l-.81.25c.21-.77.76-2.02 1.7-2.02Z" fill="#95BF47"/><path d="m308.39 392.53-.83-.06s-.55-.55-.62-.6a.12.12 0 0 0-.07-.04l-.44 9.08 3.18-.68-1.12-7.61a.16.16 0 0 0-.1-.1Z" fill="#5E8E3E"/><path d="m305.33 394.29-.38 1.16s-.35-.18-.77-.18c-.62 0-.65.39-.65.49 0 .53 1.39.73 1.39 1.98 0 .98-.62 1.62-1.46 1.62-1.01 0-1.52-.63-1.52-.63l.27-.9s.53.47.98.47a.4.4 0 0 0 .41-.4c0-.7-1.13-.73-1.13-1.87 0-.96.69-1.9 2.08-1.9.52 0 .78.16.78.16Z" fill="#fff"/><path d="M313.3 396.48c-.31-.17-.47-.32-.47-.52 0-.25.23-.41.58-.41.42 0 .78.16.78.16l.3-.88s-.27-.2-1.06-.2c-1.09 0-1.85.62-1.85 1.5 0 .5.36.88.83 1.15.39.21.52.37.52.6 0 .24-.2.43-.55.43-.52 0-1.03-.27-1.03-.27l-.3.88s.45.31 1.23.31c1.12 0 1.93-.55 1.93-1.55 0-.54-.41-.92-.9-1.2Zm4.49-1.87c-.56 0-1 .26-1.33.66l.47-2.51h-1.25l-1.21 6.4h1.24l.42-2.2c.17-.82.6-1.33 1-1.33.27 0 .38.2.38.46 0 .17 0 .39-.05.56l-.47 2.5h1.25l.49-2.58c.05-.27.09-.6.09-.82-.01-.72-.38-1.14-1.03-1.14Zm3.85 0c-1.5 0-2.5 1.36-2.5 2.87 0 .97.6 1.75 1.72 1.75 1.47 0 2.47-1.32 2.47-2.87 0-.9-.51-1.75-1.7-1.75Zm-.62 3.67c-.42 0-.6-.36-.6-.82 0-.72.37-1.88 1.05-1.88.44 0 .6.38.6.75 0 .77-.39 1.95-1.05 1.95Zm5.51-3.67c-.84 0-1.32.75-1.32.75h-.01l.07-.67h-1.1c-.06.45-.17 1.14-.26 1.66l-.87 4.58h1.25l.35-1.86h.03s.26.17.73.17c1.48 0 2.43-1.51 2.43-3.03 0-.85-.38-1.6-1.3-1.6Zm-1.2 3.68a.79.79 0 0 1-.51-.19l.2-1.16c.15-.79.56-1.3 1-1.3.38 0 .5.36.5.69 0 .8-.48 1.96-1.18 1.96Zm4.28-5.47c-.4 0-.71.32-.71.72 0 .37.23.63.59.63a.7.7 0 0 0 .74-.72c0-.37-.24-.63-.62-.63Zm-1.75 6.33h1.25l.85-4.44h-1.26l-.84 4.44Zm5.28-4.45h-.87l.05-.2c.07-.43.32-.8.74-.8.23 0 .4.06.4.06l.24-.98s-.2-.11-.68-.11c-.44 0-.88.12-1.22.41-.43.37-.63.89-.73 1.42l-.03.2h-.59l-.19.95h.59l-.66 3.5h1.25l.66-3.5h.86l.18-.95Zm3.01 0s-.78 1.98-1.13 3.06l-.31-3.05h-1.32l.75 4.06c.02.1.01.15-.03.2-.14.3-.39.56-.68.76-.23.17-.5.28-.71.36l.35 1.06c.25-.06.78-.27 1.23-.68a8.43 8.43 0 0 0 1.63-2.48l1.53-3.29h-1.3Z" fill="#000"/><rect x="257" y="38.88" width="256" height="238" rx="20" fill="#C4C4C4" fill-opacity=".4"/><rect x="257" y="38.88" width="256" height="238" rx="20" fill="url(#m)"/><rect x="342" y="235.88" width="28" height="21" rx="5" fill="url(#n)"/><path d="M346.77 249.88h.91v-5.17l2.31 5.17h.64l2.3-5.16v5.16h.91v-6.92h-.97l-2.56 5.72-2.56-5.72h-.98v6.92Zm8.27-2.76c0 1.7 1.13 2.85 2.6 2.85 1 0 1.71-.52 2.04-1.1v1.01h.92v-5.48h-.92v1a2.27 2.27 0 0 0-2.04-1.09c-1.47 0-2.6 1.1-2.6 2.81Zm4.64.01c0 1.3-.86 2.04-1.86 2.04s-1.85-.76-1.85-2.05c0-1.29.85-2.02 1.85-2.02s1.86.76 1.86 2.03Zm3.37-.23c0-1.27.66-1.66 1.53-1.66h.24v-.94c-.87 0-1.46.38-1.77 1v-.9h-.9v5.48h.9v-2.98Z" fill="#14101D"/><path d="M291.16 242.83v5.24c0 .58-.17 1.04-.5 1.38-.33.34-.79.5-1.38.5-.64 0-1.14-.18-1.51-.56a2.22 2.22 0 0 1-.54-1.59h.91c0 .4.09.73.27.97.18.24.46.35.83.35.35 0 .61-.1.77-.3.16-.2.24-.45.24-.75v-5.24h.91Zm3.66 1.5c.54 0 .99.13 1.35.4.38.26.64.62.78 1.06v-1.4h.91v5.5h-.9v-1.4c-.15.44-.41.8-.79 1.06-.36.27-.81.4-1.35.4a2.4 2.4 0 0 1-2.2-1.31 3.3 3.3 0 0 1-.32-1.5c0-.57.11-1.07.32-1.5a2.37 2.37 0 0 1 2.2-1.32Zm.26.8c-.56 0-1 .18-1.35.54-.33.36-.5.85-.5 1.47 0 .63.17 1.12.5 1.48.34.36.8.53 1.35.53.36 0 .68-.08.96-.25.29-.16.51-.4.67-.7.16-.3.24-.66.24-1.06s-.08-.75-.24-1.06c-.16-.3-.38-.54-.67-.7-.28-.16-.6-.25-.96-.25Zm7.12-.83c.64 0 1.16.2 1.55.62.4.4.6 1 .6 1.77v3.2h-.92v-3.12c0-.54-.14-.96-.42-1.26a1.5 1.5 0 0 0-1.14-.44c-.5 0-.9.17-1.2.5-.3.31-.45.78-.45 1.4v2.91h-.9v-5.49h.9v1.3c.14-.44.39-.79.74-1.03.36-.24.78-.36 1.24-.36ZM321.72 242.83v.74h-3.08v2.44h2.61v.71h-2.61v3.16h-.91v-7.05h3.99Zm6.13 4c0 .2-.02.36-.04.5h-4.4c.03.63.2 1.1.54 1.41.34.32.75.47 1.24.47.44 0 .8-.1 1.1-.33.3-.22.48-.52.55-.9h.97c-.07.38-.22.72-.45 1.02-.23.3-.53.54-.9.7-.36.17-.77.25-1.23.25-.53 0-1-.11-1.4-.34-.4-.22-.73-.55-.96-.97a3.16 3.16 0 0 1-.34-1.5c0-.57.11-1.07.34-1.5.23-.42.55-.75.96-.98.4-.22.87-.34 1.4-.34.53 0 1 .12 1.39.34.4.23.7.53.9.91.22.38.33.8.33 1.26Zm-.92.06c.02-.4-.05-.74-.2-1.02a1.45 1.45 0 0 0-.63-.6 1.9 1.9 0 0 0-.87-.2c-.5 0-.92.15-1.26.46-.34.3-.53.76-.55 1.36h3.5Zm5.14-2.57a2.31 2.31 0 0 1 2.19 1.32c.22.43.33.93.33 1.5 0 .58-.11 1.08-.33 1.5a2.33 2.33 0 0 1-2.2 1.31c-.52 0-.98-.13-1.35-.4a2.1 2.1 0 0 1-.76-1.07v1.4h-.91v-7.4h.9v3.31c.15-.44.4-.8.77-1.06.37-.27.83-.4 1.36-.4Zm-.26.81c-.36 0-.68.09-.96.25-.29.16-.51.4-.67.7-.16.3-.24.66-.24 1.06s.08.76.24 1.06c.16.3.38.54.67.7.28.17.6.25.96.25.56 0 1.01-.17 1.35-.53.34-.36.5-.85.5-1.48 0-.62-.16-1.11-.5-1.47a1.75 1.75 0 0 0-1.35-.54ZM381.86 248.25h-3.1l-.59 1.63h-.98l2.61-6.92h1.03l2.6 6.92h-.98l-.59-1.63Zm-.26-.7-1.29-3.57-1.29 3.56h2.58Zm5.78-3.23c.49 0 .92.12 1.3.34.38.23.68.56.9.98.21.43.32.93.32 1.5 0 .58-.1 1.08-.33 1.5a2.33 2.33 0 0 1-2.19 1.31c-.53 0-.99-.13-1.36-.4a2.1 2.1 0 0 1-.76-1.07v4h-.9v-8.09h.9v1.4c.14-.44.4-.8.76-1.06.37-.27.83-.4 1.36-.4Zm-.26.81c-.35 0-.67.09-.96.25-.29.16-.5.4-.67.7-.16.3-.24.66-.24 1.06s.08.76.24 1.06c.16.3.38.54.67.7.29.17.6.25.96.25.57 0 1.02-.17 1.35-.53.34-.36.51-.85.51-1.48 0-.62-.17-1.11-.5-1.47a1.75 1.75 0 0 0-1.36-.54Zm4.88.37c.18-.38.44-.67.79-.88.35-.21.76-.32 1.24-.32v1h-.28c-.51 0-.93.13-1.26.4-.33.25-.5.69-.5 1.3v2.88h-.9v-5.49h.9v1.11ZM412.79 242.95v6.93h-.91v-5.53l-2.21 5.53h-.81l-2.22-5.5v5.5h-.91v-6.93h1.09l2.46 5.82 2.42-5.82h1.09Zm3.7 1.37c.54 0 .99.14 1.36.4.37.27.63.63.78 1.07v-1.4h.9v5.5h-.9v-1.4c-.15.44-.41.8-.78 1.06-.37.27-.82.4-1.35.4a2.4 2.4 0 0 1-2.2-1.31 3.3 3.3 0 0 1-.32-1.5c0-.57.1-1.07.32-1.5a2.37 2.37 0 0 1 2.2-1.32Zm.27.81c-.56 0-1.01.18-1.35.54-.34.36-.5.85-.5 1.47 0 .63.16 1.12.5 1.48.34.36.79.53 1.35.53.36 0 .68-.08.96-.25.28-.16.5-.4.67-.7.16-.3.24-.66.24-1.06s-.08-.75-.24-1.06c-.16-.3-.39-.54-.67-.7-.28-.16-.6-.25-.96-.25Zm4.6-.74 1.78 4.32 1.65-4.32h1.01l-3.26 8.1h-1.03l1.14-2.7-2.3-5.4h1.01ZM442.16 242.83v5.24c0 .58-.17 1.04-.5 1.38-.33.34-.79.5-1.38.5-.64 0-1.14-.18-1.51-.56a2.22 2.22 0 0 1-.54-1.59h.91c0 .4.09.73.27.97.18.24.46.35.83.35.35 0 .61-.1.77-.3.16-.2.24-.45.24-.75v-5.24h.91Zm6.3 1.56v5.5h-.92v-1.3c-.14.45-.39.8-.75 1.03a2.2 2.2 0 0 1-1.24.35c-.63 0-1.14-.2-1.54-.6-.39-.42-.59-1.01-.59-1.78v-3.2h.91v3.11c0 .55.14.97.42 1.27.28.3.66.44 1.14.44.5 0 .9-.16 1.2-.48.3-.32.45-.8.45-1.42v-2.92h.91Zm4.34-.09c.64 0 1.16.2 1.55.62.4.4.6 1 .6 1.77v3.2h-.92v-3.12c0-.54-.14-.96-.42-1.26a1.5 1.5 0 0 0-1.14-.44c-.5 0-.9.17-1.2.5-.3.31-.45.78-.45 1.4v2.91h-.9v-5.49h.9v1.3c.14-.44.39-.79.74-1.03.36-.24.77-.36 1.24-.36ZM473.16 242.83v5.24c0 .58-.17 1.04-.5 1.38-.33.34-.79.5-1.38.5-.64 0-1.14-.18-1.51-.56a2.22 2.22 0 0 1-.54-1.59h.91c0 .4.09.73.27.97.18.24.46.35.83.35.35 0 .61-.1.77-.3.16-.2.24-.45.24-.75v-5.24h.91Zm6.3 1.56v5.5h-.92v-1.3c-.14.45-.39.8-.75 1.03a2.2 2.2 0 0 1-1.24.35c-.63 0-1.14-.2-1.54-.6-.39-.42-.59-1.01-.59-1.78v-3.2h.91v3.11c0 .55.14.97.42 1.27.28.3.66.44 1.14.44.5 0 .9-.16 1.2-.48.3-.32.45-.8.45-1.42v-2.92h.91Zm2.36-1.9v7.4h-.9v-7.4h.9Z" fill="#fff" fill-opacity=".7"/><path d="M277 149.29c3.8 0 6.07-.92 9.72 0 6.37 1.6 5.88 8.27 12 10.48 5.58 2.02 9.6-.83 15.45.5 13.14 2.99 11.87 18.5 25.16 20.96 5.24.97 8.52-1.13 13.72 0 11.03 2.4 9.71 20.86 20.59 17.97 5.14-1.37 5.24-6.36 10.29-7.99 12.44-4.01 11.73 23.31 24.59 20.46 7.5-1.66 6.94-9.86 14.3-11.97 5.3-1.52 8.75.63 14.29 0 25.36-2.92 21.38-38.18 46.88-39.93 3.12-.21 8.01 0 8.01 0" stroke="url(#o)" stroke-opacity=".2"/><path d="M353 180.94c11.02 2.43 9.7 21.06 20.57 18.14 5.14-1.39 5.25-6.42 10.29-8.06 12.43-4.06 11.72 23.53 24.57 20.65 7.5-1.67 6.94-9.96 14.28-12.09 5.3-1.54 8.76.64 14.29 0 13.16-1.53 18.42-11.87 24-21.7" stroke="url(#p)" stroke-width="2" stroke-linecap="round"/><path d="M281 108.1c.56.18 1.02.35 1.36.51.36.16.65.4.9.73.24.32.36.75.36 1.29a2.22 2.22 0 0 1-1.27 2.01 3.4 3.4 0 0 1-1.56.33h-.02v.96h-.41v-.99a3.31 3.31 0 0 1-1.94-.74c-.5-.44-.79-1-.84-1.67h1.46a1.5 1.5 0 0 0 1.32 1.33v-2.72c-.66-.2-1.16-.37-1.5-.52-.34-.15-.65-.39-.91-.72-.27-.33-.4-.77-.4-1.32 0-.44.12-.84.35-1.19.24-.34.57-.6 1-.8.42-.2.9-.29 1.46-.29v-1.02h.4v1.03c.8.06 1.42.3 1.88.7.46.4.73.92.8 1.55h-1.47a1.43 1.43 0 0 0-1.2-1.16v2.63l.23.08Zm-1.98-1.56c0 .35.11.63.34.83.24.2.57.38 1 .53v-2.54c-.42 0-.74.11-.98.32-.24.2-.36.49-.36.85Zm1.75 5.36c.44 0 .78-.12 1.02-.35.25-.23.37-.53.37-.89s-.12-.65-.36-.85a3.1 3.1 0 0 0-1.03-.54v2.63Zm6.68-.09c1.3-.88 2.34-1.75 3.11-2.6.79-.85 1.18-1.65 1.18-2.38 0-.43-.11-.77-.33-1.03-.2-.25-.55-.38-1.02-.38-.49 0-.85.16-1.1.48-.25.31-.39.76-.42 1.34h-1.33c.05-.96.35-1.7.88-2.22a2.9 2.9 0 0 1 2.08-.77c.82 0 1.47.22 1.93.67.47.43.71 1.03.71 1.8 0 .61-.2 1.23-.57 1.87a7.77 7.77 0 0 1-1.44 1.75c-.59.53-1.2.98-1.82 1.37h4.02v1.11h-5.88v-1Zm8 .14c.14.36.22.74.22 1.14 0 .44-.12.8-.35 1.09-.24.29-.59.43-1.06.43v-.55c.2 0 .35-.05.44-.16.1-.1.15-.28.15-.53v-.1h-.7v-1.32h1.3Zm4.25-7.8c.56 0 1.04.1 1.44.3.4.19.7.46.9.8.21.34.31.73.31 1.15 0 .54-.15.99-.45 1.35-.3.35-.72.56-1.26.63v.06c.58.17 1.04.42 1.37.76.33.33.5.78.5 1.37 0 .7-.24 1.29-.7 1.74-.48.44-1.16.66-2.04.66-.9 0-1.63-.23-2.18-.69a2.88 2.88 0 0 1-.95-2.05H298c.05.48.22.86.51 1.15.3.28.7.42 1.2.42.48 0 .84-.12 1.08-.37.26-.25.39-.57.39-.96 0-.47-.19-.83-.55-1.08a2.77 2.77 0 0 0-1.58-.37h-.32v-1.13h.32c1.3.02 1.96-.43 1.96-1.33 0-.4-.12-.7-.36-.92a1.39 1.39 0 0 0-.98-.34c-.42 0-.77.13-1.05.38s-.45.61-.5 1.1h-1.35c.06-.84.34-1.48.84-1.94.5-.46 1.2-.7 2.1-.7Zm7.13 0c.56 0 1.04.1 1.44.3.4.19.7.46.9.8.2.34.3.73.3 1.15 0 .54-.14.99-.45 1.35-.3.35-.71.56-1.26.63v.06c.59.17 1.04.42 1.37.76.34.33.5.78.5 1.37 0 .7-.23 1.29-.7 1.74-.48.44-1.15.66-2.03.66-.9 0-1.63-.23-2.19-.69a2.88 2.88 0 0 1-.94-2.05h1.35c.05.48.22.86.52 1.15.3.28.7.42 1.2.42.47 0 .83-.12 1.08-.37.25-.25.38-.57.38-.96 0-.47-.18-.83-.55-1.08a2.77 2.77 0 0 0-1.57-.37h-.32v-1.13h.32c1.3.02 1.95-.43 1.95-1.33 0-.4-.12-.7-.36-.92a1.39 1.39 0 0 0-.98-.34c-.42 0-.76.13-1.04.38s-.45.61-.5 1.1h-1.35c.06-.84.34-1.48.84-1.94.5-.46 1.2-.7 2.09-.7Zm3.94 6.9v-1.14l4.21-5.57h1.47v5.52h1.19v1.2h-1.2v1.82h-1.37v-1.82h-4.3Zm4.4-5.08-2.98 3.89h2.97v-3.89Zm4.47 5.98c.14.36.21.74.21 1.14 0 .44-.11.8-.35 1.09-.23.29-.58.43-1.05.43v-.55c.2 0 .35-.05.44-.16.1-.1.15-.28.15-.53v-.1h-.7v-1.32h1.3Zm5.92-5.26c-.15-.94-.64-1.41-1.48-1.41-.6 0-1.06.24-1.37.73-.3.48-.45 1.23-.45 2.27v.4c.13-.43.39-.77.79-1.03s.87-.38 1.41-.38c.84 0 1.49.25 1.96.74.47.5.7 1.2.7 2.1 0 .55-.1 1.03-.31 1.47-.22.42-.55.76-.98 1.02-.43.24-.96.37-1.6.37-1.22 0-2.06-.38-2.51-1.14a6.08 6.08 0 0 1-.69-3.14c0-1.52.25-2.65.74-3.4.48-.76 1.28-1.13 2.4-1.13.83 0 1.46.23 1.9.7.45.48.71 1.09.78 1.83h-1.3Zm-3.17 3.27c0 .52.15.95.46 1.3.3.35.75.52 1.34.52.5 0 .9-.15 1.2-.45.3-.3.46-.7.46-1.23 0-.57-.16-1-.46-1.3-.3-.31-.72-.47-1.24-.47-.47 0-.88.14-1.23.42-.36.28-.53.69-.53 1.2Zm11.15-4.56-3.16 7.48h-1.44l3.2-7.33h-4.2v-1.19h5.6v1.03Z" fill="#00D2AA"/><path d="M278.48 119.54v6.34h-.82v-6.34h.82Zm3.91 1.32c.58 0 1.05.19 1.4.56.35.36.53.9.53 1.6v2.86h-.82v-2.8c0-.49-.13-.87-.38-1.13-.25-.26-.6-.4-1.02-.4-.45 0-.81.15-1.08.45-.27.28-.4.7-.4 1.26v2.62h-.83v-4.94h.82v1.17c.13-.4.35-.7.67-.92.32-.22.7-.33 1.11-.33Zm5.37.02c.63 0 1.16.17 1.57.5.41.34.67.79.76 1.35h-.86a1.24 1.24 0 0 0-.5-.83c-.26-.2-.59-.3-.99-.3a1.44 1.44 0 0 0-1.36.81c-.14.27-.21.6-.21 1s.07.75.22 1.02a1.45 1.45 0 0 0 1.36.8c.4 0 .72-.1.99-.3.26-.2.43-.48.49-.84h.86c-.1.57-.35 1.02-.76 1.36-.41.33-.94.5-1.57.5-.47 0-.9-.1-1.26-.31a2.2 2.2 0 0 1-.86-.87c-.2-.39-.3-.84-.3-1.35 0-.52.1-.97.3-1.35.2-.39.5-.68.86-.88.37-.2.79-.31 1.26-.31Zm5.65 0c.47 0 .9.1 1.27.3.37.2.67.5.88.89.21.38.32.83.32 1.35 0 .51-.1.96-.32 1.35-.21.38-.5.67-.88.87-.38.2-.8.3-1.27.3-.48 0-.9-.1-1.28-.3-.37-.2-.67-.5-.88-.87a2.7 2.7 0 0 1-.33-1.35c0-.52.11-.97.33-1.35.21-.39.5-.68.88-.88.38-.2.8-.31 1.28-.31Zm0 .72c-.3 0-.57.07-.82.2s-.45.33-.6.6c-.16.28-.23.61-.23 1.02 0 .4.07.73.23 1 .15.27.35.48.6.6a1.74 1.74 0 0 0 1.63 0c.25-.12.45-.33.6-.6.16-.27.23-.6.23-1s-.07-.74-.23-1.01a1.45 1.45 0 0 0-.6-.61c-.25-.13-.52-.2-.81-.2Zm9.61-.74c.58 0 1.04.19 1.39.56.35.36.53.9.53 1.6v2.86h-.82v-2.8c0-.48-.12-.85-.36-1.11a1.25 1.25 0 0 0-.97-.39c-.43 0-.78.14-1.04.43-.26.28-.4.7-.4 1.25v2.62h-.81v-2.8c0-.48-.12-.85-.36-1.11a1.26 1.26 0 0 0-.97-.39c-.44 0-.8.14-1.06.43-.25.28-.38.7-.38 1.25v2.62h-.82v-4.94h.82v1.13c.12-.4.33-.69.64-.9.3-.2.67-.3 1.07-.3a1.7 1.7 0 0 1 1.75 1.26c.14-.41.37-.72.7-.94a1.9 1.9 0 0 1 1.1-.33Zm7.74 2.28c0 .17-.01.32-.04.45h-3.95c.02.56.18.98.48 1.27.3.28.68.42 1.11.42.4 0 .73-.1 1-.3.26-.2.43-.47.49-.8h.87a2.05 2.05 0 0 1-1.2 1.54c-.33.15-.7.23-1.12.23-.47 0-.9-.1-1.26-.31a2.2 2.2 0 0 1-.86-.87c-.2-.39-.31-.84-.31-1.35 0-.52.1-.97.3-1.35.22-.39.5-.68.87-.88.37-.2.79-.31 1.26-.31.48 0 .9.1 1.25.3.36.2.63.48.82.82.2.35.29.72.29 1.14Zm-.83.05c.02-.36-.04-.67-.18-.92a1.32 1.32 0 0 0-.57-.55c-.24-.11-.5-.17-.78-.17-.45 0-.83.14-1.13.42-.31.27-.47.68-.5 1.22h3.16Z" fill="#00D2AA" fill-opacity=".7"/><path d="M454.5 108.1c.57.18 1.03.35 1.37.51.36.16.65.4.9.73.24.32.36.75.36 1.29a2.22 2.22 0 0 1-1.27 2.01 3.4 3.4 0 0 1-1.56.33h-.02v.96h-.41v-.99a3.31 3.31 0 0 1-1.94-.74c-.5-.44-.79-1-.84-1.67h1.46a1.5 1.5 0 0 0 1.32 1.33v-2.72c-.66-.2-1.16-.37-1.5-.52-.34-.15-.65-.39-.91-.72-.27-.33-.4-.77-.4-1.32 0-.44.12-.84.35-1.19.24-.34.57-.6 1-.8.42-.2.9-.29 1.46-.29v-1.02h.4v1.03c.8.06 1.42.3 1.88.7.46.4.73.92.8 1.55h-1.47a1.43 1.43 0 0 0-1.2-1.16v2.63l.23.08Zm-1.97-1.56c0 .35.11.63.34.83.24.2.57.38 1 .53v-2.54c-.42 0-.74.11-.98.32-.24.2-.36.49-.36.85Zm1.75 5.36c.44 0 .78-.12 1.02-.35.25-.23.37-.53.37-.89s-.12-.65-.36-.85a3.1 3.1 0 0 0-1.03-.54v2.63Zm12.7-6.4h-4.2V108c.2-.25.47-.44.82-.59a2.9 2.9 0 0 1 1.17-.23c.59 0 1.08.13 1.47.39.4.25.68.58.87 1 .19.41.28.87.28 1.38 0 .88-.24 1.6-.74 2.16-.5.54-1.22.81-2.16.81-.89 0-1.6-.24-2.15-.7a2.6 2.6 0 0 1-.89-1.9h1.35c.07.44.25.78.53 1.03s.65.37 1.09.37c.54 0 .95-.16 1.22-.5.27-.32.41-.76.41-1.3 0-.51-.14-.91-.42-1.2-.28-.3-.68-.44-1.2-.44-.37 0-.7.08-.97.24-.27.16-.47.37-.6.63h-1.33v-4.88h5.44v1.21Zm2.9 5.87v1.51h-1.55v-1.5h1.55Zm3.98-7.22c.56 0 1.04.1 1.44.3.4.19.7.46.9.8.2.34.3.73.3 1.15 0 .54-.14.99-.45 1.35-.3.35-.71.56-1.26.63v.06c.59.17 1.04.42 1.37.76.34.33.5.78.5 1.37 0 .7-.23 1.29-.7 1.74-.48.44-1.15.66-2.03.66-.9 0-1.63-.23-2.19-.69a2.88 2.88 0 0 1-.94-2.05h1.35c.05.48.22.86.52 1.15.3.28.7.42 1.2.42.47 0 .83-.12 1.08-.37.25-.25.38-.57.38-.96 0-.47-.18-.83-.55-1.08a2.77 2.77 0 0 0-1.57-.37h-.33v-1.13h.33c1.3.02 1.95-.43 1.95-1.33 0-.4-.12-.7-.36-.92a1.39 1.39 0 0 0-.98-.34c-.42 0-.76.13-1.04.38s-.45.61-.5 1.1h-1.35c.05-.84.33-1.48.84-1.94.5-.46 1.2-.7 2.09-.7Zm3.68 1.54v-1.28h2.7v8.47h-1.43v-7.19h-1.27Zm13.13-1.15v8.34h-1.38v-6.25l-2.4 6.25h-1.2l-2.43-6.25v6.25h-1.37v-8.34h1.66l2.75 6.66 2.72-6.66h1.65Z" fill="#00D9F5"/><path d="M451.74 120.2v2.17h2.41v.63h-2.41v2.22h2.68v.66h-3.5v-6.34h3.5v.66h-2.68Zm6.58 5.68-1.3-1.89-1.15 1.9h-.91l1.62-2.55-1.63-2.4h.94l1.25 1.84 1.14-1.84h.9l-1.6 2.49 1.67 2.45h-.93Zm4.42-5a2.08 2.08 0 0 1 1.97 1.19c.2.38.3.83.3 1.35 0 .51-.1.96-.3 1.35a2.1 2.1 0 0 1-1.97 1.18c-.48 0-.88-.12-1.22-.36a1.88 1.88 0 0 1-.69-.97v3.6h-.81v-7.28h.81v1.26c.13-.4.36-.71.69-.95.34-.25.74-.37 1.22-.37Zm-.23.73c-.32 0-.6.07-.87.22a1.5 1.5 0 0 0-.6.63c-.14.28-.21.6-.21.96s.07.67.21.95c.15.27.35.48.6.63.26.15.55.23.87.23.5 0 .91-.16 1.21-.48.31-.33.46-.77.46-1.33 0-.57-.15-1-.46-1.33-.3-.32-.7-.48-1.21-.48Zm8.12 1.53c0 .17-.02.32-.04.45h-3.95c.02.56.18.98.48 1.27.3.28.67.42 1.11.42.4 0 .73-.1 1-.3.26-.2.43-.47.49-.8h.87a2.05 2.05 0 0 1-1.2 1.54c-.34.15-.7.23-1.12.23-.48 0-.9-.1-1.26-.31a2.2 2.2 0 0 1-.87-.87c-.2-.39-.3-.84-.3-1.35 0-.52.1-.97.3-1.35.21-.39.5-.68.87-.88.36-.2.78-.31 1.26-.31s.9.1 1.25.3c.36.2.63.48.82.82.19.35.29.72.29 1.14Zm-.83.05c.01-.36-.05-.67-.18-.92a1.32 1.32 0 0 0-.57-.55c-.24-.11-.5-.17-.78-.17-.45 0-.83.14-1.14.42-.3.27-.47.68-.5 1.22h3.17Zm4.5-2.33c.57 0 1.04.19 1.4.56.35.36.52.9.52 1.6v2.86h-.82v-2.8c0-.49-.12-.87-.37-1.13-.25-.26-.6-.4-1.03-.4-.45 0-.8.15-1.08.45-.27.28-.4.7-.4 1.26v2.62h-.82v-4.94h.82v1.17c.12-.4.34-.7.66-.92.33-.22.7-.33 1.12-.33Zm4.73.02c.56 0 1 .15 1.34.44.34.29.55.68.62 1.17h-.78a1.1 1.1 0 0 0-.37-.72c-.2-.2-.48-.29-.83-.29-.3 0-.52.07-.7.22a.7.7 0 0 0-.24.56c0 .18.06.33.17.45.11.1.25.19.41.25l.68.18c.37.08.66.17.89.26.22.08.42.22.57.41.16.2.25.45.25.78 0 .4-.16.73-.46.98-.3.25-.7.38-1.21.38-.59 0-1.07-.14-1.44-.43-.37-.28-.6-.67-.66-1.18h.8c.03.3.15.55.38.73.24.19.54.28.92.28.28 0 .5-.07.66-.21a.72.72 0 0 0 .24-.57c0-.2-.06-.35-.17-.46-.12-.11-.26-.2-.42-.26-.17-.06-.4-.12-.7-.19a7 7 0 0 1-.88-.25 1.4 1.4 0 0 1-.56-.4 1.16 1.16 0 0 1-.22-.75c0-.4.15-.74.46-1 .3-.25.72-.38 1.25-.38Zm7.64 2.26c0 .17 0 .32-.03.45h-3.95c.01.56.17.98.47 1.27.31.28.68.42 1.12.42.4 0 .73-.1.99-.3.27-.2.44-.47.5-.8h.87a2.05 2.05 0 0 1-1.2 1.54c-.34.15-.71.23-1.12.23-.48 0-.9-.1-1.26-.31a2.2 2.2 0 0 1-.87-.87c-.2-.39-.3-.84-.3-1.35 0-.52.1-.97.3-1.35.21-.39.5-.68.87-.88.36-.2.78-.31 1.26-.31s.9.1 1.25.3c.36.2.63.48.82.82.19.35.28.72.28 1.14Zm-.82.05c.01-.36-.05-.67-.18-.92a1.32 1.32 0 0 0-.57-.55c-.24-.11-.5-.17-.78-.17-.45 0-.83.14-1.14.42-.3.27-.47.68-.5 1.22h3.17Zm3.44-2.31c.56 0 1 .15 1.34.44.35.29.55.68.63 1.17h-.79a1.1 1.1 0 0 0-.37-.72c-.2-.2-.48-.29-.83-.29-.29 0-.52.07-.69.22a.7.7 0 0 0-.24.56c0 .18.05.33.16.45.12.1.25.19.42.25l.68.18c.36.08.66.17.88.26.23.08.42.22.58.41.16.2.24.45.24.78 0 .4-.15.73-.46.98-.3.25-.7.38-1.2.38-.6 0-1.07-.14-1.44-.43-.38-.28-.6-.67-.66-1.18h.79c.03.3.16.55.39.73.23.19.54.28.91.28.29 0 .5-.07.66-.21a.72.72 0 0 0 .25-.57c0-.2-.06-.35-.18-.46-.11-.11-.25-.2-.42-.26-.17-.06-.4-.12-.7-.19a7 7 0 0 1-.87-.25 1.4 1.4 0 0 1-.56-.4 1.16 1.16 0 0 1-.23-.75c0-.4.16-.74.46-1 .3-.25.72-.38 1.25-.38Z" fill="#00D9F5" fill-opacity=".7"/><path d="M283.32 63.43c1.06 0 2.01.24 2.86.73.87.5 1.55 1.18 2.04 2.07.5.87.75 1.86.75 2.97s-.25 2.1-.75 3a5.25 5.25 0 0 1-2.04 2.06c-.85.49-1.8.73-2.86.73a5.4 5.4 0 0 1-4.91-2.8 6.06 6.06 0 0 1-.74-2.99c0-1.1.25-2.1.74-2.97a5.4 5.4 0 0 1 4.91-2.8Zm0 2.08c-.66 0-1.24.15-1.74.44-.5.3-.9.74-1.19 1.3-.27.56-.41 1.2-.41 1.95s.13 1.4.41 1.97a3.13 3.13 0 0 0 2.93 1.73c.66 0 1.24-.15 1.74-.45.5-.3.9-.72 1.17-1.28.29-.56.43-1.22.43-1.97 0-.74-.14-1.4-.43-1.95a3 3 0 0 0-1.17-1.3c-.5-.3-1.08-.44-1.74-.44Zm12.63.38c1.02 0 1.84.34 2.44 1 .61.68.92 1.62.92 2.84v5.15h-2.25v-4.9c0-.7-.18-1.24-.54-1.63-.36-.39-.86-.59-1.49-.59-.64 0-1.15.21-1.53.63-.39.41-.58 1.01-.58 1.79v4.7h-2.25v-8.86h2.25v1.77c.23-.6.62-1.06 1.15-1.39a3.45 3.45 0 0 1 1.88-.5Zm7.6-2.85v11.84h-2.26V63.04h2.26Zm1.78.43c0-.36.13-.65.38-.88.26-.23.6-.35 1.01-.35.42 0 .75.12 1.01.35.26.23.38.52.38.88s-.12.65-.38.88c-.25.23-.6.34-1 .34-.42 0-.76-.11-1.02-.34a1.14 1.14 0 0 1-.38-.88Zm2.51 2.55v8.86h-2.25v-8.86h2.25Zm7.32-.13c1.03 0 1.84.34 2.45 1 .6.68.91 1.62.91 2.84v5.15h-2.24v-4.9c0-.7-.18-1.24-.54-1.63-.36-.39-.86-.59-1.49-.59-.64 0-1.15.21-1.54.63-.38.41-.57 1.01-.57 1.79v4.7h-2.26v-8.86h2.26v1.77a2.8 2.8 0 0 1 1.15-1.39 3.45 3.45 0 0 1 1.87-.5Zm13.68 4.22c0 .23-.02.48-.08.77h-6.5c.04.8.25 1.37.65 1.75.4.37.88.56 1.47.56.52 0 .95-.13 1.3-.39.35-.25.57-.6.67-1.04h2.38a3.81 3.81 0 0 1-2.24 2.82 4.7 4.7 0 0 1-2 .41c-.86 0-1.63-.18-2.3-.54-.67-.37-1.2-.9-1.57-1.58a4.96 4.96 0 0 1-.56-2.42c0-.93.19-1.73.56-2.42.37-.69.9-1.22 1.57-1.58a4.77 4.77 0 0 1 2.3-.54c.88 0 1.64.18 2.29.54.66.36 1.17.86 1.52 1.5.36.63.54 1.35.54 2.16Zm-2.27-.22c.03-.72-.16-1.27-.57-1.65-.4-.37-.91-.56-1.5-.56-.62 0-1.13.19-1.54.56-.42.38-.65.93-.7 1.65h4.31Zm14.24 2.72h-4.53l-.8 2.27h-2.38l4.16-11.17h2.57l4.15 11.17h-2.39l-.78-2.27Zm-.6-1.71-1.67-4.77-1.67 4.77h3.33Zm10.27-5c1.02 0 1.84.33 2.44 1 .61.67.92 1.61.92 2.83v5.15h-2.24v-4.9c0-.7-.19-1.24-.55-1.63-.36-.39-.86-.59-1.49-.59-.64 0-1.15.21-1.53.63-.39.41-.58 1.01-.58 1.79v4.7h-2.25v-8.86h2.25v1.77a2.8 2.8 0 0 1 1.15-1.39 3.45 3.45 0 0 1 1.88-.5Zm8.81 0c.75 0 1.39.18 1.92.53.54.36.92.83 1.14 1.43v-1.84h2.24v8.86h-2.24v-1.85c-.23.6-.6 1.07-1.14 1.44a3.4 3.4 0 0 1-1.92.52 3.73 3.73 0 0 1-3.42-2.11c-.33-.7-.5-1.5-.5-2.43 0-.93.17-1.73.5-2.42a3.72 3.72 0 0 1 3.42-2.12Zm.7 1.97c-.7 0-1.26.23-1.69.7a2.66 2.66 0 0 0-.64 1.88c0 .8.21 1.43.64 1.89.43.45 1 .67 1.7.67.68 0 1.24-.23 1.68-.69.44-.47.67-1.1.67-1.87 0-.79-.23-1.41-.67-1.87-.44-.47-1-.7-1.68-.7Zm8.9-4.83v11.84h-2.26V63.04h2.26Zm3.56 2.98 2.42 6.01 2.24-6.01h2.48l-5.43 13.09h-2.5l2-4.48-3.72-8.61h2.51Zm11.25-.11c1.08 0 1.95.27 2.6.81a3.53 3.53 0 0 1 1.21 2.18h-2.1a1.75 1.75 0 0 0-.59-1.03c-.3-.25-.68-.38-1.16-.38-.39 0-.69.1-.9.27a.92.92 0 0 0-.32.74c0 .24.09.44.26.6.17.14.38.26.64.34.25.09.62.19 1.1.3.67.16 1.22.32 1.63.49.43.16.8.42 1.1.78.3.35.45.83.45 1.44 0 .76-.3 1.37-.9 1.84-.58.47-1.37.7-2.38.7a4.55 4.55 0 0 1-2.76-.76A3.3 3.3 0 0 1 380.3 72h2.16c.06.44.25.79.58 1.04.33.25.76.37 1.3.37.38 0 .67-.09.88-.27.2-.2.3-.44.3-.74a.8.8 0 0 0-.27-.62 1.7 1.7 0 0 0-.66-.37 15 15 0 0 0-1.1-.3c-.66-.15-1.2-.3-1.62-.45-.4-.16-.76-.41-1.06-.75a2.12 2.12 0 0 1-.43-1.41c0-.77.3-1.4.88-1.87.59-.48 1.4-.72 2.44-.72Zm5.35-2.44c0-.36.13-.65.38-.88.26-.23.6-.35 1.01-.35.42 0 .75.12 1 .35.26.23.4.52.4.88s-.13.65-.4.88c-.25.23-.58.34-1 .34-.42 0-.75-.11-1-.34a1.14 1.14 0 0 1-.4-.88Zm2.51 2.55v8.86h-2.25v-8.86h2.25Zm5.1-.11c1.07 0 1.94.27 2.59.81a3.53 3.53 0 0 1 1.22 2.18h-2.12a1.75 1.75 0 0 0-.57-1.03c-.3-.25-.69-.38-1.17-.38-.38 0-.68.1-.9.27a.92.92 0 0 0-.32.74c0 .24.09.44.26.6.17.14.38.26.64.34.26.09.62.19 1.1.3.68.16 1.22.32 1.64.49.42.16.79.42 1.08.78.31.35.47.83.47 1.44 0 .76-.3 1.37-.9 1.84-.58.47-1.38.7-2.38.7a4.55 4.55 0 0 1-2.77-.76 3.3 3.3 0 0 1-1.26-2.23h2.16c.05.44.24.79.57 1.04.33.25.76.37 1.3.37.38 0 .68-.09.88-.27.2-.2.3-.44.3-.74a.8.8 0 0 0-.27-.62 1.7 1.7 0 0 0-.66-.37 15 15 0 0 0-1.1-.3c-.66-.15-1.2-.3-1.62-.45-.4-.16-.75-.41-1.05-.75a2.12 2.12 0 0 1-.43-1.41c0-.77.29-1.4.88-1.87.58-.48 1.4-.72 2.43-.72ZM440.13 67.68v-.85h2.02v7.05h-.96v-6.2h-1.06Zm13-.73v6.93h-.9v-5.53L450 73.88h-.8l-2.23-5.5v5.5h-.9v-6.93h1.08l2.46 5.82 2.42-5.82h1.1Zm3.95 1.37c.52 0 1 .12 1.4.34.43.23.75.56.99.98a3 3 0 0 1 .36 1.5 3 3 0 0 1-.36 1.5 2.4 2.4 0 0 1-.98.97c-.42.23-.89.34-1.41.34-.53 0-1-.11-1.42-.34a2.5 2.5 0 0 1-.98-.97 3 3 0 0 1-.36-1.5 3 3 0 0 1 .36-1.5c.24-.42.56-.75.98-.98.42-.22.9-.34 1.42-.34Zm0 .8c-.33 0-.63.08-.91.22-.28.15-.5.38-.67.68-.17.3-.25.68-.25 1.12 0 .44.08.82.25 1.12.17.3.4.53.67.67a1.93 1.93 0 0 0 1.8 0c.29-.14.51-.37.68-.67.17-.3.26-.68.26-1.12 0-.44-.09-.82-.26-1.12a1.6 1.6 0 0 0-.67-.68 1.87 1.87 0 0 0-.9-.22Zm6.82-.82c.64 0 1.16.2 1.55.62.4.4.6 1 .6 1.77v3.2h-.92v-3.12c0-.54-.14-.96-.42-1.26a1.5 1.5 0 0 0-1.14-.44c-.5 0-.9.17-1.2.5-.3.31-.45.78-.45 1.4v2.91h-.9V68.4h.9v1.3c.14-.44.39-.79.74-1.03.36-.24.78-.36 1.24-.36Zm6.16 4.78v.8h-.68c-.56 0-.98-.13-1.26-.4-.27-.26-.41-.71-.41-1.34v-2.96h-.82v-.79h.82v-1.37h.92v1.37h1.42v.8h-1.42v2.97c0 .36.06.6.19.73s.36.2.68.2h.56Zm4-4.78c.64 0 1.16.2 1.55.62.4.4.59 1 .59 1.77v3.2h-.91v-3.12c0-.54-.14-.96-.42-1.26a1.5 1.5 0 0 0-1.14-.44c-.5 0-.9.17-1.2.5-.3.31-.45.78-.45 1.4v2.91h-.91v-7.4h.9v3.21c.15-.44.4-.79.75-1.03.36-.24.77-.36 1.24-.36Z" fill="#fff"/><g clip-path="url(#q)"><path d="m483.08 69.72 2.92 2.91 2.92-2.91h-5.84Z" fill="#fff"/></g><defs><linearGradient id="a" x1="319.57" y1="-341.42" x2="572.32" y2="278.31" gradientUnits="userSpaceOnUse"><stop offset=".01" stop-color="#DEF9FA"/><stop offset=".17" stop-color="#BEF3F5"/><stop offset=".42" stop-color="#9DEDF0"/><stop offset=".55" stop-color="#7DE7EB"/><stop offset=".72" stop-color="#5CE1E6"/><stop offset="1" stop-color="#33BBCF"/></linearGradient><linearGradient id="b" x1="450.56" y1="490.1" x2="57.01" y2="282.5" gradientUnits="userSpaceOnUse"><stop offset=".01" stop-color="#DEF9FA"/><stop offset=".17" stop-color="#BEF3F5"/><stop offset=".42" stop-color="#9DEDF0"/><stop offset=".55" stop-color="#7DE7EB"/><stop offset=".72" stop-color="#5CE1E6"/><stop offset="1" stop-color="#33BBCF"/></linearGradient><linearGradient id="c" x1="351.48" y1="338.37" x2="157.84" y2="236.21" gradientUnits="userSpaceOnUse"><stop offset=".01" stop-color="#DEF9FA"/><stop offset=".17" stop-color="#BEF3F5"/><stop offset=".42" stop-color="#9DEDF0"/><stop offset=".55" stop-color="#7DE7EB"/><stop offset=".72" stop-color="#5CE1E6"/><stop offset="1" stop-color="#33BBCF"/></linearGradient><linearGradient id="e" x1="-708" y1="-368.12" x2="184.24" y2="293.01" gradientUnits="userSpaceOnUse"><stop offset=".16" stop-color="#fff"/><stop offset=".58" stop-color="#6D6D6D"/><stop offset=".93" stop-color="#11101D"/></linearGradient><linearGradient id="g" x1="-380.5" y1="-186.62" x2="-20.71" y2="624.87" gradientUnits="userSpaceOnUse"><stop stop-color="#fff"/><stop offset=".91" stop-color="#14101D"/></linearGradient><linearGradient id="h" x1="121" y1="395.88" x2="169" y2="395.88" gradientUnits="userSpaceOnUse"><stop stop-color="#00F5A0"/><stop offset="1" stop-color="#00D9F5"/></linearGradient><linearGradient id="i" x1="179" y1="395.88" x2="227" y2="395.88" gradientUnits="userSpaceOnUse"><stop stop-color="#00F5A0"/><stop offset="1" stop-color="#00D9F5"/></linearGradient><linearGradient id="j" x1="237" y1="395.88" x2="285" y2="395.88" gradientUnits="userSpaceOnUse"><stop stop-color="#00F5A0"/><stop offset="1" stop-color="#00D9F5"/></linearGradient><linearGradient id="k" x1="295" y1="395.88" x2="343" y2="395.88" gradientUnits="userSpaceOnUse"><stop stop-color="#00F5A0"/><stop offset="1" stop-color="#00D9F5"/></linearGradient><linearGradient id="m" x1="-209.33" y1="-699.91" x2="551.86" y2="178.67" gradientUnits="userSpaceOnUse"><stop stop-color="#fff"/><stop offset=".94" stop-color="#14101D"/></linearGradient><linearGradient id="n" x1="342" y1="246.38" x2="370" y2="246.38" gradientUnits="userSpaceOnUse"><stop stop-color="#00F5A0"/><stop offset="1" stop-color="#00D9F5"/></linearGradient><linearGradient id="o" x1="277" y1="180.38" x2="492" y2="180.38" gradientUnits="userSpaceOnUse"><stop stop-color="#00F5A0"/><stop offset="1" stop-color="#00D9F5"/></linearGradient><linearGradient id="p" x1="353" y1="194.88" x2="461" y2="194.88" gradientUnits="userSpaceOnUse"><stop stop-color="#00F5A0"/><stop offset="1" stop-color="#00D9F5"/></linearGradient><clipPath id="l"><path fill="#fff" transform="translate(191 383.88)" d="M0 0h24v24H0z"/></clipPath><clipPath id="q"><path fill="#fff" transform="translate(479 63.88)" d="M0 0h14v14H0z"/></clipPath><filter id="d" x="-10" y="68.88" width="211" height="178" filterUnits="userSpaceOnUse" color-interpolation-filters="sRGB"><feFlood flood-opacity="0" result="BackgroundImageFix"/><feGaussianBlur in="BackgroundImageFix" stdDeviation="5"/><feComposite in2="SourceAlpha" operator="in" result="effect1_backgroundBlur_31611_97"/><feBlend in="SourceGraphic" in2="effect1_backgroundBlur_31611_97" result="shape"/></filter><filter id="f" x="91" y="299.88" width="282" height="160" filterUnits="userSpaceOnUse" color-interpolation-filters="sRGB"><feFlood flood-opacity="0" result="BackgroundImageFix"/><feGaussianBlur in="BackgroundImageFix" stdDeviation="5"/><feComposite in2="SourceAlpha" operator="in" result="effect1_backgroundBlur_31611_97"/><feBlend in="SourceGraphic" in2="effect1_backgroundBlur_31611_97" result="shape"/></filter></defs></svg>