<svg width="560" height="519" fill="none" xmlns="http://www.w3.org/2000/svg"><g filter="url(#a)"><rect y="177" width="335" height="280" rx="9.12" fill="url(#b)"/></g><path d="M72.16 286.56v-1.02h2.42V294h-1.15v-7.44h-1.27Zm9.67-.16h-4.34v2.84c.2-.28.48-.5.86-.65.38-.16.79-.24 1.24-.24.6 0 1.1.13 1.48.38.4.25.7.58.88 1 .2.4.29.86.29 1.37a3.1 3.1 0 0 1-.73 2.13c-.5.55-1.2.83-2.15.83a3.1 3.1 0 0 1-2.08-.68 2.64 2.64 0 0 1-.9-1.86h1.08c.09.5.3.88.61 1.16.33.27.74.4 1.24.4.62 0 1.08-.18 1.4-.54.3-.37.46-.86.46-1.46 0-.58-.16-1.04-.48-1.36a1.8 1.8 0 0 0-1.36-.5c-.41 0-.78.1-1.09.28-.31.18-.55.42-.7.72h-1.06v-4.79h5.35v.97Zm11.98 3.36c0 .86-.17 1.6-.52 2.25a3.57 3.57 0 0 1-1.52 1.47c-.67.35-1.47.52-2.4.52h-2.69v-8.46h2.69c.93 0 1.73.17 2.4.52.67.33 1.18.82 1.52 1.46.35.63.52 1.38.52 2.24Zm-4.53 3.26c1.1 0 1.95-.29 2.54-.86a3.2 3.2 0 0 0 .87-2.4 3.2 3.2 0 0 0-.87-2.4c-.58-.57-1.42-.86-2.54-.86h-1.5v6.52h1.5Zm8.7-5.7c.64 0 1.18.17 1.62.49.45.32.76.75.94 1.28v-1.68h1.09V294h-1.1v-1.68a2.5 2.5 0 0 1-.93 1.28c-.44.32-.98.48-1.62.48-.58 0-1.1-.13-1.56-.4a2.87 2.87 0 0 1-1.08-1.17 3.98 3.98 0 0 1-.38-1.8c0-.69.13-1.29.38-1.8a2.85 2.85 0 0 1 2.64-1.58Zm.31.98c-.67 0-1.2.22-1.62.65-.4.42-.6 1.01-.6 1.76s.2 1.35.6 1.78c.41.42.95.63 1.62.63.44 0 .82-.1 1.16-.3.34-.2.6-.48.8-.84.2-.36.29-.79.29-1.27s-.1-.9-.29-1.27c-.2-.37-.46-.65-.8-.84a2.2 2.2 0 0 0-1.16-.3Zm5.53-.89 2.14 5.19 1.98-5.19h1.21l-3.91 9.71H104l1.37-3.23-2.77-6.48h1.22Zm8.4-.08c.74 0 1.34.2 1.78.59.46.38.74.9.83 1.56h-1.04c-.05-.4-.21-.72-.5-.96a1.55 1.55 0 0 0-1.1-.39c-.39 0-.7.1-.92.29a.94.94 0 0 0-.33.76c0 .24.08.43.22.58.15.15.34.26.55.34.23.07.53.15.92.24.48.11.88.23 1.17.35.3.11.56.3.77.55.22.26.32.6.32 1.03 0 .54-.2.97-.6 1.31-.4.34-.95.5-1.62.5a3.1 3.1 0 0 1-1.92-.56c-.5-.38-.78-.9-.87-1.57h1.05c.04.4.21.72.52.97.31.25.72.37 1.22.37.38 0 .67-.1.88-.29.22-.19.32-.44.32-.75a.83.83 0 0 0-.23-.61 1.5 1.5 0 0 0-.56-.35 8.25 8.25 0 0 0-.92-.25 9.34 9.34 0 0 1-1.18-.34 1.87 1.87 0 0 1-.74-.53c-.2-.25-.3-.58-.3-1 0-.55.2-.99.6-1.33.42-.34.97-.51 1.68-.51Zm9.8 0c.64 0 1.18.16 1.62.48.44.32.76.75.93 1.28v-1.68h1.1V294h-1.1v-1.68c-.17.54-.48.96-.93 1.28-.44.32-.98.48-1.62.48-.59 0-1.1-.13-1.56-.4a2.87 2.87 0 0 1-1.08-1.17 3.98 3.98 0 0 1-.39-1.8c0-.69.13-1.29.39-1.8a2.85 2.85 0 0 1 2.64-1.58Zm.3.97c-.66 0-1.2.22-1.61.65-.4.42-.6 1.01-.6 1.76s.2 1.35.6 1.78c.4.42.95.63 1.62.63.43 0 .81-.1 1.15-.3.34-.2.61-.48.8-.84.2-.36.3-.79.3-1.27s-.1-.9-.3-1.27c-.19-.37-.45-.65-.8-.84a2.2 2.2 0 0 0-1.15-.3Zm7.78-.97c.64 0 1.18.16 1.62.48.45.32.76.75.94 1.28v-1.68h1.1v6.7c0 .6-.14 1.15-.4 1.62-.25.47-.6.84-1.07 1.1-.47.27-1 .4-1.62.4-.9 0-1.61-.22-2.17-.65a2.8 2.8 0 0 1-1.07-1.73h1.08c.13.44.37.79.72 1.03.36.26.82.39 1.38.39.59 0 1.08-.2 1.46-.58.4-.37.59-.9.59-1.58v-1.79c-.18.54-.49.96-.94 1.28-.44.32-.98.48-1.62.48-.58 0-1.1-.13-1.56-.4a2.87 2.87 0 0 1-1.08-1.17 3.98 3.98 0 0 1-.38-1.8c0-.69.13-1.29.38-1.8a2.85 2.85 0 0 1 2.64-1.58Zm.31.97c-.67 0-1.2.22-1.62.65-.4.42-.6 1.01-.6 1.76s.2 1.35.6 1.78c.41.42.95.63 1.63.63.43 0 .81-.1 1.15-.3.34-.2.6-.48.8-.84.2-.36.29-.79.29-1.27s-.1-.9-.29-1.27c-.2-.37-.46-.65-.8-.84a2.2 2.2 0 0 0-1.16-.3Zm8.07-.97c.63 0 1.2.13 1.69.4.5.28.9.67 1.18 1.18.28.51.43 1.11.43 1.8s-.15 1.29-.44 1.8c-.28.5-.67.9-1.17 1.17-.5.27-1.06.4-1.7.4-.63 0-1.2-.13-1.7-.4a3 3 0 0 1-1.17-1.17 3.61 3.61 0 0 1-.44-1.8c0-.69.15-1.29.44-1.8.28-.51.68-.9 1.17-1.17.5-.28 1.07-.41 1.7-.41Zm0 .96a2.03 2.03 0 0 0-1.9 1.08c-.2.36-.3.8-.3 1.34 0 .53.1.98.3 1.35.2.36.48.62.8.8a2.32 2.32 0 0 0 2.18 0c.33-.18.6-.44.8-.8.2-.37.31-.82.31-1.35 0-.53-.1-.98-.3-1.34-.2-.37-.48-.64-.81-.82a2.25 2.25 0 0 0-1.08-.26ZM76.92 358H78v-1.93h1.2v-.95H78v-5.71h-1.3l-4.22 5.83v.83h4.44V358Zm-3.18-2.88 3.23-4.57v4.57h-3.23Zm12.53-5.48h-2.6V358h2.6c2.75 0 4.44-1.57 4.44-4.16 0-2.6-1.69-4.2-4.44-4.2Zm-1.5 7.46v-6.58h1.5c2.19 0 3.33 1.28 3.33 3.32s-1.14 3.26-3.33 3.26h-1.5Zm6.98-2.41c0 2.04 1.35 3.42 3.1 3.42 1.22 0 2.07-.63 2.46-1.33V358h1.1v-6.58h-1.1v1.2a2.73 2.73 0 0 0-2.44-1.3c-1.77 0-3.12 1.32-3.12 3.37Zm5.56.01c0 1.55-1.03 2.45-2.23 2.45s-2.22-.91-2.22-2.46c0-1.55 1.02-2.43 2.22-2.43 1.2 0 2.23.92 2.23 2.44Zm5.45 2.05-2.06-5.33h-1.22l2.66 6.5-1.3 3.18h1.13l3.96-9.68h-1.13l-2.04 5.33Zm9-.54c-.05-2.35-3.87-1.5-3.87-3.06 0-.53.48-.91 1.28-.91.88 0 1.38.48 1.43 1.14h1.1c-.08-1.28-1.04-2.06-2.49-2.06-1.46 0-2.41.82-2.41 1.83 0 2.45 3.89 1.6 3.89 3.06 0 .54-.48.97-1.35.97-.92 0-1.49-.48-1.55-1.11h-1.12c.07 1.2 1.15 2.04 2.68 2.04 1.46 0 2.4-.82 2.4-1.9Zm4.33-1.52c0 2.04 1.35 3.42 3.1 3.42 1.22 0 2.07-.63 2.46-1.33V358h1.1v-6.58h-1.1v1.2a2.73 2.73 0 0 0-2.44-1.3c-1.77 0-3.12 1.32-3.12 3.37Zm5.56.01c0 1.55-1.03 2.45-2.23 2.45s-2.22-.91-2.22-2.46c0-1.55 1.02-2.43 2.22-2.43 1.2 0 2.23.92 2.23 2.44Zm2.55-.01c0 2.04 1.35 3.42 3.12 3.42 1.2 0 2.05-.64 2.44-1.35v1.38c0 1.4-.87 2.15-2.04 2.15-1.08 0-1.86-.54-2.1-1.33h-1.08c.22 1.4 1.46 2.28 3.18 2.28 1.94 0 3.15-1.28 3.15-3.1v-6.72h-1.1v1.2a2.71 2.71 0 0 0-2.45-1.3c-1.77 0-3.12 1.32-3.12 3.37Zm5.56.01c0 1.55-1.03 2.45-2.23 2.45s-2.22-.91-2.22-2.46c0-1.55 1.02-2.43 2.22-2.43 1.2 0 2.23.92 2.23 2.44Zm9.2 0a3.21 3.21 0 0 0-3.33-3.38 3.22 3.22 0 0 0-3.32 3.38c0 2.09 1.41 3.4 3.27 3.4a3.26 3.26 0 0 0 3.37-3.4Zm-5.54 0c0-1.66 1.05-2.44 2.2-2.44 1.13 0 2.22.78 2.22 2.44 0 1.67-1.12 2.45-2.26 2.45-1.14 0-2.16-.78-2.16-2.45ZM76.92 422H78v-1.93h1.2v-.95H78v-5.71h-1.3l-4.22 5.83v.83h4.44V422Zm-3.18-2.88 3.23-4.57v4.57h-3.23Zm12.53-5.48h-2.6V422h2.6c2.75 0 4.44-1.57 4.44-4.16 0-2.6-1.69-4.2-4.44-4.2Zm-1.5 7.46v-6.58h1.5c2.19 0 3.33 1.28 3.33 3.32s-1.14 3.26-3.33 3.26h-1.5Zm6.98-2.41c0 2.04 1.35 3.42 3.1 3.42 1.22 0 2.07-.63 2.46-1.33V422h1.1v-6.58h-1.1v1.2a2.73 2.73 0 0 0-2.44-1.3c-1.77 0-3.12 1.32-3.12 3.37Zm5.56.01c0 1.55-1.03 2.45-2.23 2.45s-2.22-.91-2.22-2.46c0-1.55 1.02-2.43 2.22-2.43 1.2 0 2.23.92 2.23 2.44Zm5.45 2.05-2.06-5.33h-1.22l2.66 6.5-1.3 3.18h1.13l3.96-9.68h-1.13l-2.04 5.33Zm9-.54c-.05-2.35-3.87-1.5-3.87-3.06 0-.53.48-.91 1.28-.91.88 0 1.38.48 1.43 1.14h1.1c-.08-1.28-1.04-2.06-2.49-2.06-1.46 0-2.41.82-2.41 1.83 0 2.45 3.89 1.6 3.89 3.06 0 .54-.48.97-1.35.97-.92 0-1.49-.48-1.55-1.11h-1.12c.07 1.2 1.15 2.04 2.68 2.04 1.46 0 2.4-.82 2.4-1.9Zm4.33-1.52c0 2.04 1.35 3.42 3.1 3.42 1.22 0 2.07-.63 2.46-1.33V422h1.1v-6.58h-1.1v1.2a2.73 2.73 0 0 0-2.44-1.3c-1.77 0-3.12 1.32-3.12 3.37Zm5.56.01c0 1.55-1.03 2.45-2.23 2.45s-2.22-.91-2.22-2.46c0-1.55 1.02-2.43 2.22-2.43 1.2 0 2.23.92 2.23 2.44Zm2.55-.01c0 2.04 1.35 3.42 3.12 3.42 1.2 0 2.05-.64 2.44-1.35v1.38c0 1.4-.87 2.15-2.04 2.15-1.08 0-1.86-.54-2.1-1.33h-1.08c.22 1.4 1.46 2.28 3.18 2.28 1.94 0 3.15-1.28 3.15-3.1v-6.72h-1.1v1.2a2.71 2.71 0 0 0-2.45-1.3c-1.77 0-3.12 1.32-3.12 3.37Zm5.56.01c0 1.55-1.03 2.45-2.23 2.45s-2.22-.91-2.22-2.46c0-1.55 1.02-2.43 2.22-2.43 1.2 0 2.23.92 2.23 2.44Zm9.2 0a3.21 3.21 0 0 0-3.33-3.38 3.22 3.22 0 0 0-3.32 3.38c0 2.09 1.41 3.4 3.27 3.4a3.26 3.26 0 0 0 3.37-3.4Zm-5.54 0c0-1.66 1.05-2.44 2.2-2.44 1.13 0 2.22.78 2.22 2.44 0 1.67-1.12 2.45-2.26 2.45-1.14 0-2.16-.78-2.16-2.45Z" fill="#fff" fill-opacity=".7"/><path d="M253.81 279.4h5.59v-1.07h-5.59v1.08Zm10.64 5.82h.75v-1.14c1.9-.12 2.89-1.45 2.89-2.75 0-1.95-1.5-2.36-2.88-2.7v-3.42c.85.18 1.31.81 1.4 1.41h1.35c-.14-1.41-1.16-2.35-2.75-2.49v-1.16h-.76v1.16c-1.75.11-2.9 1.19-2.9 2.7 0 1.93 1.5 2.34 2.9 2.7v3.5a1.7 1.7 0 0 1-1.53-1.56h-1.36c.03 1.48 1.2 2.46 2.89 2.61v1.14Zm2.37-3.82c0 .84-.58 1.54-1.62 1.65v-3.3c.9.26 1.62.65 1.62 1.65Zm-3.97-4.64c0-1 .66-1.5 1.6-1.58v3.23c-.9-.28-1.6-.65-1.6-1.65Zm7.28 7.13h6.74v-1.07h-4.82c1.8-1.47 4.52-3.6 4.52-6.13 0-1.87-1.23-3-3.13-3-1.82 0-3.18 1.13-3.26 3.28h1.23c.05-1.27.73-2.18 2.04-2.18 1.37 0 1.86.84 1.86 1.96 0 2.07-2.52 4.09-5.18 6.23v.9Zm8.57-10.03v5.72h1.2a2.17 2.17 0 0 1 2.1-1.33c1.48 0 2.22.84 2.22 2.28 0 1.38-.69 2.42-2.23 2.42-1.19 0-2.01-.63-2.25-1.7h-1.25c.26 1.64 1.47 2.78 3.5 2.78 2.36 0 3.45-1.57 3.45-3.53 0-1.57-.79-3.35-3.25-3.35-1 0-1.89.45-2.3 1.03v-3.2h4.9v-1.12h-6.09Zm8.43 4.97c0 2.94.73 5.17 3.53 5.17 2.79 0 3.51-2.23 3.51-5.17 0-2.9-.72-5.1-3.51-5.1-2.8 0-3.53 2.2-3.53 5.1Zm5.78 0c0 2.19-.26 4-2.25 4-2 0-2.27-1.81-2.27-4 0-2.1.27-3.94 2.27-3.94 1.99 0 2.25 1.84 2.25 3.94Zm2.12 7.17h.85l1.57-3.76h-1.4l-1.02 3.76Zm4.13-4.72c.14 1.49 1.12 2.73 3.14 2.73 2.66 0 3.43-1.89 3.43-5.26 0-3.14-.8-5.07-3.55-5.07-2.18 0-3.33 1.4-3.33 3.33 0 2.15 1.39 3.3 3.25 3.3 1.1 0 2.1-.48 2.5-1.34.05 2.97-.75 3.98-2.23 3.98-1.18 0-1.85-.62-2.03-1.67h-1.18Zm3.15-2.04c-1.51 0-2.24-.95-2.24-2.25 0-1.35.83-2.24 2.14-2.24 1.46 0 2.24.96 2.24 2.33 0 1.36-.92 2.16-2.14 2.16Zm5.18-2.81h1.24c.13-.98.84-1.66 2.03-1.66 1.22 0 1.87.68 1.87 1.64 0 1.18-.91 1.7-2.6 1.71h-.34v1.06h.32c1.82 0 2.81.55 2.81 1.98 0 1.03-.64 1.83-2 1.83-1.34 0-2.13-.82-2.25-1.9h-1.24c.16 1.96 1.59 2.98 3.5 2.98 2.12 0 3.21-1.23 3.21-2.8 0-1.46-.8-2.32-1.97-2.6v-.07a2.29 2.29 0 0 0 1.79-2.31c0-1.46-1.08-2.6-3.05-2.6-1.88 0-3.2 1-3.32 2.74ZM253.81 343.4h5.59v-1.07h-5.59v1.08Zm10.64 5.82h.75v-1.14c1.9-.12 2.89-1.45 2.89-2.75 0-1.95-1.5-2.36-2.88-2.7v-3.42c.85.18 1.31.81 1.4 1.41h1.35c-.14-1.41-1.16-2.35-2.75-2.49v-1.16h-.76v1.16c-1.75.11-2.9 1.19-2.9 2.7 0 1.93 1.5 2.34 2.9 2.7v3.5a1.7 1.7 0 0 1-1.53-1.56h-1.36c.03 1.48 1.2 2.46 2.89 2.61v1.14Zm2.37-3.82c0 .84-.58 1.54-1.62 1.65v-3.3c.9.26 1.62.65 1.62 1.65Zm-3.97-4.64c0-1 .66-1.5 1.6-1.58v3.23c-.9-.28-1.6-.65-1.6-1.65Zm7.28 7.13h6.74v-1.07h-4.82c1.8-1.47 4.52-3.6 4.52-6.13 0-1.87-1.23-3-3.13-3-1.82 0-3.18 1.13-3.26 3.28h1.23c.05-1.27.73-2.18 2.04-2.18 1.37 0 1.86.84 1.86 1.96 0 2.07-2.52 4.09-5.18 6.23v.9Zm8.57-10.03v5.72h1.2a2.17 2.17 0 0 1 2.1-1.33c1.48 0 2.22.84 2.22 2.28 0 1.38-.69 2.42-2.23 2.42-1.19 0-2.01-.63-2.25-1.7h-1.25c.26 1.64 1.47 2.78 3.5 2.78 2.36 0 3.45-1.57 3.45-3.53 0-1.57-.79-3.35-3.25-3.35-1 0-1.89.45-2.3 1.03v-3.2h4.9v-1.12h-6.09Zm8.43 4.97c0 2.94.73 5.17 3.53 5.17 2.79 0 3.51-2.23 3.51-5.17 0-2.9-.72-5.1-3.51-5.1-2.8 0-3.53 2.2-3.53 5.1Zm5.78 0c0 2.19-.26 4-2.25 4-2 0-2.27-1.81-2.27-4 0-2.1.27-3.94 2.27-3.94 1.99 0 2.25 1.84 2.25 3.94Zm2.12 7.17h.85l1.57-3.76h-1.4l-1.02 3.76Zm4.13-4.72c.14 1.49 1.12 2.73 3.14 2.73 2.66 0 3.43-1.89 3.43-5.26 0-3.14-.8-5.07-3.55-5.07-2.18 0-3.33 1.4-3.33 3.33 0 2.15 1.39 3.3 3.25 3.3 1.1 0 2.1-.48 2.5-1.34.05 2.97-.75 3.98-2.23 3.98-1.18 0-1.85-.62-2.03-1.67h-1.18Zm3.15-2.04c-1.51 0-2.24-.95-2.24-2.25 0-1.35.83-2.24 2.14-2.24 1.46 0 2.24.96 2.24 2.33 0 1.36-.92 2.16-2.14 2.16Zm5.18-2.81h1.24c.13-.98.84-1.66 2.03-1.66 1.22 0 1.87.68 1.87 1.64 0 1.18-.91 1.7-2.6 1.71h-.34v1.06h.32c1.82 0 2.81.55 2.81 1.98 0 1.03-.64 1.83-2 1.83-1.34 0-2.13-.82-2.25-1.9h-1.24c.16 1.96 1.59 2.98 3.5 2.98 2.12 0 3.21-1.23 3.21-2.8 0-1.46-.8-2.32-1.97-2.6v-.07a2.29 2.29 0 0 0 1.79-2.31c0-1.46-1.08-2.6-3.05-2.6-1.88 0-3.2 1-3.32 2.74ZM258.39 406.33v1.08h-5.6v-1.08h5.6Zm5.76.14c.73.22 1.29.42 1.7.6.4.18.74.46 1.04.84.3.38.45.88.45 1.53a2.55 2.55 0 0 1-1.4 2.28 3.7 3.7 0 0 1-1.75.38h-.04v1.12h-.44v-1.15a3.7 3.7 0 0 1-2.17-.87 2.75 2.75 0 0 1-.94-1.86h1.36a1.95 1.95 0 0 0 1.75 1.74v-3.59a17.7 17.7 0 0 1-1.68-.57 2.8 2.8 0 0 1-1.03-.83 2.38 2.38 0 0 1-.44-1.5 2.4 2.4 0 0 1 1.5-2.26 3.98 3.98 0 0 1 1.65-.33v-1.2h.44v1.22c.87.06 1.56.33 2.07.8.51.46.82 1.03.9 1.69h-1.36a1.82 1.82 0 0 0-.5-.95 1.9 1.9 0 0 0-1.11-.53v3.44Zm-2.21-1.93c0 .47.14.84.44 1.1.31.26.75.5 1.33.69V403c-.54 0-.97.13-1.3.4-.32.27-.48.64-.48 1.14Zm2.22 6.56c.58 0 1.03-.15 1.34-.46.32-.3.48-.7.48-1.17 0-.5-.16-.88-.48-1.15-.31-.27-.76-.5-1.35-.69v3.47h.01Zm4.45-.08a20.84 20.84 0 0 0 3.81-3.16c.95-1.06 1.43-2.04 1.43-2.94 0-.56-.15-1.01-.44-1.35-.28-.34-.73-.52-1.37-.52-.65 0-1.15.21-1.48.63-.34.42-.52.98-.56 1.71h-1.26c.06-1.1.4-1.94 1.02-2.53.62-.6 1.41-.9 2.38-.9.93 0 1.66.25 2.2.74.54.5.81 1.2.81 2.1 0 .75-.24 1.51-.73 2.29-.47.76-1.07 1.48-1.8 2.14a13.9 13.9 0 0 1-2.23 1.66h5.01v1.05h-6.79v-.92Zm14.8-7.88h-5.06v3.3c.23-.31.57-.57 1-.75.44-.2.93-.28 1.45-.28.7 0 1.28.14 1.74.44.46.3.8.68 1.02 1.17.22.47.33 1 .33 1.6 0 1-.28 1.84-.85 2.48-.57.65-1.4.97-2.5.97a3.6 3.6 0 0 1-2.43-.8 3.08 3.08 0 0 1-1.05-2.17h1.26c.1.58.34 1.03.72 1.36.38.32.86.48 1.44.48.71 0 1.26-.22 1.62-.65.36-.43.55-1 .55-1.7a2.2 2.2 0 0 0-.56-1.59 2.1 2.1 0 0 0-1.58-.57c-.5 0-.91.1-1.28.32-.36.2-.64.49-.83.84h-1.23V402h6.25v1.14Zm1.98 3.86c0 1.59.26 2.82.79 3.71.52.89 1.43 1.33 2.71 1.33 1.3 0 2.2-.44 2.72-1.33.53-.88.8-2.12.8-3.7s-.27-2.8-.8-3.69c-.52-.89-1.43-1.33-2.72-1.33-1.28 0-2.19.44-2.71 1.33-.53.88-.79 2.1-.79 3.68Zm5.76 0c0 .81-.06 1.5-.18 2.05-.12.54-.34.97-.66 1.3-.33.32-.8.49-1.42.49-.6 0-1.07-.16-1.4-.5a2.6 2.6 0 0 1-.67-1.3c-.11-.55-.17-1.23-.17-2.04 0-.8.06-1.47.17-2.01.12-.55.35-.98.67-1.3.33-.32.8-.48 1.4-.48.62 0 1.1.16 1.42.49.32.31.54.75.66 1.29s.18 1.2.18 2.01Zm3.8 4.06c.14.41.2.8.2 1.15 0 .49-.12.87-.36 1.16-.24.3-.6.45-1.1.45v-.55c.24 0 .41-.06.51-.2.12-.11.17-.3.17-.58v-.13h-.71v-1.3h1.3Zm2.93-1.83c.09.59.3 1.04.62 1.36.32.31.77.47 1.34.47a2 2 0 0 0 1.78-.9c.4-.62.6-1.58.6-2.9l-.01-.57c-.13.56-.45 1.01-.95 1.35-.5.33-1.1.5-1.78.5-.98 0-1.75-.3-2.31-.88a3.43 3.43 0 0 1-.84-2.46c0-.62.12-1.18.36-1.68.25-.5.61-.9 1.1-1.2a3.6 3.6 0 0 1 1.87-.44c1.42 0 2.39.44 2.91 1.31.54.87.8 2.07.8 3.59 0 1.73-.27 3.06-.81 3.97-.54.9-1.45 1.36-2.72 1.36-.94 0-1.68-.26-2.22-.8a3.4 3.4 0 0 1-.94-2.08h1.2Zm4.2-3.84c0-.67-.2-1.24-.6-1.7-.4-.47-.98-.7-1.78-.7-.65 0-1.17.19-1.56.58-.4.4-.6.94-.6 1.64 0 .75.2 1.32.6 1.72.39.4.92.6 1.6.6.4 0 .77-.07 1.13-.23a2.03 2.03 0 0 0 1.22-1.9Zm6.27-3.53c.63 0 1.18.12 1.63.34a2.39 2.39 0 0 1 1.39 2.25c0 .62-.18 1.14-.55 1.56-.35.42-.87.67-1.56.75v.09c.72.19 1.28.47 1.68.87.4.39.61.93.61 1.62 0 .81-.27 1.48-.81 1.99s-1.32.77-2.34.77a3.77 3.77 0 0 1-2.48-.79 3.4 3.4 0 0 1-1.1-2.32h1.26c.08.62.31 1.1.7 1.47.39.36.92.55 1.58.55.63 0 1.1-.16 1.44-.48.34-.33.5-.75.5-1.26 0-.62-.24-1.08-.72-1.4a3.6 3.6 0 0 0-2.05-.49h-.33v-1.06h.33c1.72 0 2.58-.58 2.58-1.73 0-.5-.16-.9-.48-1.2-.31-.3-.75-.45-1.31-.45a2.1 2.1 0 0 0-1.42.5c-.38.3-.6.78-.67 1.4H305a3.1 3.1 0 0 1 .96-2.18c.59-.53 1.39-.8 2.4-.8ZM24.51 219.62h5.21V222h-8.31v-15.53h3.1v13.15Zm11.83-9.96c1.03 0 1.91.24 2.64.72a3.96 3.96 0 0 1 1.57 1.96v-2.53h3.08V222h-3.08v-2.55c-.31.82-.83 1.48-1.57 1.98-.73.48-1.6.72-2.64.72a5.14 5.14 0 0 1-4.7-2.9 7.69 7.69 0 0 1-.69-3.34c0-1.28.23-2.39.69-3.33a5.11 5.11 0 0 1 4.7-2.92Zm.97 2.7c-.97 0-1.74.32-2.33.95-.59.63-.88 1.5-.88 2.6s.3 1.96.88 2.6c.59.6 1.36.92 2.33.92.94 0 1.71-.32 2.31-.95.62-.64.93-1.5.93-2.57 0-1.09-.31-1.95-.93-2.58a3.02 3.02 0 0 0-2.3-.97Zm13.33-2.7c1.48 0 2.67.37 3.56 1.12.9.75 1.46 1.75 1.68 3h-2.9a2.41 2.41 0 0 0-.8-1.42 2.38 2.38 0 0 0-1.6-.52c-.53 0-.95.12-1.24.37-.3.25-.44.59-.44 1.01 0 .34.12.61.35.82.24.2.53.36.88.48.36.12.86.26 1.52.42.93.2 1.67.42 2.25.66a3.5 3.5 0 0 1 1.5 1.08c.42.48.63 1.14.63 1.98 0 1.04-.41 1.88-1.23 2.53-.8.64-1.9.96-3.28.96a6.26 6.26 0 0 1-3.8-1.05 4.53 4.53 0 0 1-1.74-3.06h2.97c.07.6.33 1.08.79 1.43.45.34 1.05.5 1.78.5.53 0 .93-.12 1.2-.37.29-.26.43-.6.43-1.01 0-.35-.13-.64-.38-.86a2.33 2.33 0 0 0-.9-.5c-.35-.12-.86-.26-1.52-.42-.9-.2-1.65-.41-2.22-.62a3.73 3.73 0 0 1-1.45-1.03c-.4-.47-.6-1.12-.6-1.94 0-1.05.4-1.91 1.22-2.57.8-.66 1.92-1 3.34-1Zm14.21 9.68V222h-1.63c-1.36 0-2.4-.33-3.14-.99-.72-.66-1.08-1.76-1.08-3.3v-5.28h-1.7v-2.62H59v-3.01h3.1v3.01h2.73v2.62H62.1v5.32c0 .6.12 1 .35 1.24.24.23.63.35 1.2.35h1.2Zm17.58-12.87v2.46h-4.29V222h-3.1v-13.07h-4.27v-2.46h11.66Zm4.81 5.67a5.01 5.01 0 0 1 4.32-2.5v3.32h-.9c-2.28 0-3.42 1.05-3.42 3.17V222h-3.1v-12.19h3.1v2.33Zm10.8-2.48c1.03 0 1.91.24 2.65.72a3.95 3.95 0 0 1 1.56 1.96v-2.53h3.08V222h-3.08v-2.55c-.3.82-.83 1.48-1.56 1.98-.74.48-1.62.72-2.64.72a5.14 5.14 0 0 1-4.7-2.9 7.69 7.69 0 0 1-.7-3.34c0-1.28.23-2.39.69-3.33a5.12 5.12 0 0 1 4.7-2.92Zm.98 2.7c-.97 0-1.75.32-2.34.95-.58.63-.88 1.5-.88 2.6s.3 1.96.88 2.6c.59.6 1.37.92 2.34.92.93 0 1.7-.32 2.3-.95.62-.64.93-1.5.93-2.57 0-1.09-.3-1.95-.92-2.58a3.02 3.02 0 0 0-2.31-.97Zm16.38-2.72c1.4 0 2.53.46 3.37 1.38.83.93 1.25 2.22 1.25 3.9V222h-3.08v-6.73c0-.97-.25-1.72-.75-2.25a2.64 2.64 0 0 0-2.04-.81c-.88 0-1.59.29-2.12.86-.52.57-.79 1.4-.79 2.46V222h-3.1v-12.19h3.1v2.44c.33-.82.85-1.46 1.59-1.91.74-.47 1.6-.7 2.57-.7Zm11.55.02c1.48 0 2.67.37 3.57 1.12.89.75 1.45 1.75 1.67 3h-2.9a2.42 2.42 0 0 0-.8-1.42 2.38 2.38 0 0 0-1.6-.52c-.53 0-.94.12-1.24.37-.29.25-.44.59-.44 1.01 0 .34.12.61.36.82.23.2.52.36.88.48.35.12.85.26 1.51.42.93.2 1.68.42 2.25.66.58.22 1.08.58 1.5 1.08.42.48.63 1.14.63 1.98 0 1.04-.4 1.88-1.23 2.53-.8.64-1.9.96-3.28.96a6.26 6.26 0 0 1-3.8-1.05 4.52 4.52 0 0 1-1.74-3.06h2.97c.07.6.33 1.08.79 1.43.45.34 1.05.5 1.78.5.53 0 .93-.12 1.21-.37.28-.26.42-.6.42-1.01 0-.35-.13-.64-.37-.86a2.34 2.34 0 0 0-.9-.5c-.36-.12-.86-.26-1.52-.42-.91-.2-1.65-.41-2.23-.62a3.72 3.72 0 0 1-1.45-1.03c-.4-.47-.6-1.12-.6-1.94 0-1.05.41-1.91 1.22-2.57.8-.66 1.92-1 3.34-1Zm12.48 0c1.02 0 1.9.24 2.64.72a3.96 3.96 0 0 1 1.56 1.96v-2.53h3.08V222h-3.08v-2.55c-.31.82-.83 1.48-1.56 1.98-.74.48-1.62.72-2.64.72a5.14 5.14 0 0 1-4.7-2.9 7.68 7.68 0 0 1-.7-3.34c0-1.28.23-2.39.69-3.33a5.11 5.11 0 0 1 4.7-2.92Zm.96 2.7c-.96 0-1.74.32-2.33.95-.59.63-.88 1.5-.88 2.6s.3 1.96.88 2.6c.59.6 1.37.92 2.33.92.94 0 1.71-.32 2.31-.95.62-.64.93-1.5.93-2.57 0-1.09-.31-1.95-.93-2.58a3.02 3.02 0 0 0-2.3-.97Zm14.6-2.7c1.58 0 2.88.42 3.92 1.27 1.06.85 1.72 2.01 1.98 3.48h-3.27a2.48 2.48 0 0 0-.9-1.52 2.73 2.73 0 0 0-1.79-.57c-.82 0-1.5.3-2.07.92-.54.6-.81 1.5-.81 2.67s.27 2.06.81 2.68c.56.6 1.25.9 2.07.9a2.8 2.8 0 0 0 1.78-.55c.47-.38.77-.9.9-1.54h3.28a5.55 5.55 0 0 1-1.98 3.48 5.98 5.98 0 0 1-3.91 1.27 6.56 6.56 0 0 1-3.17-.74 5.4 5.4 0 0 1-2.16-2.18 6.83 6.83 0 0 1-.77-3.32c0-1.28.26-2.39.77-3.33a5.24 5.24 0 0 1 2.16-2.17c.92-.5 1.98-.75 3.17-.75Zm14.62 9.68V222h-1.63c-1.36 0-2.41-.33-3.14-.99-.72-.66-1.08-1.76-1.08-3.3v-5.28h-1.7v-2.62h1.7v-3.01h3.1v3.01h2.73v2.62h-2.73v5.32c0 .6.12 1 .35 1.24.24.23.63.35 1.19.35h1.2Zm1.88-13.03c0-.5.18-.9.53-1.2.35-.33.81-.49 1.38-.49.58 0 1.04.16 1.39.48.35.31.53.72.53 1.21s-.18.9-.53 1.21c-.35.31-.81.47-1.39.47-.57 0-1.03-.16-1.38-.47a1.57 1.57 0 0 1-.53-1.2Zm3.45 3.5V222h-3.1v-12.19h3.1Zm8.44-.15a6.7 6.7 0 0 1 3.2.75c.94.5 1.7 1.22 2.24 2.17.54.94.81 2.05.81 3.33 0 1.27-.27 2.38-.81 3.32a5.62 5.62 0 0 1-2.25 2.18c-.94.5-2 .74-3.19.74a6.82 6.82 0 0 1-3.21-.74 5.65 5.65 0 0 1-2.22-2.18 6.52 6.52 0 0 1-.82-3.32c0-1.28.28-2.39.82-3.33a5.47 5.47 0 0 1 2.22-2.17c.95-.5 2.02-.75 3.21-.75Zm0 2.68c-.86 0-1.6.31-2.2.93-.6.6-.9 1.48-.9 2.64 0 1.16.3 2.04.9 2.66a3 3 0 0 0 2.2.9 3 3 0 0 0 2.2-.9c.6-.62.9-1.5.9-2.66 0-1.16-.3-2.04-.9-2.64a2.96 2.96 0 0 0-2.2-.93Zm15.7-2.7c1.41 0 2.53.46 3.37 1.38.83.93 1.25 2.22 1.25 3.9V222h-3.08v-6.73c0-.97-.25-1.72-.75-2.25a2.64 2.64 0 0 0-2.04-.81c-.88 0-1.59.29-2.11.86-.53.57-.8 1.4-.8 2.46V222h-3.1v-12.19h3.1v2.44c.33-.82.86-1.46 1.59-1.91.75-.47 1.6-.7 2.57-.7ZM82.96 268.34c0 1.12-.23 2.1-.7 2.96a4.94 4.94 0 0 1-2.05 2c-.89.46-1.94.7-3.17.7h-4.02v-11.3h4.02c1.23 0 2.28.24 3.17.7.9.47 1.58 1.12 2.05 1.98.47.84.7 1.82.7 2.96Zm-6.11 3.64c1.21 0 2.15-.32 2.81-.96.68-.64 1.01-1.53 1.01-2.68 0-1.17-.33-2.07-1-2.7-.67-.65-1.6-.97-2.82-.97h-1.57v7.31h1.57Zm10.06-5.15a3.65 3.65 0 0 1 3.13-1.82v2.41h-.66c-1.65 0-2.47.77-2.47 2.3V274h-2.26v-8.86h2.25v1.7Zm4.12-4.24c0-.36.13-.65.39-.88.25-.23.59-.35 1-.35.42 0 .76.12 1.01.35.26.23.39.52.39.88 0 .35-.13.65-.39.88-.25.23-.59.34-1 .34-.42 0-.76-.11-1.01-.34a1.14 1.14 0 0 1-.39-.88Zm2.52 2.55V274h-2.26v-8.86h2.26Zm7.33-.12a3.63 3.63 0 0 1 3.4 2.13c.35.69.52 1.49.52 2.42 0 .93-.17 1.74-.5 2.43a3.64 3.64 0 0 1-3.42 2.11 3 3 0 0 1-3.04-1.97V274H95.6v-11.84h2.25v4.82c.23-.6.6-1.08 1.12-1.43a3.4 3.4 0 0 1 1.92-.53Zm-.7 1.97c-.68 0-1.25.24-1.7.7a2.6 2.6 0 0 0-.65 1.88c0 .78.22 1.4.65 1.87.45.46 1.02.69 1.7.69.7 0 1.27-.23 1.7-.67.42-.46.64-1.1.64-1.9 0-.8-.22-1.42-.64-1.88a2.2 2.2 0 0 0-1.7-.69Zm11.51-1.97a3.63 3.63 0 0 1 3.4 2.13c.35.69.53 1.49.53 2.42 0 .93-.18 1.74-.52 2.43a3.64 3.64 0 0 1-3.4 2.11 3 3 0 0 1-3.04-1.97V274h-2.26v-11.84h2.25v4.82c.23-.6.6-1.08 1.13-1.43a3.4 3.4 0 0 1 1.91-.53ZM111 267c-.68 0-1.25.24-1.7.7a2.6 2.6 0 0 0-.65 1.88c0 .78.22 1.4.66 1.87.44.46 1 .69 1.7.69s1.26-.23 1.69-.67c.42-.46.64-1.1.64-1.9 0-.8-.22-1.42-.64-1.88a2.2 2.2 0 0 0-1.7-.69Zm11.52-1.97a3.63 3.63 0 0 1 3.4 2.13c.35.69.52 1.49.52 2.42 0 .93-.17 1.74-.51 2.43a3.64 3.64 0 0 1-3.41 2.11 3 3 0 0 1-3.04-1.97V274h-2.26v-11.84h2.26v4.82c.22-.6.6-1.08 1.12-1.43a3.4 3.4 0 0 1 1.92-.53Zm-.7 1.97c-.69 0-1.25.24-1.7.7a2.6 2.6 0 0 0-.66 1.88c0 .78.22 1.4.66 1.87.45.46 1.01.69 1.7.69.7 0 1.26-.23 1.69-.67.43-.46.64-1.1.64-1.9 0-.8-.21-1.42-.64-1.88a2.2 2.2 0 0 0-1.7-.69Zm8.47-4.83V274h-2.26v-11.84h2.26Zm10.38 7.07c0 .23-.03.48-.08.77h-6.5c.03.79.25 1.37.64 1.74.4.38.89.56 1.47.56.53 0 .96-.12 1.3-.38.35-.26.57-.6.67-1.04h2.38a3.81 3.81 0 0 1-2.23 2.82 4.7 4.7 0 0 1-2 .41c-.87 0-1.64-.18-2.3-.54-.68-.38-1.2-.9-1.58-1.59a4.96 4.96 0 0 1-.56-2.41c0-.93.19-1.74.56-2.42.38-.7.9-1.22 1.57-1.58a4.77 4.77 0 0 1 2.3-.55c.88 0 1.64.19 2.3.55.65.36 1.16.86 1.51 1.5.37.63.55 1.35.55 2.16Zm-2.28-.22c.04-.73-.16-1.28-.57-1.65-.4-.37-.9-.56-1.5-.56-.61 0-1.13.19-1.54.56-.42.37-.65.92-.69 1.65h4.3Zm9.62.8V274h-2.26v-11.3h4.11c1.34 0 2.34.32 3.01.96a3.4 3.4 0 0 1 1.03 2.61c0 1.08-.35 1.94-1.06 2.58-.7.64-1.69.96-2.98.96H148Zm1.62-1.81c1.32 0 1.98-.58 1.98-1.73 0-.56-.16-1-.47-1.3-.3-.3-.81-.44-1.51-.44H148V268h1.62Zm7.99-1.17a3.65 3.65 0 0 1 3.13-1.82v2.41h-.65c-1.66 0-2.48.77-2.48 2.3V274h-2.26v-8.86h2.26v1.7Zm8.48-1.8c.86 0 1.64.18 2.32.54.7.36 1.24.89 1.63 1.58.4.69.6 1.49.6 2.42 0 .93-.2 1.73-.6 2.41-.4.69-.94 1.21-1.63 1.59-.68.36-1.46.54-2.32.54-.87 0-1.64-.18-2.34-.54a4.1 4.1 0 0 1-1.61-1.59c-.4-.68-.6-1.48-.6-2.41 0-.93.2-1.74.6-2.42.4-.7.93-1.22 1.61-1.58.7-.37 1.47-.55 2.34-.55Zm0 1.95c-.63 0-1.16.22-1.6.67-.44.44-.66 1.08-.66 1.92 0 .84.22 1.49.66 1.93.44.44.97.66 1.6.66.63 0 1.16-.22 1.6-.66.44-.44.66-1.09.66-1.93 0-.84-.22-1.49-.66-1.92a2.15 2.15 0 0 0-1.6-.67ZM80.42 326.82v7.68l-5.08-7.68H73.1V338h2.24v-7.66l5.08 7.66h2.24v-11.18h-2.24Zm8.26 4.01c1.15 0 2.08.74 2.11 1.9h-4.2c.17-1.21 1.02-1.9 2.09-1.9Zm4.2 4.39h-2.41c-.29.59-.82 1.07-1.78 1.07-1.12 0-2.01-.74-2.12-2.05h6.48c.04-.29.06-.58.06-.86 0-2.64-1.8-4.39-4.37-4.39-2.62 0-4.45 1.78-4.45 4.58 0 2.78 1.88 4.57 4.45 4.57 2.2 0 3.67-1.3 4.15-2.92Zm2.22.03c0 2.03 1.13 2.75 2.83 2.75h1.4v-1.89H98.3c-.7 0-.95-.25-.95-.85v-4.28h1.99v-1.84h-1.99v-2.2H95.1v2.2h-1.06v1.84h1.06v4.27Zm6.09 2.75h2.27v-7.02h1.55v-1.84h-1.55v-.37c0-1 .37-1.35 1.46-1.31v-1.9c-2.5-.06-3.73.95-3.73 3.13v.45h-1.01v1.84h1V338Zm5.27 0h2.24v-11.84h-2.24V338Zm4.46 0h2.24v-8.86h-2.24V338Zm1.13-9.92c.79 0 1.38-.58 1.38-1.31 0-.74-.6-1.31-1.38-1.31-.8 0-1.37.57-1.37 1.3 0 .74.57 1.32 1.37 1.32Zm8.22 9.92h2.52l-2.94-4.45 2.91-4.41h-2.4l-1.63 2.73-1.8-2.73h-2.54l2.93 4.41-2.9 4.45h2.4l1.62-2.75 1.83 2.75ZM73.1 402h2.24v-7.26l3.01 7.26h1.7l2.99-7.26V402h2.24v-11.17h-2.53l-3.55 8.3-3.55-8.3H73.1V402Zm13.82-4.46c0 2.76 1.8 4.6 4.03 4.6a3.5 3.5 0 0 0 2.94-1.44v1.3h2.26v-8.86H93.9v1.26a3.5 3.5 0 0 0-2.92-1.4c-2.26 0-4.05 1.77-4.05 4.54Zm6.97.03c0 1.68-1.12 2.6-2.35 2.6-1.2 0-2.33-.95-2.33-2.63s1.13-2.58 2.33-2.58c1.23 0 2.35.93 2.35 2.6Zm10.66 4.43h2.24v-5.2c0-2.45-1.48-3.8-3.54-3.8-1.14 0-2.1.49-2.67 1.24v-1.1h-2.24V402h2.24v-4.9c0-1.42.78-2.19 2-2.19 1.18 0 1.97.77 1.97 2.2V402Zm12.73-8.86h-2.25v4.88c0 1.42-.77 2.19-1.98 2.19-1.19 0-1.97-.77-1.97-2.2v-4.87h-2.24v5.2c0 2.43 1.48 3.77 3.55 3.77 1.1 0 2.08-.48 2.64-1.23V402h2.25v-8.86Zm2.22 8.86h2.23v-11.84h-2.23V402Zm4.45 0h2.24v-8.86h-2.24V402Zm1.13-9.92c.79 0 1.38-.58 1.38-1.31 0-.74-.6-1.31-1.38-1.31-.8 0-1.37.57-1.37 1.3 0 .74.57 1.32 1.37 1.32Zm3.56 9.92h2.27v-7.02h1.56v-1.84h-1.56v-.37c0-1 .37-1.35 1.46-1.31v-1.9c-2.5-.06-3.73.95-3.73 3.13v.45h-1v1.84h1V402Zm9.09-7.17c1.15 0 2.08.74 2.1 1.9h-4.2c.18-1.21 1.02-1.9 2.1-1.9Zm4.2 4.39h-2.41c-.3.59-.82 1.07-1.78 1.07-1.12 0-2.02-.74-2.13-2.05h6.48c.05-.29.07-.58.07-.86 0-2.64-1.81-4.39-4.37-4.39-2.63 0-4.45 1.78-4.45 4.58 0 2.78 1.87 4.57 4.45 4.57 2.2 0 3.66-1.3 4.14-2.92Zm5.13-2.82a5.5 5.5 0 0 0 5.66 5.7c2.48 0 4.5-1.32 5.25-3.62h-2.57a2.8 2.8 0 0 1-2.7 1.62c-1.94 0-3.34-1.44-3.34-3.7 0-2.27 1.4-3.7 3.35-3.7 1.2 0 2.16.53 2.69 1.6h2.57c-.75-2.28-2.77-3.61-5.25-3.61a5.52 5.52 0 0 0-5.66 5.71Zm12.25 1.14c0 2.76 1.8 4.6 4.03 4.6a3.5 3.5 0 0 0 2.94-1.44v1.3h2.26v-8.86h-2.25v1.26a3.5 3.5 0 0 0-2.93-1.4c-2.26 0-4.05 1.77-4.05 4.54Zm6.97.03c0 1.68-1.12 2.6-2.35 2.6-1.2 0-2.33-.95-2.33-2.63s1.13-2.58 2.33-2.58c1.23 0 2.35.93 2.35 2.6Zm11.33 1.9c-.07-3.25-4.98-2.24-4.98-3.85 0-.52.44-.85 1.27-.85.88 0 1.42.46 1.48 1.15h2.15c-.13-1.76-1.43-2.93-3.57-2.93-2.2 0-3.5 1.19-3.5 2.66 0 3.25 5 2.24 5 3.82 0 .51-.47.91-1.36.91-.9 0-1.51-.5-1.6-1.18h-2.25c.1 1.65 1.65 2.94 3.87 2.94 2.16 0 3.49-1.15 3.49-2.67Zm1.84 2.53h2.24v-4.9c0-1.42.78-2.19 2-2.19 1.18 0 1.97.77 1.97 2.2V402h2.24v-5.2c0-2.45-1.46-3.8-3.46-3.8a3.4 3.4 0 0 0-2.75 1.24v-4.08h-2.24V402Z" fill="#fff"/><circle cx="40" cy="279" r="20" fill="#FDFDFE"/><circle cx="40" cy="343" r="20" fill="#FDFDFE"/><circle cx="40" cy="407" r="20" fill="#DFFFF0"/><path d="M243.2 283.25a2 2 0 0 1-3.4 0l-2.9-4.7a2 2 0 0 1 1.7-3.05h5.8a2 2 0 0 1 1.7 3.05l-2.9 4.7ZM243.2 347.25a2 2 0 0 1-3.4 0l-2.9-4.7a2 2 0 0 1 1.7-3.05h5.8a2 2 0 0 1 1.7 3.05l-2.9 4.7Z" fill="#BB2D2D"/><path d="M239.8 402.75a2 2 0 0 1 3.4 0l2.9 4.7a2 2 0 0 1-1.7 3.05h-5.8a2 2 0 0 1-1.7-3.05l2.9-4.7Z" fill="#1AE5BE"/><g clip-path="url(#c)"><path d="M40 260.33a18.64 18.64 0 1 1 0 37.3 18.64 18.64 0 1 1 0-37.3Z" fill="#E74D89"/><path d="M40 298.95a20 20 0 0 1-20-19.97 20 20 0 0 1 40-.01 20.02 20.02 0 0 1-20 19.98Zm16.86-17.25a25.2 25.2 0 0 0-10.64-.73 72.89 72.89 0 0 1 3.31 12.15 16.96 16.96 0 0 0 7.33-11.42Zm-10.19 13a70.82 70.82 0 0 0-3.64-12.93.3.3 0 0 1-.1.03c-9.65 3.36-13.1 10.03-13.41 10.65 2.89 2.25 6.53 3.6 10.48 3.6 2.36.01 4.63-.47 6.67-1.35Zm-19.36-4.3c.4-.65 5.08-8.4 13.9-11.26.21-.08.45-.14.66-.2-.42-.97-.89-1.94-1.39-2.9a63.13 63.13 0 0 1-17.56 2.43l-.01.51c.01 4.4 1.67 8.4 4.4 11.43Zm-4.03-14.9c.77.02 7.8.05 15.8-2.08-2.83-5.03-5.9-9.25-6.33-9.86a17.1 17.1 0 0 0-9.47 11.94ZM36 262.4c.47.63 3.58 4.85 6.38 10 6.07-2.3 8.64-5.73 8.95-6.17A17.03 17.03 0 0 0 36 262.41Zm17.22 5.8c-.36.49-3.22 4.16-9.53 6.74.39.81.78 1.64 1.14 2.47l.37.87c5.7-.72 11.33.44 11.9.55a17 17 0 0 0-3.88-10.63Z" fill="#B2215A"/></g><path d="M28.85 347.01c-.47.09-.94.1-1.43.17l-1.48-4.36v4.55c-.46.05-.89.12-1.32.18v-8.34h1.23l1.69 4.73v-4.73h1.3v7.8Zm2.55-4.75 1.74-.02v1.3c-.57 0-1.25 0-1.74.03v1.94c.77-.05 1.53-.12 2.3-.14v1.25l-3.6.29v-7.7h3.6v1.3h-2.3v1.75Zm7.13-1.75H37.2v6l-1.3.01v-6h-1.35v-1.31h4v1.3Zm2.12 1.66h1.77v1.3h-1.77v2.96h-1.28v-7.22H43v1.3h-2.35v1.66Zm4.46 3.12c.74.02 1.49.08 2.21.12v1.28c-1.16-.07-2.32-.14-3.5-.17v-7.31h1.3v6.08Zm3.3 1.5c.42.02.86.04 1.28.1v-7.68h-1.27v7.58Zm6.97-7.58-1.64 3.97 1.64 4.37c-.48-.06-.97-.15-1.46-.24l-.93-2.4-.95 2.2c-.47-.07-.93-.1-1.4-.16l1.67-3.82-1.5-3.92h1.4l.84 2.19.91-2.2h1.42Z" fill="#D81F26"/><path d="M45.4 400.62v16.27l3.6-3.61V397l-3.6 3.62Zm-7.2 16.27 3.6-3.61V397l-3.6 3.62v16.27Zm-7.2 0 3.6-3.61V397l-3.6 3.62v16.27Z" fill="#00AC5B"/><g filter="url(#d)"><rect x="225" y="24" width="227" height="216" rx="10" fill="url(#e)"/></g><path fill-rule="evenodd" clip-rule="evenodd" d="M429.51 128h-62.87a3 3 0 0 0-3 3v25a3 3 0 0 0 3 3h62.87a3 3 0 0 0 3-3v-25a3 3 0 0 0-3-3Zm-62.87-1a4 4 0 0 0-4 4v25a4 4 0 0 0 4 4h62.87a4 4 0 0 0 4-4v-25a4 4 0 0 0-4-4h-62.87Z" fill="url(#f)"/><rect x="245.54" y="184" width="187.97" height="33" rx="10" fill="url(#g)"/><circle cx="273.54" cy="72" r="28" fill="#fff"/><path d="M318.25 60.71V67h-3.38V50.06h6.17c2 0 3.5.48 4.51 1.44a5.1 5.1 0 0 1 1.54 3.9c0 1.62-.53 2.91-1.59 3.87-1.04.96-2.52 1.44-4.46 1.44h-2.79Zm2.43-2.71c1.98 0 2.97-.86 2.97-2.6 0-.84-.23-1.49-.7-1.94-.45-.44-1.21-.67-2.27-.67h-2.43V58h2.43Zm14.05-4.46c1.12 0 2.08.26 2.88.79.8.53 1.37 1.24 1.7 2.13V53.7h3.37V67h-3.36v-2.78c-.34.9-.9 1.61-1.7 2.16-.8.52-1.77.79-2.89.79A5.6 5.6 0 0 1 329.6 64a8.39 8.39 0 0 1-.74-3.65c0-1.39.25-2.6.75-3.62a5.58 5.58 0 0 1 5.13-3.2Zm1.06 2.95c-1.06 0-1.9.34-2.55 1.03a4 4 0 0 0-.95 2.83 4 4 0 0 0 .95 2.83c.64.68 1.5 1.01 2.55 1.01 1.02 0 1.86-.34 2.52-1.03.67-.7 1-1.64 1-2.8 0-1.2-.33-2.13-1-2.82a3.3 3.3 0 0 0-2.52-1.05Zm12.47-2.79 3.63 9.03 3.36-9.03h3.72l-8.14 19.64h-3.74l3-6.72-5.6-12.92h3.77Zm20.49-.16a5.43 5.43 0 0 1 5.11 3.2c.51 1.01.77 2.22.77 3.61 0 1.4-.26 2.61-.77 3.65a5.45 5.45 0 0 1-5.11 3.17 4.49 4.49 0 0 1-4.56-2.95v9.12h-3.39V53.7h3.39v2.76c.33-.9.9-1.6 1.68-2.13.8-.53 1.76-.8 2.88-.8Zm-1.06 2.95c-1.02 0-1.87.35-2.54 1.05a3.9 3.9 0 0 0-.99 2.81c0 1.17.33 2.1.99 2.81a3.4 3.4 0 0 0 2.54 1.03c1.06 0 1.9-.33 2.54-1a4 4 0 0 0 .96-2.84 4 4 0 0 0-.96-2.83 3.31 3.31 0 0 0-2.54-1.03Zm14.78-2.95c1.12 0 2.08.26 2.88.79.8.53 1.37 1.24 1.7 2.13V53.7h3.36V67h-3.36v-2.78c-.33.9-.9 1.61-1.7 2.16-.8.52-1.76.79-2.88.79a5.6 5.6 0 0 1-5.14-3.17 8.39 8.39 0 0 1-.74-3.65c0-1.39.25-2.6.74-3.62a5.58 5.58 0 0 1 5.14-3.2Zm1.05 2.95c-1.05 0-1.9.34-2.54 1.03a4 4 0 0 0-.96 2.83 4 4 0 0 0 .96 2.83c.64.68 1.49 1.01 2.54 1.01 1.03 0 1.87-.34 2.53-1.03.67-.7 1-1.64 1-2.8 0-1.2-.33-2.13-1-2.82a3.3 3.3 0 0 0-2.53-1.05Zm13.58-7.25V67h-3.38V49.24h3.38Z" fill="#fff"/><path d="M320 83.46a4.1 4.1 0 0 1 2.56.76c.68.5 1.14 1.2 1.4 2.08h-1.15c-.22-.56-.57-1-1.05-1.33a3 3 0 0 0-1.76-.5 2.77 2.77 0 0 0-2.52 1.55c-.25.5-.38 1.08-.38 1.76 0 .66.13 1.24.38 1.74s.6.88 1.03 1.15c.44.26.94.4 1.49.4.7 0 1.28-.17 1.76-.5.48-.33.83-.78 1.05-1.34h1.15a3.92 3.92 0 0 1-1.4 2.09c-.67.5-1.52.75-2.55.75-.8 0-1.5-.18-2.1-.54a3.86 3.86 0 0 1-1.43-1.52c-.34-.66-.5-1.4-.5-2.23 0-.84.16-1.6.5-2.25.34-.65.82-1.16 1.43-1.52.6-.37 1.3-.55 2.1-.55Zm9 1.84c.77 0 1.4.25 1.87.75.47.49.7 1.2.7 2.12V92h-1.09v-3.73c0-.66-.17-1.16-.5-1.51a1.8 1.8 0 0 0-1.37-.53c-.6 0-1.08.2-1.44.59-.36.38-.54.94-.54 1.69V92h-1.1v-8.88h1.1v3.85c.17-.53.46-.95.89-1.23.43-.3.93-.44 1.49-.44Zm10.43 3.04c0 .23-.02.43-.05.6h-5.27c.03.75.24 1.32.64 1.7.4.37.9.56 1.49.56.52 0 .96-.14 1.32-.4.36-.27.58-.63.66-1.08h1.16a2.73 2.73 0 0 1-1.6 2.06c-.45.2-.94.3-1.5.3a3.4 3.4 0 0 1-1.68-.4 2.93 2.93 0 0 1-1.15-1.17 3.78 3.78 0 0 1-.4-1.8c0-.69.13-1.29.4-1.8.28-.51.67-.9 1.15-1.17a3.4 3.4 0 0 1 1.68-.41c.64 0 1.2.13 1.67.4.48.28.85.64 1.1 1.1.25.45.38.96.38 1.51Zm-1.1.07c.02-.49-.06-.9-.25-1.22a1.75 1.75 0 0 0-.75-.73 2.3 2.3 0 0 0-1.05-.24c-.6 0-1.1.18-1.5.56-.42.37-.64.91-.67 1.63h4.21Zm5.56-3.08c.84 0 1.54.22 2.1.67.54.45.88 1.05 1.01 1.8h-1.15c-.08-.47-.3-.84-.66-1.1a2.1 2.1 0 0 0-1.32-.41c-.38 0-.74.09-1.06.26-.3.18-.56.45-.75.82-.2.36-.3.8-.3 1.34s.1.99.3 1.36a1.94 1.94 0 0 0 1.8 1.07c.54 0 .98-.14 1.33-.41.36-.27.58-.65.66-1.12H347a2.85 2.85 0 0 1-1.02 1.81c-.55.44-1.25.66-2.09.66a3.4 3.4 0 0 1-1.68-.4 2.93 2.93 0 0 1-1.15-1.17 3.78 3.78 0 0 1-.4-1.8c0-.69.13-1.29.4-1.8.28-.51.67-.9 1.15-1.17a3.4 3.4 0 0 1 1.68-.41Zm8.27 6.67-2.52-2.96V92h-1.09v-8.88h1.1v5.16l2.48-2.87h1.33l-2.95 3.28 3.02 3.31h-1.37Zm5.44-6.67c.63 0 1.2.13 1.7.4.5.28.89.67 1.17 1.18.28.51.43 1.11.43 1.8s-.14 1.29-.43 1.8c-.28.5-.68.9-1.18 1.17-.5.27-1.06.4-1.7.4-.62 0-1.2-.13-1.7-.4a3 3 0 0 1-1.17-1.17 3.61 3.61 0 0 1-.43-1.8c0-.69.14-1.29.43-1.8s.68-.9 1.17-1.17c.5-.28 1.08-.41 1.7-.41Zm0 .96a2.03 2.03 0 0 0-1.9 1.08c-.2.36-.3.8-.3 1.34 0 .53.1.98.3 1.35.21.36.48.62.8.8a2.32 2.32 0 0 0 2.18 0c.33-.18.6-.44.8-.8.21-.37.31-.82.31-1.35 0-.53-.1-.98-.3-1.34-.2-.37-.48-.64-.81-.82a2.25 2.25 0 0 0-1.08-.26Zm10.7-.88V92h-1.1v-1.55c-.16.54-.46.95-.9 1.24-.42.28-.91.42-1.48.42-.76 0-1.38-.25-1.85-.73-.47-.5-.7-1.2-.7-2.13v-3.84h1.08v3.73c0 .66.17 1.17.5 1.53.34.35.8.53 1.38.53.6 0 1.08-.2 1.44-.58.36-.4.54-.96.54-1.7v-3.5h1.09Zm5.01 5.63V92h-.81c-.68 0-1.18-.16-1.52-.48-.32-.32-.49-.86-.49-1.6v-3.56h-.98v-.95h.98v-1.64h1.1v1.64h1.71v.95h-1.7v3.58c0 .42.07.71.22.87.16.15.44.23.82.23h.67Z" fill="#fff" fill-opacity=".7"/><path d="M377.53 139.46a4.1 4.1 0 0 1 2.56.76c.67.5 1.13 1.2 1.39 2.08h-1.16c-.21-.56-.56-1-1.04-1.33a3 3 0 0 0-1.76-.5 2.77 2.77 0 0 0-2.52 1.55c-.25.5-.38 1.08-.38 1.76 0 .66.13 1.24.38 1.74s.6.88 1.03 1.15c.44.26.94.4 1.49.4.7 0 1.28-.17 1.76-.5.48-.33.83-.78 1.05-1.34h1.15a3.92 3.92 0 0 1-1.4 2.09c-.67.5-1.52.75-2.55.75-.8 0-1.5-.18-2.1-.54a3.86 3.86 0 0 1-1.43-1.52c-.33-.66-.5-1.4-.5-2.23 0-.84.17-1.6.5-2.25.35-.65.82-1.16 1.43-1.52.6-.37 1.3-.55 2.1-.55Zm9 1.84c.76 0 1.38.25 1.86.75.47.49.7 1.2.7 2.12V148H388v-3.73c0-.66-.17-1.16-.5-1.51a1.8 1.8 0 0 0-1.37-.53c-.6 0-1.08.2-1.44.59-.36.38-.54.94-.54 1.69V148h-1.1v-8.88h1.1v3.85c.17-.53.46-.95.89-1.23.43-.3.93-.44 1.49-.44Zm7.06.03c.64 0 1.18.16 1.62.48.45.32.76.75.94 1.28v-1.68h1.09V148h-1.1v-1.68c-.17.54-.48.96-.93 1.28-.44.32-.98.48-1.62.48-.58 0-1.1-.13-1.56-.4a2.87 2.87 0 0 1-1.08-1.17 3.98 3.98 0 0 1-.38-1.8c0-.69.12-1.29.38-1.8a2.85 2.85 0 0 1 2.64-1.58Zm.31.97c-.67 0-1.21.22-1.62.65-.4.42-.6 1.01-.6 1.76s.2 1.35.6 1.78c.4.42.95.63 1.62.63.43 0 .82-.1 1.15-.3.35-.2.62-.48.8-.84.2-.36.3-.79.3-1.27s-.1-.9-.3-1.27c-.19-.37-.45-.65-.8-.84a2.2 2.2 0 0 0-1.15-.3Zm8.66-1c.77 0 1.4.25 1.86.75.47.49.71 1.2.71 2.12V148h-1.1v-3.73c0-.66-.16-1.16-.5-1.51a1.8 1.8 0 0 0-1.36-.53c-.6 0-1.08.2-1.44.59-.36.38-.54.94-.54 1.69V148h-1.1v-6.59h1.1v1.56c.17-.53.46-.95.88-1.23.44-.3.93-.44 1.5-.44Zm7.07.03c.64 0 1.18.16 1.62.48.44.32.76.75.93 1.28v-1.68h1.1v6.7c0 .6-.13 1.15-.39 1.62-.26.47-.62.84-1.08 1.1-.46.27-1 .4-1.62.4-.89 0-1.61-.22-2.17-.65a2.8 2.8 0 0 1-1.07-1.73h1.08c.13.44.37.79.72 1.03.36.26.82.39 1.38.39.6 0 1.08-.2 1.46-.58.4-.37.6-.9.6-1.58v-1.79c-.18.54-.5.96-.94 1.28-.44.32-.98.48-1.62.48-.59 0-1.1-.13-1.56-.4a2.87 2.87 0 0 1-1.08-1.17 3.98 3.98 0 0 1-.39-1.8c0-.69.13-1.29.39-1.8a2.85 2.85 0 0 1 2.64-1.58Zm.3.97c-.66 0-1.2.22-1.61.65-.4.42-.6 1.01-.6 1.76s.2 1.35.6 1.78c.4.42.95.63 1.62.63.43 0 .81-.1 1.15-.3.34-.2.61-.48.8-.84.2-.36.3-.79.3-1.27s-.1-.9-.3-1.27c-.19-.37-.46-.65-.8-.84a2.2 2.2 0 0 0-1.15-.3Zm11.26 2.04c0 .23-.01.43-.05.6h-5.26c.02.75.23 1.32.63 1.7.41.37.9.56 1.49.56.53 0 .97-.14 1.32-.4.36-.27.58-.63.66-1.08h1.16a2.73 2.73 0 0 1-1.6 2.06c-.44.2-.94.3-1.5.3a3.4 3.4 0 0 1-1.67-.4 2.93 2.93 0 0 1-1.15-1.17 3.78 3.78 0 0 1-.41-1.8c0-.69.13-1.29.4-1.8.29-.51.67-.9 1.16-1.17a3.4 3.4 0 0 1 1.68-.41c.64 0 1.2.13 1.67.4.48.28.84.64 1.09 1.1.25.45.38.96.38 1.51Zm-1.1.07c.02-.49-.06-.9-.24-1.22a1.75 1.75 0 0 0-.76-.73 2.3 2.3 0 0 0-1.04-.24c-.6 0-1.1.18-1.51.56-.41.37-.63.91-.66 1.63h4.2Z" fill="url(#h)"/><path d="M302.4 196.66V205h-1.38v-6.25l-2.4 6.25h-1.2l-2.43-6.25V205h-1.37v-8.34h1.66l2.76 6.66 2.7-6.66h1.66Zm4.42 1.64c.6 0 1.11.15 1.54.45.42.3.72.69.9 1.17v-1.53h1.37V205h-1.37v-1.54c-.18.5-.48.88-.9 1.18-.43.3-.94.44-1.54.44-.57 0-1.09-.13-1.55-.4a2.8 2.8 0 0 1-1.05-1.18 4 4 0 0 1-.39-1.81c0-.69.13-1.29.39-1.8a2.8 2.8 0 0 1 2.6-1.59Zm.42 1.2c-.6 0-1.1.2-1.46.6-.36.38-.54.9-.54 1.59 0 .68.18 1.21.54 1.6.37.39.85.58 1.46.58.39 0 .73-.09 1.03-.26.3-.19.55-.44.72-.77.18-.33.27-.71.27-1.15 0-.43-.09-.81-.27-1.14a1.95 1.95 0 0 0-1.75-1.04Zm8.9 5.5-2.38-2.94V205h-1.37v-8.88h1.37v5.09l2.35-2.82h1.64l-2.88 3.29 2.95 3.32h-1.69Zm8.84-3.62c0 .22-.02.42-.05.58h-5.09c.03.68.22 1.19.57 1.52.35.32.78.49 1.3.49.46 0 .85-.12 1.16-.35.32-.23.51-.54.58-.92h1.47a2.85 2.85 0 0 1-1.65 2.08c-.44.2-.94.3-1.5.3-.63 0-1.2-.13-1.7-.4a2.91 2.91 0 0 1-1.15-1.18 3.72 3.72 0 0 1-.42-1.81c0-.69.14-1.29.42-1.8.28-.51.66-.9 1.15-1.18.5-.27 1.06-.4 1.7-.4.65 0 1.22.13 1.7.4s.86.63 1.11 1.1c.27.47.4.99.4 1.57Zm-1.38-.04c.01-.43-.06-.8-.23-1.08-.16-.3-.38-.51-.67-.65a1.99 1.99 0 0 0-.93-.21c-.53 0-.98.16-1.34.49-.36.33-.56.81-.59 1.45h3.76Zm7.12.37V205h-1.37v-8.47h2.88c.98 0 1.71.23 2.2.7.5.46.74 1.1.74 1.9 0 .8-.25 1.43-.75 1.9-.5.45-1.24.68-2.19.68h-1.5Zm1.37-1.11c1.13 0 1.7-.5 1.7-1.47 0-.48-.15-.84-.42-1.09-.26-.26-.69-.38-1.28-.38h-1.37v2.94h1.37Zm7.05-2.3c.6 0 1.12.15 1.54.45.42.3.72.69.9 1.17v-1.53h1.37V205h-1.37v-1.54c-.18.5-.48.88-.9 1.18-.42.3-.94.44-1.54.44-.57 0-1.09-.13-1.54-.4a2.8 2.8 0 0 1-1.06-1.18 4 4 0 0 1-.38-1.81c0-.69.12-1.29.38-1.8a2.8 2.8 0 0 1 2.6-1.59Zm.42 1.2c-.6 0-1.1.2-1.46.6-.36.38-.54.9-.54 1.59 0 .68.18 1.21.54 1.6.37.39.86.58 1.46.58.39 0 .73-.09 1.04-.26.3-.19.54-.44.72-.77.17-.33.26-.71.26-1.15 0-.43-.09-.81-.26-1.14a1.95 1.95 0 0 0-1.75-1.04Zm5.93-1.11 1.98 4.86 1.84-4.86h1.52l-4 9.75h-1.52l1.43-3.3-2.79-6.45h1.54Zm14.63-.11c.78 0 1.4.25 1.87.74.47.5.7 1.2.7 2.13V205h-1.36v-3.7c0-.58-.14-1.03-.43-1.34a1.52 1.52 0 0 0-1.2-.48c-.53 0-.95.17-1.27.52-.32.33-.47.83-.47 1.48V205h-1.37v-3.7c0-.58-.14-1.03-.43-1.34a1.52 1.52 0 0 0-1.2-.48c-.53 0-.95.17-1.27.52-.32.33-.47.83-.47 1.48V205h-1.37v-6.61h1.37v1.38c.16-.48.44-.85.84-1.1.39-.26.85-.39 1.38-.39.55 0 1.02.14 1.43.4.4.28.7.67.88 1.18.2-.5.5-.88.93-1.16.42-.28.9-.42 1.44-.42Zm10.44 3.1c0 .22-.02.42-.05.58h-5.09c.03.68.21 1.19.57 1.52.35.32.78.49 1.3.49.46 0 .84-.12 1.16-.35.32-.23.51-.54.59-.92h1.46a2.85 2.85 0 0 1-1.64 2.08c-.45.2-.95.3-1.5.3-.65 0-1.21-.13-1.7-.4a2.91 2.91 0 0 1-1.16-1.18 3.72 3.72 0 0 1-.42-1.81c0-.69.14-1.29.42-1.8.28-.51.66-.9 1.15-1.18.5-.27 1.06-.4 1.7-.4.65 0 1.22.13 1.7.4.49.27.86.63 1.11 1.1.27.47.4.99.4 1.57Zm-1.38-.04c.01-.43-.06-.8-.23-1.08-.16-.3-.38-.51-.67-.65a1.99 1.99 0 0 0-.92-.21c-.54 0-.99.16-1.35.49-.36.33-.56.81-.59 1.45h3.76Zm6.52-3.06c.76 0 1.38.25 1.84.74.47.5.7 1.2.7 2.13V205h-1.37v-3.7c0-.6-.15-1.06-.45-1.38-.3-.32-.72-.49-1.25-.49-.55 0-.98.18-1.31.53-.33.34-.5.85-.5 1.52V205H372v-6.61h1.37v1.45c.17-.5.47-.88.89-1.15.41-.27.9-.41 1.44-.41Zm7.58 5.53V205h-.84c-.7 0-1.24-.17-1.6-.5-.36-.35-.54-.92-.54-1.7v-3.25h-.95v-1.16h.94v-1.65h1.38v1.65h1.6v1.16h-1.6v3.27c0 .37.07.63.2.78.15.14.4.21.75.21h.66Z" fill="#00030D"/><path d="M245.95 128.52h2.3V136h1.09v-7.48h2.28v-.88h-5.67v.88Zm13.37 4.18a3.21 3.21 0 0 0-3.32-3.38 3.22 3.22 0 0 0-3.33 3.38c0 2.09 1.42 3.4 3.28 3.4a3.26 3.26 0 0 0 3.37-3.4Zm-5.53 0c0-1.66 1.04-2.44 2.2-2.44 1.12 0 2.21.78 2.21 2.44 0 1.67-1.11 2.45-2.25 2.45s-2.16-.78-2.16-2.45Zm7.33 1.5c0 1.32.65 1.8 1.82 1.8h.98v-.92h-.8c-.67 0-.91-.23-.91-.88v-3.88h1.71v-.9h-1.71v-1.65h-1.1v1.65h-.85v.9h.86v3.88Zm3.84-1.51c0 2.04 1.35 3.42 3.1 3.42 1.22 0 2.07-.63 2.47-1.33V136h1.1v-6.58h-1.1v1.2a2.73 2.73 0 0 0-2.45-1.3c-1.77 0-3.12 1.32-3.12 3.37Zm5.57.01c0 1.55-1.04 2.45-2.24 2.45-1.2 0-2.22-.91-2.22-2.46 0-1.55 1.02-2.43 2.22-2.43 1.2 0 2.24.92 2.24 2.44Zm3.07 3.3h1.09v-8.88h-1.1V136Z" fill="#fff" fill-opacity=".7"/><path d="M250.4 160.57h1.17v-1.48c2.43-.22 3.77-1.9 3.77-3.65 0-2.54-1.97-3.03-3.77-3.46v-3.89c.87.22 1.37.88 1.44 1.6h2.2c-.16-2.03-1.57-3.16-3.64-3.34v-1.46h-1.17v1.47c-2.23.2-3.78 1.59-3.78 3.6 0 2.54 1.98 3.05 3.78 3.5v3.96a1.8 1.8 0 0 1-1.58-1.75h-2.2c0 2.03 1.59 3.24 3.78 3.44v1.46Zm2.86-5.03c0 .94-.6 1.7-1.69 1.88v-3.66c.97.3 1.7.76 1.7 1.78Zm-4.55-5.68c0-1.1.7-1.7 1.7-1.82v3.63c-.98-.3-1.7-.77-1.7-1.81Zm9.64 8.96h8.75v-1.71h-5.71c2.1-1.93 5.35-4.36 5.35-7.54 0-2.36-1.52-3.96-4.18-3.96-2.32 0-4.16 1.38-4.23 4.23h1.98c.05-1.48.83-2.49 2.27-2.49 1.53 0 2.12.94 2.12 2.3 0 2.58-3.26 4.96-6.35 7.68v1.49Zm12.13.18h2.07v-13.12h-3.74v1.87h1.67V159Zm5.07-6.73c0 3.81 1.01 6.7 4.68 6.7s4.68-2.89 4.68-6.7c0-3.75-1-6.63-4.68-6.63-3.67 0-4.68 2.88-4.68 6.63Zm7.35 0c0 2.57-.27 4.82-2.67 4.82s-2.66-2.25-2.66-4.82c0-2.45.27-4.75 2.66-4.75 2.4 0 2.67 2.3 2.67 4.75Z" fill="#fff"/><path d="m268.36 86.59.53-3.37-1.18-.03h-5.66l3.93-24.87a.32.32 0 0 1 .32-.27h9.55c3.17 0 5.35.65 6.5 1.95.53.61.87 1.25 1.04 1.95.17.73.17 1.6 0 2.68v.76l.53.3c.4.21.77.5 1.08.83.46.52.76 1.18.88 1.97.13.8.09 1.76-.12 2.85a10 10 0 0 1-1.18 3.23 6.65 6.65 0 0 1-4.36 3.15c-.92.24-1.97.36-3.12.36h-.75a2.24 2.24 0 0 0-2.2 1.88l-.06.3-.94 5.95-.04.21c-.02.07-.04.1-.06.13a.16.16 0 0 1-.1.04h-4.59Z" fill="#253B80"/><path d="m284.43 64.77-.1.56c-1.26 6.45-5.56 8.68-11.06 8.68h-2.8c-.67 0-1.24.48-1.35 1.15l-1.43 9.07-.4 2.58a.72.72 0 0 0 .7.82h4.97a1.2 1.2 0 0 0 1.18-1l.05-.26.93-5.92.06-.32c.1-.58.6-1.01 1.18-1.01h.75c4.8 0 8.57-1.95 9.67-7.6.46-2.35.22-4.32-1-5.7a4.76 4.76 0 0 0-1.35-1.05Z" fill="#179BD7"/><path d="M283.14 64.32c-.4-.11-.82-.2-1.24-.27-.82-.12-1.65-.18-2.48-.18h-7.52a1.2 1.2 0 0 0-1.19 1.01l-1.6 10.06-.04.29a1.35 1.35 0 0 1 1.35-1.15h2.82c5.53 0 9.86-2.23 11.12-8.67l.1-.56a6.76 6.76 0 0 0-1.32-.53Z" fill="#222D65"/><path d="M270.79 64.85a1.2 1.2 0 0 1 1.18-1.01h7.49c.88 0 1.71.05 2.47.18.5.08 1.01.2 1.5.36.38.12.72.27 1.04.43.38-2.39 0-4.02-1.3-5.5-1.42-1.61-3.99-2.31-7.28-2.31h-9.55c-.67 0-1.25.49-1.35 1.15L261 83.4a.83.83 0 0 0 .19.67.83.83 0 0 0 .62.28h5.9l1.48-9.4 1.59-10.1Z" fill="#253B80"/><g filter="url(#i)"><rect x="206" y="425" width="324" height="54" rx="10" fill="#fff"/></g><path d="M265.49 447.03c1.17 0 2.15.3 2.94.87.78.58 1.3 1.37 1.55 2.37h-1.68a2.67 2.67 0 0 0-1.06-1.28 3.1 3.1 0 0 0-1.74-.47 3.05 3.05 0 0 0-2.81 1.67c-.27.52-.4 1.15-.4 1.87 0 .75.13 1.4.41 1.94.28.55.67.96 1.18 1.25.51.28 1.1.42 1.78.42.82 0 1.52-.25 2.11-.76.59-.5.94-1.2 1.06-2.1h-3.62v-1.17h4.97v1.52c-.11.73-.38 1.4-.79 2-.4.58-.93 1.05-1.6 1.4-.67.36-1.43.54-2.29.54-.96 0-1.8-.22-2.55-.65a4.41 4.41 0 0 1-1.7-1.77c-.4-.77-.6-1.64-.6-2.62 0-.98.2-1.85.6-2.6.4-.77.96-1.36 1.69-1.78a4.97 4.97 0 0 1 2.55-.65Zm8.04 3.77c.26-.5.64-.9 1.12-1.2.49-.3 1.05-.44 1.68-.44v1.74h-.48c-.7 0-1.26.17-1.69.51-.42.34-.63.9-.63 1.68V457h-1.6v-7.71h1.6v1.5Zm11.3 1.97c0 .26-.01.5-.05.69h-5.94c.03.8.25 1.38.66 1.76.41.38.92.58 1.53.58.53 0 .98-.14 1.34-.41.37-.27.6-.63.69-1.08h1.7a3.32 3.32 0 0 1-1.91 2.44c-.53.23-1.11.35-1.75.35-.75 0-1.41-.16-2-.48a3.4 3.4 0 0 1-1.34-1.37c-.32-.6-.49-1.3-.49-2.11 0-.8.17-1.5.5-2.1a3.4 3.4 0 0 1 1.34-1.38 4.07 4.07 0 0 1 1.99-.47c.75 0 1.41.16 1.97.47.57.31 1 .74 1.3 1.3.31.53.46 1.14.46 1.81Zm-1.6-.04a2.3 2.3 0 0 0-.27-1.26c-.19-.35-.45-.6-.79-.76a2.32 2.32 0 0 0-1.07-.25c-.63 0-1.15.2-1.57.58-.42.38-.65.94-.69 1.69h4.38Zm6.38-3.54c.7 0 1.3.17 1.8.52.49.34.84.8 1.04 1.37v-1.8h1.6V457h-1.6v-1.8c-.2.58-.55 1.04-1.05 1.38-.5.35-1.1.52-1.8.52a3.27 3.27 0 0 1-3.04-1.85c-.29-.6-.44-1.3-.44-2.11 0-.8.15-1.5.45-2.1a3.27 3.27 0 0 1 3.04-1.85Zm.49 1.4c-.71 0-1.28.23-1.7.68a2.62 2.62 0 0 0-.64 1.87c0 .79.21 1.42.63 1.87.43.45 1 .67 1.7.67.46 0 .86-.1 1.21-.3.36-.22.64-.52.84-.9.2-.38.31-.83.31-1.34 0-.5-.1-.95-.3-1.33a2.28 2.28 0 0 0-2.04-1.22Zm9.88 5.02V457H299c-.82 0-1.45-.2-1.88-.59-.42-.4-.63-1.06-.63-1.99v-3.78h-1.1v-1.35h1.1v-1.92h1.61v1.92h1.87v1.35h-1.87v3.81c0 .44.08.74.24.91.17.17.46.25.87.25h.77Zm3.88-8.8-.22 7.1h-1.34l-.2-7.1h1.75Zm.04 8.43V457h-1.82v-1.76h1.82Zm13.26-8.12-3.29 6.28v3.6h-1.6v-3.6l-3.31-6.28h1.85l2.27 4.57 2.26-4.57h1.82Zm4.86 2.07c.75 0 1.42.16 2.02.47.6.32 1.06.78 1.4 1.38.34.6.5 1.3.5 2.1s-.16 1.51-.5 2.11c-.34.6-.8 1.06-1.4 1.37-.6.32-1.27.48-2.02.48-.74 0-1.41-.16-2.01-.48a3.53 3.53 0 0 1-1.4-1.37 4.3 4.3 0 0 1-.5-2.11c0-.8.16-1.5.5-2.1.34-.6.81-1.06 1.4-1.38.6-.31 1.27-.47 2.01-.47Zm0 1.38c-.4 0-.78.1-1.13.28a2.1 2.1 0 0 0-.84.87c-.2.38-.3.86-.3 1.42a3 3 0 0 0 .3 1.42c.21.39.5.67.84.86.35.19.72.28 1.13.28.42 0 .8-.1 1.14-.28.34-.19.62-.47.82-.86.22-.38.33-.86.33-1.42 0-.56-.11-1.03-.33-1.42-.2-.39-.48-.68-.82-.87a2.34 2.34 0 0 0-1.14-.28Zm12.71-1.28V457h-1.6v-1.68c-.2.57-.55 1.01-1.03 1.33a3.1 3.1 0 0 1-1.7.46c-.9 0-1.61-.29-2.15-.87-.54-.57-.81-1.4-.81-2.47v-4.48h1.6v4.3c0 .7.17 1.25.52 1.63.36.38.84.56 1.46.56.63 0 1.14-.2 1.53-.61.38-.42.57-1.01.57-1.8v-4.08h1.61Zm3.65 1.5a3.14 3.14 0 0 1 2.8-1.64v1.75h-.48c-.7 0-1.26.17-1.7.51-.41.34-.62.9-.62 1.68V457h-1.6v-7.71h1.6v1.5Zm9.15 2.37V457h-1.6v-9.88h3.37c1.13 0 1.99.27 2.56.8.58.55.87 1.3.87 2.23 0 .94-.3 1.68-.89 2.22-.58.53-1.43.8-2.54.8h-1.77Zm1.6-1.3c1.31 0 1.97-.57 1.97-1.7 0-.57-.16-1-.48-1.28-.3-.3-.8-.45-1.5-.45h-1.59v3.43h1.6Zm8.23-2.67c.7 0 1.3.17 1.8.52.48.34.83.8 1.04 1.37v-1.8h1.6V457h-1.6v-1.8a2.8 2.8 0 0 1-1.05 1.38c-.5.35-1.1.52-1.8.52a3.26 3.26 0 0 1-3.04-1.85c-.29-.6-.44-1.3-.44-2.11 0-.8.15-1.5.45-2.1a3.26 3.26 0 0 1 3.04-1.85Zm.49 1.4c-.71 0-1.28.23-1.7.68a2.62 2.62 0 0 0-.64 1.87c0 .79.21 1.42.63 1.87.43.45 1 .67 1.7.67.46 0 .86-.1 1.21-.3.36-.22.64-.52.84-.9.2-.38.31-.83.31-1.34 0-.5-.1-.95-.3-1.33a2.28 2.28 0 0 0-2.04-1.22Zm6.91-1.3 2.31 5.67 2.14-5.67H371l-4.66 11.38h-1.78l1.67-3.85-3.25-7.53h1.8Zm17.07-.13c.91 0 1.64.29 2.18.87.55.58.83 1.4.83 2.48V457h-1.6v-4.33c0-.67-.17-1.19-.5-1.55-.34-.37-.8-.56-1.39-.56-.62 0-1.12.2-1.5.6-.36.4-.54.97-.54 1.74v4.1h-1.6v-4.33c0-.67-.17-1.19-.5-1.55-.34-.37-.8-.56-1.39-.56-.62 0-1.12.2-1.5.6-.36.4-.54.97-.54 1.74v4.1h-1.6v-7.71h1.6v1.6c.2-.55.52-.98.98-1.28.45-.3 1-.45 1.6-.45.65 0 1.2.16 1.67.48.48.31.83.77 1.04 1.37a2.8 2.8 0 0 1 1.08-1.36c.5-.33 1.05-.49 1.68-.49Zm12.18 3.61c0 .26-.02.5-.06.69h-5.93c.03.8.24 1.38.66 1.76.4.38.91.58 1.52.58.53 0 .98-.14 1.35-.41.37-.27.6-.63.68-1.08h1.7a3.33 3.33 0 0 1-1.9 2.44c-.53.23-1.11.35-1.76.35-.75 0-1.4-.16-1.99-.48a3.39 3.39 0 0 1-1.34-1.37c-.33-.6-.5-1.3-.5-2.11 0-.8.17-1.5.5-2.1.32-.6.77-1.06 1.34-1.38a4.07 4.07 0 0 1 2-.47c.75 0 1.4.16 1.97.47.56.31 1 .74 1.3 1.3.3.53.46 1.14.46 1.81Zm-1.61-.04a2.3 2.3 0 0 0-.27-1.26c-.18-.35-.44-.6-.78-.76a2.32 2.32 0 0 0-1.08-.25c-.63 0-1.15.2-1.57.58-.42.38-.65.94-.68 1.69h4.38Zm7.6-3.57c.9 0 1.62.29 2.16.87.54.58.81 1.4.81 2.48V457h-1.6v-4.33c0-.69-.17-1.22-.53-1.6a1.89 1.89 0 0 0-1.45-.57c-.64 0-1.15.2-1.53.62-.38.4-.57 1-.57 1.78v4.1h-1.6v-7.71h1.6v1.69c.2-.58.55-1.03 1.03-1.34a3 3 0 0 1 1.68-.48Zm8.85 6.45V457h-.98c-.82 0-1.44-.2-1.87-.59-.42-.4-.63-1.06-.63-1.99v-3.78h-1.1v-1.35h1.1v-1.92h1.6v1.92h1.87v1.35h-1.86v3.81c0 .44.08.74.24.91.16.17.45.25.86.25h.77Zm4.84-8.56c0-.28.09-.5.28-.68.18-.17.43-.26.74-.26.3 0 .55.09.74.26.2.18.3.4.3.68 0 .27-.1.49-.3.65-.19.17-.43.26-.74.26-.3 0-.56-.09-.74-.26a.84.84 0 0 1-.28-.65Zm1.82 2.24V457h-1.6v-7.71h1.6Zm4.6-.1c.9 0 1.63.23 2.17.7.55.46.89 1.07 1.01 1.85h-1.51a1.59 1.59 0 0 0-.55-1.01c-.29-.26-.68-.4-1.16-.4-.4 0-.71.1-.94.3a.97.97 0 0 0-.32.77c0 .24.08.44.24.59.16.15.35.26.59.35.24.08.58.18 1.02.28.58.13 1.04.26 1.4.4.36.14.67.37.92.68.26.3.4.7.4 1.23 0 .64-.25 1.17-.75 1.57a3 3 0 0 1-1.97.6 3.8 3.8 0 0 1-2.34-.67 2.77 2.77 0 0 1-1.06-1.88h1.55c.05.42.23.76.56 1.02a2 2 0 0 0 1.29.4c.38 0 .68-.1.9-.3a1 1 0 0 0 .33-.77.84.84 0 0 0-.25-.64 1.67 1.67 0 0 0-.63-.37c-.25-.1-.6-.19-1.04-.28-.56-.13-1.02-.26-1.37-.39a2.22 2.22 0 0 1-.9-.63c-.24-.3-.36-.7-.36-1.2 0-.66.24-1.19.73-1.59a3.1 3.1 0 0 1 2.04-.61Zm10.96 0c.9 0 1.63.23 2.17.7a2.9 2.9 0 0 1 1 1.85h-1.5a1.6 1.6 0 0 0-.55-1.01c-.29-.26-.68-.4-1.16-.4-.4 0-.72.1-.94.3a.97.97 0 0 0-.32.77c0 .24.08.44.24.59.15.15.35.26.58.35.25.08.59.18 1.03.28a9.9 9.9 0 0 1 1.4.4c.36.14.67.37.92.68.26.3.4.7.4 1.23 0 .64-.26 1.17-.75 1.57a3 3 0 0 1-1.97.6 3.8 3.8 0 0 1-2.34-.67 2.77 2.77 0 0 1-1.07-1.88h1.56c.04.42.23.76.56 1.02a2 2 0 0 0 1.29.4c.38 0 .68-.1.9-.3a1 1 0 0 0 .33-.77.84.84 0 0 0-.25-.64 1.67 1.67 0 0 0-.63-.37 7.8 7.8 0 0 0-1.04-.28c-.56-.13-1.02-.26-1.37-.39a2.22 2.22 0 0 1-.9-.63c-.24-.3-.36-.7-.36-1.2 0-.66.24-1.19.73-1.59a3.1 3.1 0 0 1 2.04-.61Zm12.11.1V457h-1.6v-1.68c-.2.57-.54 1.01-1.03 1.33a3.1 3.1 0 0 1-1.7.46c-.89 0-1.6-.29-2.15-.87-.54-.57-.81-1.4-.81-2.47v-4.48h1.6v4.3c0 .7.17 1.25.53 1.63.35.38.84.56 1.45.56.64 0 1.15-.2 1.53-.61.38-.42.57-1.01.57-1.8v-4.08h1.61Zm5.49-.1c1 0 1.82.26 2.47.8a3.39 3.39 0 0 1 1.22 2.14h-1.7c-.09-.49-.31-.87-.68-1.14a2.1 2.1 0 0 0-1.34-.42c-.62 0-1.13.22-1.54.66-.41.43-.62 1.07-.62 1.9 0 .85.2 1.49.62 1.92.4.44.92.66 1.54.66.54 0 .99-.14 1.34-.42.37-.28.6-.66.69-1.15h1.7c-.17.9-.57 1.63-1.23 2.16a3.8 3.8 0 0 1-2.47.8c-.75 0-1.41-.16-2-.48a3.39 3.39 0 0 1-1.34-1.37c-.32-.6-.49-1.3-.49-2.11 0-.8.17-1.5.5-2.1.32-.6.77-1.06 1.34-1.38a4.07 4.07 0 0 1 1.99-.47Zm8.8 0c1 0 1.83.26 2.48.8a3.38 3.38 0 0 1 1.22 2.14h-1.7c-.09-.49-.32-.87-.68-1.14a2.1 2.1 0 0 0-1.35-.42c-.61 0-1.12.22-1.54.66-.4.43-.61 1.07-.61 1.9 0 .85.2 1.49.61 1.92.42.44.93.66 1.55.66.54 0 .99-.14 1.34-.42.36-.28.6-.66.69-1.15h1.69c-.16.9-.56 1.63-1.22 2.16a3.8 3.8 0 0 1-2.48.8c-.74 0-1.4-.16-1.99-.48a3.4 3.4 0 0 1-1.34-1.37c-.32-.6-.49-1.3-.49-2.11 0-.8.17-1.5.5-2.1a3.4 3.4 0 0 1 1.34-1.38 4.07 4.07 0 0 1 1.98-.47Zm12.55 3.58c0 .26-.02.5-.06.69h-5.93c.03.8.25 1.38.66 1.76.4.38.92.58 1.52.58.53 0 .98-.14 1.35-.41.37-.27.6-.63.68-1.08h1.7a3.31 3.31 0 0 1-1.9 2.44c-.53.23-1.12.35-1.76.35-.74 0-1.4-.16-1.99-.48a3.4 3.4 0 0 1-1.34-1.37c-.33-.6-.5-1.3-.5-2.11 0-.8.17-1.5.5-2.1a3.4 3.4 0 0 1 1.34-1.38 4.07 4.07 0 0 1 2-.47c.75 0 1.4.16 1.96.47.57.31 1 .74 1.3 1.3.31.53.47 1.14.47 1.81Zm-1.61-.04a2.3 2.3 0 0 0-.27-1.26 1.7 1.7 0 0 0-.78-.76 2.32 2.32 0 0 0-1.08-.25c-.62 0-1.15.2-1.57.58-.42.38-.64.94-.68 1.69h4.38Zm5.82-3.54c.91 0 1.63.23 2.17.7.56.46.9 1.07 1.01 1.85h-1.51a1.59 1.59 0 0 0-.55-1.01c-.29-.26-.67-.4-1.16-.4-.4 0-.71.1-.94.3a.97.97 0 0 0-.32.77c0 .24.08.44.24.59.16.15.35.26.59.35.24.08.58.18 1.02.28.58.13 1.05.26 1.4.4.36.14.67.37.92.68.27.3.4.7.4 1.23 0 .64-.25 1.17-.75 1.57a3 3 0 0 1-1.97.6 3.8 3.8 0 0 1-2.34-.67 2.78 2.78 0 0 1-1.06-1.88h1.55c.05.42.24.76.56 1.02a2 2 0 0 0 1.29.4c.38 0 .68-.1.9-.3a1 1 0 0 0 .33-.77.84.84 0 0 0-.25-.64 1.67 1.67 0 0 0-.63-.37c-.25-.1-.6-.19-1.04-.28-.56-.13-1.01-.26-1.37-.39a2.22 2.22 0 0 1-.9-.63c-.24-.3-.36-.7-.36-1.2 0-.66.25-1.19.73-1.59a3.1 3.1 0 0 1 2.04-.61Zm8.6-1.5c-.62-.03-1.06.07-1.31.3-.25.23-.38.62-.38 1.17v.13h1.7v1.37h-1.7V457h-1.6v-6.34h-1.06v-1.37h1.05v-.26c0-.94.28-1.64.83-2.11.55-.48 1.37-.69 2.47-.63v1.4Zm8.54 1.6V457h-1.61v-1.68c-.2.57-.54 1.01-1.02 1.33a3.1 3.1 0 0 1-1.7.46c-.9 0-1.61-.29-2.15-.87-.54-.57-.81-1.4-.81-2.47v-4.48h1.6v4.3c0 .7.17 1.25.52 1.63.36.38.84.56 1.46.56.63 0 1.14-.2 1.53-.61.38-.42.57-1.01.57-1.8v-4.08h1.61Zm3.65-2.65V457h-1.6v-10.36h1.6Zm3.67 0V457h-1.6v-10.36h1.6Zm2.98 2.65 2.3 5.67 2.15-5.67h1.78l-4.67 11.38h-1.77l1.66-3.85-3.25-7.53h1.8Zm8.68 5.95V457h-1.81v-1.76h1.8Z" fill="#080915"/><g clip-path="url(#j)"><path d="M238 440a12 12 0 1 0-.01 23.99A12 12 0 0 0 238 440Zm6.35 8.72-7.69 7.69a.8.8 0 0 1-1.13 0l-3.88-3.89a.8.8 0 1 1 1.13-1.13l3.32 3.32 7.12-7.12a.8.8 0 0 1 1.13 1.13Z" fill="#00AE1C"/></g><defs><linearGradient id="b" x1="-920.5" y1="-290" x2="336.6" y2="350.87" gradientUnits="userSpaceOnUse"><stop stop-color="#fff"/><stop offset=".99" stop-color="#14101D"/></linearGradient><linearGradient id="e" x1="-496" y1="-248.5" x2="482.54" y2="136.61" gradientUnits="userSpaceOnUse"><stop stop-color="#fff"/><stop offset="1" stop-color="#14101D"/></linearGradient><linearGradient id="f" x1="409.99" y1="97.35" x2="421.47" y2="157.78" gradientUnits="userSpaceOnUse"><stop offset=".01" stop-color="#DEF9FA"/><stop offset=".17" stop-color="#BEF3F5"/><stop offset=".42" stop-color="#9DEDF0"/><stop offset=".55" stop-color="#7DE7EB"/><stop offset=".72" stop-color="#5CE1E6"/><stop offset="1" stop-color="#33BBCF"/></linearGradient><linearGradient id="g" x1="371.13" y1="154.35" x2="375.59" y2="216.64" gradientUnits="userSpaceOnUse"><stop offset=".01" stop-color="#DEF9FA"/><stop offset=".17" stop-color="#BEF3F5"/><stop offset=".42" stop-color="#9DEDF0"/><stop offset=".55" stop-color="#7DE7EB"/><stop offset=".72" stop-color="#5CE1E6"/><stop offset="1" stop-color="#33BBCF"/></linearGradient><linearGradient id="h" x1="406.54" y1="116.93" x2="411.96" y2="152.14" gradientUnits="userSpaceOnUse"><stop offset=".01" stop-color="#DEF9FA"/><stop offset=".17" stop-color="#BEF3F5"/><stop offset=".42" stop-color="#9DEDF0"/><stop offset=".55" stop-color="#7DE7EB"/><stop offset=".72" stop-color="#5CE1E6"/><stop offset="1" stop-color="#33BBCF"/></linearGradient><filter id="a" x="-30.4" y="146.6" width="395.8" height="340.8" filterUnits="userSpaceOnUse" color-interpolation-filters="sRGB"><feFlood flood-opacity="0" result="BackgroundImageFix"/><feGaussianBlur in="BackgroundImageFix" stdDeviation="15.2"/><feComposite in2="SourceAlpha" operator="in" result="effect1_backgroundBlur_31606_94"/><feBlend in="SourceGraphic" in2="effect1_backgroundBlur_31606_94" result="shape"/><feColorMatrix in="SourceAlpha" values="0 0 0 0 0 0 0 0 0 0 0 0 0 0 0 0 0 0 127 0" result="hardAlpha"/><feOffset dx="-.24" dy="-.24"/><feGaussianBlur stdDeviation=".18"/><feComposite in2="hardAlpha" operator="arithmetic" k2="-1" k3="1"/><feColorMatrix values="0 0 0 0 0 0 0 0 0 0 0 0 0 0 0 0 0 0 0.36 0"/><feBlend in2="shape" result="effect2_innerShadow_31606_94"/></filter><filter id="d" x="199" y="0" width="287" height="276" filterUnits="userSpaceOnUse" color-interpolation-filters="sRGB"><feFlood flood-opacity="0" result="BackgroundImageFix"/><feColorMatrix in="SourceAlpha" values="0 0 0 0 0 0 0 0 0 0 0 0 0 0 0 0 0 0 127 0" result="hardAlpha"/><feOffset dx="4" dy="6"/><feGaussianBlur stdDeviation="15"/><feComposite in2="hardAlpha" operator="out"/><feColorMatrix values="0 0 0 0 0.0753993 0 0 0 0 0.14181 0 0 0 0 0.179167 0 0 0 0.25 0"/><feBlend in2="BackgroundImageFix" result="effect1_dropShadow_31606_94"/><feBlend in="SourceGraphic" in2="effect1_dropShadow_31606_94" result="shape"/></filter><filter id="i" x="176" y="405" width="384" height="114" filterUnits="userSpaceOnUse" color-interpolation-filters="sRGB"><feFlood flood-opacity="0" result="BackgroundImageFix"/><feColorMatrix in="SourceAlpha" values="0 0 0 0 0 0 0 0 0 0 0 0 0 0 0 0 0 0 127 0" result="hardAlpha"/><feOffset dy="10"/><feGaussianBlur stdDeviation="15"/><feComposite in2="hardAlpha" operator="out"/><feColorMatrix values="0 0 0 0 0.156719 0 0 0 0 0.187018 0 0 0 0 0.245833 0 0 0 0.25 0"/><feBlend in2="BackgroundImageFix" result="effect1_dropShadow_31606_94"/><feBlend in="SourceGraphic" in2="effect1_dropShadow_31606_94" result="shape"/></filter><clipPath id="c"><path fill="#fff" transform="translate(20 259)" d="M0 0h40v40H0z"/></clipPath><clipPath id="j"><path fill="#fff" transform="translate(226 440)" d="M0 0h24v24H0z"/></clipPath></defs></svg>