<svg width="119" height="32" fill="none" xmlns="http://www.w3.org/2000/svg"><path d="M48.09 10.3V23h-2.56v-5.53H40.1V23h-2.54V10.3h2.54v5.14h5.43v-5.15h2.56Zm6.9 2.6c.98 0 1.85.2 2.62.61.78.41 1.39 1 1.83 1.79.45.76.67 1.67.67 2.71 0 1.05-.22 1.95-.67 2.72a4.6 4.6 0 0 1-1.83 1.78c-.77.41-1.64.62-2.61.62s-1.85-.2-2.63-.62a4.63 4.63 0 0 1-1.82-1.78 5.34 5.34 0 0 1-.66-2.72c0-1.04.22-1.95.66-2.71a4.48 4.48 0 0 1 1.82-1.79c.78-.4 1.66-.6 2.63-.6Zm0 2.2c-.7 0-1.3.25-1.8.75-.48.5-.73 1.22-.73 2.16 0 .95.25 1.68.74 2.18.49.5 1.09.74 1.8.74.7 0 1.3-.25 1.8-.74.49-.5.74-1.23.74-2.18 0-.94-.25-1.66-.74-2.16-.5-.5-1.1-.75-1.8-.75Zm11.52-2.2c.97 0 1.84.2 2.61.61.78.41 1.4 1 1.84 1.79.44.76.66 1.67.66 2.71 0 1.05-.22 1.95-.66 2.72a4.6 4.6 0 0 1-1.84 1.78c-.77.41-1.64.62-2.6.62-.98 0-1.86-.2-2.64-.62a4.63 4.63 0 0 1-1.81-1.78 5.34 5.34 0 0 1-.67-2.72c0-1.04.22-1.95.67-2.71a4.48 4.48 0 0 1 1.81-1.79c.78-.4 1.66-.6 2.63-.6Zm0 2.2c-.7 0-1.3.25-1.8.75-.49.5-.74 1.22-.74 2.16 0 .95.25 1.68.74 2.18.5.5 1.1.74 1.8.74.71 0 1.31-.25 1.8-.74.5-.5.74-1.23.74-2.18 0-.94-.25-1.66-.74-2.16-.49-.5-1.09-.75-1.8-.75Z" fill="#fff"/><path d="M80.51 16.45c.77.15 1.38.52 1.84 1.1.46.56.7 1.23.7 2 0 1.06-.36 1.9-1.08 2.53-.71.61-1.74.92-3.1.92h-5.45V10.3h5.34c1.29 0 2.27.27 2.96.84.7.56 1.04 1.35 1.04 2.37 0 .8-.21 1.44-.63 1.95-.4.5-.95.83-1.62.99Zm-4.55-.83h2.28c.64 0 1.12-.14 1.44-.41.34-.3.5-.7.5-1.23s-.16-.93-.48-1.22c-.32-.29-.82-.43-1.5-.43h-2.24v3.29Zm2.4 5.31c.68 0 1.2-.14 1.56-.43.36-.3.54-.73.54-1.3 0-.56-.19-1-.56-1.3a2.3 2.3 0 0 0-1.55-.46h-2.4v3.49h2.42Zm10.37-8.03c.84 0 1.56.2 2.16.6.6.4 1.03.93 1.28 1.6v-2.07h2.52V23h-2.52v-2.09a3.33 3.33 0 0 1-1.28 1.62c-.6.4-1.32.6-2.16.6a4.2 4.2 0 0 1-3.85-2.38 6.3 6.3 0 0 1-.56-2.74c0-1.04.19-1.95.56-2.71a4.18 4.18 0 0 1 3.85-2.4Zm.8 2.22c-.8 0-1.43.25-1.91.77a3 3 0 0 0-.72 2.12 3 3 0 0 0 .72 2.13c.48.5 1.11.75 1.9.75.77 0 1.4-.25 1.9-.77.5-.53.75-1.23.75-2.1 0-.9-.25-1.6-.76-2.11-.49-.53-1.12-.8-1.89-.8Zm13.4-2.24c1.15 0 2.07.38 2.75 1.14a4.58 4.58 0 0 1 1.03 3.18V23h-2.52v-5.5c0-.8-.2-1.41-.61-1.84-.41-.45-.97-.67-1.68-.67-.72 0-1.3.23-1.72.7-.44.47-.65 1.14-.65 2.02V23h-2.54v-9.97h2.54v2c.26-.68.7-1.2 1.3-1.57a3.88 3.88 0 0 1 2.1-.58ZM114.77 23l-3.29-4.36V23h-2.54V9.68h2.54v7.49l3.28-4.14h3l-4.2 4.97 4.31 5h-3.1Z" fill="#5CE1E6"/><path d="M16.4 0a16 16 0 1 0 16 16h-8a8 8 0 1 1-8-8V0Z" fill="#fff"/><path d="M16.4 0a16 16 0 0 0-16 16h8a8 8 0 0 1 8-8V0Z" fill="#5CE1E6"/><circle cx="16.41" cy="16" r="5" fill="#5CE1E6"/><path d="M21.4 16a5 5 0 1 0-10 0h10Z" fill="#fff"/></svg>