<svg width="64" height="64" fill="none" xmlns="http://www.w3.org/2000/svg"><circle cx="32" cy="32" r="32" fill="#09977C" fill-opacity=".1"/><path fill-rule="evenodd" clip-rule="evenodd" d="M31.57 47.86a1.22 1.22 0 0 0 1.14 0l5.71-3.06a13.5 13.5 0 0 0 3.88-2.95 13.2 13.2 0 0 0 3.3-8.79l-.07-10.62a2.9 2.9 0 0 0-2-2.72l-10.62-3.56a3.02 3.02 0 0 0-1.97.01l-10.57 3.69a2.9 2.9 0 0 0-1.97 2.74l.07 10.62a13.2 13.2 0 0 0 3.42 8.75c1 1.11 2.28 2.06 3.91 2.91l5.77 2.98Zm-1.52-12.49c.24.23.55.35.86.34.31 0 .62-.11.85-.35L38 29.21c.47-.46.47-1.2 0-1.66a1.23 1.23 0 0 0-1.72 0l-5.39 5.32-2.2-2.12a1.23 1.23 0 0 0-1.71.01c-.47.46-.47 1.2 0 1.66l3.07 2.95Z" fill="#00F6FF"/></svg>