<svg width="64" height="64" fill="none" xmlns="http://www.w3.org/2000/svg"><circle cx="32" cy="32" r="32" fill="#09977C" fill-opacity=".1"/><path d="M41.47 35.71c-.41.4-.6.98-.51 1.55l1.42 7.88c.12.66-.16 1.34-.72 1.72-.55.4-1.27.45-1.87.13l-7.09-3.7a1.8 1.8 0 0 0-.8-.2h-.43c-.15.02-.3.07-.43.14l-7.09 3.71c-.35.18-.75.24-1.14.18a1.78 1.78 0 0 1-1.42-2.03l1.42-7.88c.1-.57-.1-1.15-.5-1.56l-5.78-5.6a1.73 1.73 0 0 1-.43-1.81 1.8 1.8 0 0 1 1.42-1.2l7.95-1.15c.6-.07 1.14-.43 1.4-.98l3.51-7.18c.08-.16.2-.3.32-.43l.15-.12c.07-.08.16-.15.25-.2l.18-.07.27-.11h.67c.6.06 1.13.42 1.41.96l3.55 7.15c.26.53.76.89 1.33.98l7.95 1.15c.67.1 1.24.56 1.46 1.2.2.64.03 1.35-.47 1.8l-5.98 5.67Z" fill="#00F6FF"/></svg>