<svg width="64" height="64" fill="none" xmlns="http://www.w3.org/2000/svg"><circle cx="32" cy="32" r="32" fill="#09977C" fill-opacity=".1"/><path d="M45.5 16.93a3.1 3.1 0 0 0-3.1-.8l-25.75 7.49c-1.16.32-1.99 1.25-2.21 2.43-.23 1.2.57 2.73 1.6 3.36l8.06 4.95c.82.51 1.89.38 2.57-.3l9.22-9.29a1.17 1.17 0 0 1 1.7 0c.46.47.46 1.23 0 1.71l-9.24 9.28a2.12 2.12 0 0 0-.3 2.6l4.91 8.13A3.06 3.06 0 0 0 35.62 48c.13 0 .27 0 .4-.02a3.12 3.12 0 0 0 2.61-2.22l7.63-25.72c.34-1.1.04-2.29-.76-3.1Z" fill="#00F6FF"/></svg>